Nunito Sans Base ufo2-M 1000.ufo
<glyph name="dollar" format="1">
  <advance width="600"/>
  <unicode hex="0024"/>
  <outline>
    <contour>
      <point x="229" y="-115" type="line"/>
      <point x="389" y="-115" type="line"/>
      <point x="389" y="23" type="line"/>
      <point x="364" y="-3" type="line"/>
      <point x="501" y="16"/>
      <point x="595" y="102"/>
      <point x="595" y="224" type="curve" smooth="yes"/>
      <point x="595" y="328"/>
      <point x="534" y="395"/>
      <point x="409" y="423" type="curve" smooth="yes"/>
      <point x="293" y="449" type="line" smooth="yes"/>
      <point x="241" y="461"/>
      <point x="227" y="473"/>
      <point x="227" y="489" type="curve" smooth="yes"/>
      <point x="227" y="517"/>
      <point x="259" y="538"/>
      <point x="322" y="538" type="curve" smooth="yes"/>
      <point x="395" y="538"/>
      <point x="463" y="517"/>
      <point x="509" y="484" type="curve"/>
      <point x="565" y="640" type="line"/>
      <point x="519" y="679"/>
      <point x="439" y="706"/>
      <point x="355" y="712" type="curve"/>
      <point x="389" y="691" type="line"/>
      <point x="389" y="820" type="line"/>
      <point x="229" y="820" type="line"/>
      <point x="229" y="691" type="line"/>
      <point x="264" y="709" type="line"/>
      <point x="118" y="690"/>
      <point x="23" y="602"/>
      <point x="23" y="480" type="curve" smooth="yes"/>
      <point x="23" y="373"/>
      <point x="83" y="305"/>
      <point x="208" y="277" type="curve" smooth="yes"/>
      <point x="325" y="251" type="line" smooth="yes"/>
      <point x="375" y="240"/>
      <point x="390" y="227"/>
      <point x="390" y="208" type="curve" smooth="yes"/>
      <point x="390" y="187"/>
      <point x="368" y="167"/>
      <point x="294" y="167" type="curve" smooth="yes"/>
      <point x="216" y="167"/>
      <point x="126" y="194"/>
      <point x="68" y="231" type="curve"/>
      <point x="11" y="65" type="line"/>
      <point x="70" y="25"/>
      <point x="164" y="-2"/>
      <point x="263" y="-7" type="curve"/>
      <point x="229" y="23" type="line"/>
    </contour>
  </outline>
</glyph>
<glyph name="quotesingle" format="1">
  <advance width="283"/>
  <unicode hex="0027"/>
  <outline>
    <contour>
      <point x="72" y="389" type="line"/>
      <point x="211" y="389" type="line"/>
      <point x="260" y="705" type="line"/>
      <point x="23" y="705" type="line"/>
    </contour>
  </outline>
</glyph>
<glyph name="parenright" format="1">
  <advance width="434"/>
  <unicode hex="0029"/>
  <outline>
    <contour>
      <point x="169" y="-200" type="line"/>
      <point x="295" y="-56"/>
      <point x="338" y="100"/>
      <point x="338" y="263" type="curve" smooth="yes"/>
      <point x="338" y="426"/>
      <point x="295" y="582"/>
      <point x="169" y="726" type="curve"/>
      <point x="35" y="670" type="line"/>
      <point x="94" y="507"/>
      <point x="114" y="405"/>
      <point x="114" y="263" type="curve" smooth="yes"/>
      <point x="114" y="121"/>
      <point x="94" y="19"/>
      <point x="35" y="-144" type="curve"/>
    </contour>
  </outline>
</glyph>
<glyph name="period" format="1">
  <advance width="285"/>
  <unicode hex="002E"/>
  <outline>
    <contour>
      <point x="37" y="207" type="line"/>
      <point x="37" y="0" type="line"/>
      <point x="248" y="0" type="line"/>
      <point x="248" y="207" type="line"/>
    </contour>
  </outline>
</glyph>
<glyph name="slash" format="1">
  <advance width="370"/>
  <unicode hex="002F"/>
  <outline>
    <contour>
      <point x="129" y="-87" type="line"/>
      <point x="391" y="731" type="line"/>
      <point x="241" y="775" type="line"/>
      <point x="-21" y="-43" type="line"/>
    </contour>
  </outline>
</glyph>
<glyph name="zero" format="1">
  <advance width="600"/>
  <unicode hex="0030"/>
  <outline>
    <contour>
      <point x="300" y="-12" type="curve" smooth="yes"/>
      <point x="478" y="-12"/>
      <point x="576" y="122"/>
      <point x="576" y="356" type="curve" smooth="yes"/>
      <point x="576" y="590"/>
      <point x="478" y="717"/>
      <point x="300" y="717" type="curve" smooth="yes"/>
      <point x="122" y="717"/>
      <point x="24" y="590"/>
      <point x="24" y="356" type="curve" smooth="yes"/>
      <point x="24" y="122"/>
      <point x="122" y="-12"/>
    </contour>
    <contour>
      <point x="300" y="158" type="curve" smooth="yes"/>
      <point x="251" y="158"/>
      <point x="227" y="216"/>
      <point x="227" y="356" type="curve" smooth="yes"/>
      <point x="227" y="496"/>
      <point x="251" y="547"/>
      <point x="300" y="547" type="curve" smooth="yes"/>
      <point x="349" y="547"/>
      <point x="373" y="496"/>
      <point x="373" y="356" type="curve" smooth="yes"/>
      <point x="373" y="216"/>
      <point x="349" y="158"/>
    </contour>
  </outline>
</glyph>
<glyph name="one" format="1">
  <advance width="600"/>
  <unicode hex="0031"/>
  <outline>
    <contour>
      <point x="450" y="174" type="line"/>
      <point x="450" y="705" type="line"/>
      <point x="298" y="705" type="line"/>
      <point x="42" y="563" type="line"/>
      <point x="119" y="408" type="line"/>
      <point x="332" y="526" type="line"/>
      <point x="235" y="526" type="line"/>
      <point x="235" y="174" type="line"/>
      <point x="80" y="174" type="line"/>
      <point x="80" y="0" type="line"/>
      <point x="595" y="0" type="line"/>
      <point x="595" y="174" type="line"/>
    </contour>
  </outline>
</glyph>
<glyph name="four" format="1">
  <advance width="600"/>
  <unicode hex="0034"/>
  <outline>
    <contour>
      <point x="591" y="279" type="line"/>
      <point x="504" y="279" type="line"/>
      <point x="504" y="705" type="line"/>
      <point x="332" y="705" type="line"/>
      <point x="24" y="257" type="line"/>
      <point x="24" y="109" type="line"/>
      <point x="299" y="109" type="line"/>
      <point x="299" y="0" type="line"/>
      <point x="504" y="0" type="line"/>
      <point x="504" y="109" type="line"/>
      <point x="591" y="109" type="line"/>
    </contour>
    <contour>
      <point x="175" y="279" type="line"/>
      <point x="175" y="183" type="line"/>
      <point x="350" y="447" type="line"/>
      <point x="299" y="447" type="line"/>
      <point x="299" y="279" type="line"/>
    </contour>
  </outline>
</glyph>
<glyph name="seven" format="1">
  <advance width="600"/>
  <unicode hex="0037"/>
  <outline>
    <contour>
      <point x="271" y="0" type="line"/>
      <point x="570" y="544" type="line"/>
      <point x="570" y="705" type="line"/>
      <point x="31" y="705" type="line"/>
      <point x="31" y="527" type="line"/>
      <point x="370" y="527" type="line"/>
      <point x="367" y="589" type="line"/>
      <point x="36" y="0" type="line"/>
    </contour>
  </outline>
</glyph>
<glyph name="nine" format="1">
  <advance width="600"/>
  <unicode hex="0039"/>
  <outline>
    <contour>
      <point x="271" y="717" type="curve" smooth="yes"/>
      <point x="124" y="717"/>
      <point x="21" y="613"/>
      <point x="21" y="467" type="curve" smooth="yes"/>
      <point x="21" y="334"/>
      <point x="110" y="235"/>
      <point x="223" y="235" type="curve" smooth="yes"/>
      <point x="305" y="235"/>
      <point x="368" y="280"/>
      <point x="387" y="357" type="curve"/>
      <point x="370" y="357" type="line"/>
      <point x="370" y="317" type="line" smooth="yes"/>
      <point x="370" y="215"/>
      <point x="326" y="163"/>
      <point x="236" y="163" type="curve" smooth="yes"/>
      <point x="183" y="163"/>
      <point x="129" y="180"/>
      <point x="81" y="213" type="curve"/>
      <point x="16" y="57" type="line"/>
      <point x="78" y="11"/>
      <point x="155" y="-12"/>
      <point x="234" y="-12" type="curve" smooth="yes"/>
      <point x="444" y="-12"/>
      <point x="570" y="126"/>
      <point x="570" y="356" type="curve" smooth="yes"/>
      <point x="570" y="586"/>
      <point x="462" y="717"/>
    </contour>
    <contour>
      <point x="282" y="555" type="curve" smooth="yes"/>
      <point x="322" y="555"/>
      <point x="348" y="524"/>
      <point x="348" y="476" type="curve" smooth="yes"/>
      <point x="348" y="428"/>
      <point x="322" y="397"/>
      <point x="282" y="397" type="curve" smooth="yes"/>
      <point x="242" y="397"/>
      <point x="216" y="428"/>
      <point x="216" y="476" type="curve" smooth="yes"/>
      <point x="216" y="524"/>
      <point x="242" y="555"/>
    </contour>
  </outline>
</glyph>
<glyph name="colon" format="1">
  <advance width="285"/>
  <unicode hex="003A"/>
  <outline>
    <contour>
      <point x="37" y="207" type="line"/>
      <point x="37" y="0" type="line"/>
      <point x="248" y="0" type="line"/>
      <point x="248" y="207" type="line"/>
    </contour>
    <contour>
      <point x="37" y="494" type="line"/>
      <point x="37" y="287" type="line"/>
      <point x="248" y="287" type="line"/>
      <point x="248" y="494" type="line"/>
    </contour>
  </outline>
</glyph>
<glyph name="A" format="1">
  <advance width="773"/>
  <unicode hex="0041"/>
  <outline>
    <contour>
      <point x="806" y="0" type="line"/>
      <point x="471" y="705" type="line"/>
      <point x="302" y="705" type="line"/>
      <point x="-33" y="0" type="line"/>
      <point x="181" y="0" type="line"/>
      <point x="263" y="191" type="line"/>
      <point x="183" y="131" type="line"/>
      <point x="590" y="131" type="line"/>
      <point x="510" y="191" type="line"/>
      <point x="592" y="0" type="line"/>
    </contour>
    <contour>
      <point x="490" y="238" type="line"/>
      <point x="520" y="295" type="line"/>
      <point x="253" y="295" type="line"/>
      <point x="283" y="238" type="line"/>
      <point x="405" y="530" type="line"/>
      <point x="368" y="530" type="line"/>
    </contour>
    <contour>
      <point x="387" y="0" type="move" name="bottom"/>
    </contour>
    <contour>
      <point x="722" y="0" type="move" name="ogonek"/>
    </contour>
    <contour>
      <point x="386" y="705" type="move" name="top"/>
    </contour>
  </outline>
</glyph>
<glyph name="B" format="1">
  <advance width="710"/>
  <unicode hex="0042"/>
  <outline>
    <contour>
      <point x="529" y="358" type="line"/>
      <point x="608" y="379"/>
      <point x="657" y="441"/>
      <point x="657" y="523" type="curve" smooth="yes"/>
      <point x="657" y="633"/>
      <point x="569" y="705"/>
      <point x="415" y="705" type="curve" smooth="yes"/>
      <point x="57" y="705" type="line"/>
      <point x="57" y="0" type="line"/>
      <point x="424" y="0" type="line" smooth="yes"/>
      <point x="579" y="0"/>
      <point x="676" y="79"/>
      <point x="676" y="202" type="curve" smooth="yes"/>
      <point x="676" y="294"/>
      <point x="624" y="355"/>
      <point x="529" y="375" type="curve"/>
    </contour>
    <contour>
      <point x="375" y="549" type="line" smooth="yes"/>
      <point x="431" y="549"/>
      <point x="453" y="533"/>
      <point x="453" y="493" type="curve" smooth="yes"/>
      <point x="453" y="453"/>
      <point x="431" y="436"/>
      <point x="375" y="436" type="curve" smooth="yes"/>
      <point x="262" y="436" type="line"/>
      <point x="262" y="549" type="line"/>
    </contour>
    <contour>
      <point x="394" y="156" type="curve" smooth="yes"/>
      <point x="262" y="156" type="line"/>
      <point x="262" y="280" type="line"/>
      <point x="394" y="280" type="line" smooth="yes"/>
      <point x="450" y="280"/>
      <point x="473" y="259"/>
      <point x="473" y="218" type="curve" smooth="yes"/>
      <point x="473" y="177"/>
      <point x="450" y="156"/>
    </contour>
    <contour>
      <point x="353" y="0" type="move" name="bottom"/>
    </contour>
    <contour>
      <point x="353" y="705" type="move" name="top"/>
    </contour>
  </outline>
</glyph>
<glyph name="C" format="1">
  <advance width="692"/>
  <unicode hex="0043"/>
  <outline>
    <contour>
      <point x="429" y="-12" type="curve" smooth="yes"/>
      <point x="521" y="-12"/>
      <point x="617" y="19"/>
      <point x="669" y="63" type="curve"/>
      <point x="607" y="232" type="line"/>
      <point x="549" y="193"/>
      <point x="493" y="175"/>
      <point x="437" y="175" type="curve" smooth="yes"/>
      <point x="323" y="175"/>
      <point x="268" y="237"/>
      <point x="268" y="353" type="curve" smooth="yes"/>
      <point x="268" y="468"/>
      <point x="323" y="530"/>
      <point x="437" y="530" type="curve" smooth="yes"/>
      <point x="493" y="530"/>
      <point x="549" y="512"/>
      <point x="607" y="473" type="curve"/>
      <point x="669" y="642" type="line"/>
      <point x="617" y="686"/>
      <point x="521" y="717"/>
      <point x="429" y="717" type="curve" smooth="yes"/>
      <point x="187" y="717"/>
      <point x="41" y="572"/>
      <point x="41" y="353" type="curve" smooth="yes"/>
      <point x="41" y="133"/>
      <point x="187" y="-12"/>
    </contour>
    <contour>
      <point x="402" y="0" type="move" name="bottom"/>
    </contour>
    <contour>
      <point x="401" y="705" type="move" name="top"/>
    </contour>
  </outline>
</glyph>
<glyph name="D" format="1">
  <advance width="800"/>
  <unicode hex="0044"/>
  <outline>
    <contour>
      <point x="57" y="0" type="line"/>
      <point x="365" y="0" type="line" smooth="yes"/>
      <point x="615" y="0"/>
      <point x="759" y="130"/>
      <point x="759" y="353" type="curve" smooth="yes"/>
      <point x="759" y="575"/>
      <point x="615" y="705"/>
      <point x="365" y="705" type="curve" smooth="yes"/>
      <point x="57" y="705" type="line"/>
    </contour>
    <contour>
      <point x="272" y="174" type="line"/>
      <point x="272" y="531" type="line"/>
      <point x="352" y="531" type="line" smooth="yes"/>
      <point x="476" y="531"/>
      <point x="536" y="475"/>
      <point x="536" y="353" type="curve" smooth="yes"/>
      <point x="536" y="231"/>
      <point x="477" y="174"/>
      <point x="352" y="174" type="curve" smooth="yes"/>
    </contour>
    <contour>
      <point x="395" y="0" type="move" name="bottom"/>
    </contour>
    <contour>
      <point x="214" y="358" type="move" name="center"/>
    </contour>
    <contour>
      <point x="395" y="705" type="move" name="top"/>
    </contour>
  </outline>
</glyph>
<glyph name="E" format="1">
  <advance width="624"/>
  <unicode hex="0045"/>
  <outline>
    <contour>
      <point x="571" y="541" type="line"/>
      <point x="571" y="705" type="line"/>
      <point x="57" y="705" type="line"/>
      <point x="57" y="0" type="line"/>
      <point x="571" y="0" type="line"/>
      <point x="571" y="164" type="line"/>
      <point x="262" y="164" type="line"/>
      <point x="262" y="276" type="line"/>
      <point x="548" y="276" type="line"/>
      <point x="548" y="440" type="line"/>
      <point x="262" y="440" type="line"/>
      <point x="262" y="541" type="line"/>
    </contour>
    <contour>
      <point x="336" y="0" type="move" name="bottom"/>
    </contour>
    <contour>
      <point x="541" y="0" type="move" name="ogonek"/>
    </contour>
    <contour>
      <point x="336" y="705" type="move" name="top"/>
    </contour>
    <contour>
      <point x="18" y="705" type="move" name="topleft"/>
    </contour>
  </outline>
</glyph>
<glyph name="F" format="1">
  <advance width="588"/>
  <unicode hex="0046"/>
  <outline>
    <contour>
      <point x="566" y="541" type="line"/>
      <point x="566" y="705" type="line"/>
      <point x="57" y="705" type="line"/>
      <point x="57" y="0" type="line"/>
      <point x="272" y="0" type="line"/>
      <point x="272" y="267" type="line"/>
      <point x="543" y="267" type="line"/>
      <point x="543" y="431" type="line"/>
      <point x="272" y="431" type="line"/>
      <point x="272" y="541" type="line"/>
    </contour>
    <contour>
      <point x="306" y="0" type="move" name="bottom"/>
    </contour>
    <contour>
      <point x="312" y="705" type="move" name="top"/>
    </contour>
  </outline>
</glyph>
<glyph name="G" format="1">
  <advance width="754"/>
  <unicode hex="0047"/>
  <outline>
    <contour>
      <point x="429" y="-12" type="curve" smooth="yes"/>
      <point x="525" y="-12"/>
      <point x="621" y="7"/>
      <point x="701" y="44" type="curve"/>
      <point x="701" y="406" type="line"/>
      <point x="397" y="406" type="line"/>
      <point x="397" y="258" type="line"/>
      <point x="527" y="258" type="line"/>
      <point x="527" y="110" type="line"/>
      <point x="565" y="187" type="line"/>
      <point x="519" y="174"/>
      <point x="475" y="167"/>
      <point x="442" y="167" type="curve" smooth="yes"/>
      <point x="326" y="167"/>
      <point x="264" y="228"/>
      <point x="264" y="348" type="curve" smooth="yes"/>
      <point x="264" y="470"/>
      <point x="323" y="534"/>
      <point x="450" y="534" type="curve" smooth="yes"/>
      <point x="516" y="534"/>
      <point x="575" y="519"/>
      <point x="636" y="484" type="curve"/>
      <point x="699" y="649" type="line"/>
      <point x="645" y="689"/>
      <point x="546" y="717"/>
      <point x="448" y="717" type="curve" smooth="yes"/>
      <point x="192" y="717"/>
      <point x="41" y="572"/>
      <point x="41" y="348" type="curve" smooth="yes"/>
      <point x="41" y="136"/>
      <point x="181" y="-12"/>
    </contour>
    <contour>
      <point x="426" y="0" type="move" name="bottom"/>
    </contour>
    <contour>
      <point x="419" y="705" type="move" name="top"/>
    </contour>
  </outline>
</glyph>
<glyph name="H" format="1">
  <advance width="794"/>
  <unicode hex="0048"/>
  <outline>
    <contour>
      <point x="522" y="705" type="line"/>
      <point x="522" y="445" type="line"/>
      <point x="272" y="445" type="line"/>
      <point x="272" y="705" type="line"/>
      <point x="57" y="705" type="line"/>
      <point x="57" y="0" type="line"/>
      <point x="272" y="0" type="line"/>
      <point x="272" y="269" type="line"/>
      <point x="522" y="269" type="line"/>
      <point x="522" y="0" type="line"/>
      <point x="737" y="0" type="line"/>
      <point x="737" y="705" type="line"/>
    </contour>
    <contour>
      <point x="397" y="0" type="move" name="bottom"/>
    </contour>
    <contour>
      <point x="397" y="575" type="move" name="center"/>
    </contour>
    <contour>
      <point x="397" y="705" type="move" name="top"/>
    </contour>
    <contour>
      <point x="18" y="705" type="move" name="topleft"/>
    </contour>
  </outline>
</glyph>
<glyph name="I" format="1">
  <advance width="329"/>
  <unicode hex="0049"/>
  <outline>
    <contour>
      <point x="57" y="0" type="line"/>
      <point x="272" y="0" type="line"/>
      <point x="272" y="705" type="line"/>
      <point x="57" y="705" type="line"/>
    </contour>
    <contour>
      <point x="164" y="0" type="move" name="bottom"/>
    </contour>
    <contour>
      <point x="215" y="0" type="move" name="ogonek"/>
    </contour>
    <contour>
      <point x="164" y="705" type="move" name="top"/>
    </contour>
    <contour>
      <point x="18" y="705" type="move" name="topleft"/>
    </contour>
  </outline>
</glyph>
<glyph name="J" format="1">
  <advance width="411"/>
  <unicode hex="004A"/>
  <outline>
    <contour>
      <point x="4" y="-12" type="line"/>
      <point x="117" y="-7" type="line" smooth="yes"/>
      <point x="277" y="2"/>
      <point x="354" y="76"/>
      <point x="354" y="221" type="curve" smooth="yes"/>
      <point x="354" y="705" type="line"/>
      <point x="139" y="705" type="line"/>
      <point x="139" y="217" type="line" smooth="yes"/>
      <point x="139" y="177"/>
      <point x="123" y="166"/>
      <point x="80" y="164" type="curve" smooth="yes"/>
      <point x="-9" y="159" type="line"/>
    </contour>
    <contour>
      <point x="246" y="0" type="move" name="bottom"/>
    </contour>
    <contour>
      <point x="246" y="705" type="move" name="top"/>
    </contour>
  </outline>
</glyph>
<glyph name="K" format="1">
  <advance width="739"/>
  <unicode hex="004B"/>
  <outline>
    <contour>
      <point x="788" y="0" type="line"/>
      <point x="446" y="416" type="line"/>
      <point x="446" y="331" type="line"/>
      <point x="780" y="705" type="line"/>
      <point x="527" y="705" type="line"/>
      <point x="274" y="408" type="line"/>
      <point x="272" y="408" type="line"/>
      <point x="272" y="705" type="line"/>
      <point x="57" y="705" type="line"/>
      <point x="57" y="0" type="line"/>
      <point x="272" y="0" type="line"/>
      <point x="272" y="314" type="line"/>
      <point x="274" y="314" type="line"/>
      <point x="534" y="0" type="line"/>
    </contour>
    <contour>
      <point x="362" y="0" type="move" name="bottom"/>
    </contour>
    <contour>
      <point x="362" y="705" type="move" name="top"/>
    </contour>
    <contour>
      <point x="18" y="705" type="move" name="topleft"/>
    </contour>
  </outline>
</glyph>
<glyph name="L" format="1">
  <advance width="598"/>
  <unicode hex="004C"/>
  <outline>
    <contour>
      <point x="57" y="0" type="line"/>
      <point x="572" y="0" type="line"/>
      <point x="572" y="178" type="line"/>
      <point x="272" y="178" type="line"/>
      <point x="272" y="705" type="line"/>
      <point x="57" y="705" type="line"/>
    </contour>
    <contour>
      <point x="315" y="0" type="move" name="bottom"/>
    </contour>
    <contour>
      <point x="212" y="387" type="move" name="center"/>
    </contour>
    <contour>
      <point x="465" y="402" type="move" name="dot"/>
    </contour>
    <contour>
      <point x="164" y="705" type="move" name="top"/>
    </contour>
    <contour>
      <point x="362" y="705" type="move" name="topright"/>
    </contour>
  </outline>
</glyph>
<glyph name="M" format="1">
  <advance width="893"/>
  <unicode hex="004D"/>
  <outline>
    <contour>
      <point x="59" y="0" type="line"/>
      <point x="253" y="0" type="line"/>
      <point x="253" y="365" type="line"/>
      <point x="230" y="365" type="line"/>
      <point x="388" y="103" type="line"/>
      <point x="502" y="103" type="line"/>
      <point x="660" y="365" type="line"/>
      <point x="640" y="365" type="line"/>
      <point x="640" y="0" type="line"/>
      <point x="834" y="0" type="line"/>
      <point x="834" y="705" type="line"/>
      <point x="660" y="705" type="line"/>
      <point x="431" y="301" type="line"/>
      <point x="467" y="301" type="line"/>
      <point x="238" y="705" type="line"/>
      <point x="59" y="705" type="line"/>
    </contour>
    <contour>
      <point x="447" y="0" type="move" name="bottom"/>
    </contour>
    <contour>
      <point x="447" y="705" type="move" name="top"/>
    </contour>
  </outline>
</glyph>
<glyph name="N" format="1">
  <advance width="763"/>
  <unicode hex="004E"/>
  <outline>
    <contour>
      <point x="57" y="0" type="line"/>
      <point x="257" y="0" type="line"/>
      <point x="257" y="390" type="line"/>
      <point x="227" y="390" type="line"/>
      <point x="549" y="0" type="line"/>
      <point x="706" y="0" type="line"/>
      <point x="706" y="705" type="line"/>
      <point x="506" y="705" type="line"/>
      <point x="506" y="315" type="line"/>
      <point x="536" y="315" type="line"/>
      <point x="214" y="705" type="line"/>
      <point x="57" y="705" type="line"/>
    </contour>
    <contour>
      <point x="382" y="0" type="move" name="bottom"/>
    </contour>
    <contour>
      <point x="381" y="705" type="move" name="top"/>
    </contour>
  </outline>
</glyph>
<glyph name="O" format="1">
  <advance width="820"/>
  <unicode hex="004F"/>
  <outline>
    <contour>
      <point x="410" y="-12" type="curve" smooth="yes"/>
      <point x="629" y="-12"/>
      <point x="779" y="135"/>
      <point x="779" y="353" type="curve" smooth="yes"/>
      <point x="779" y="571"/>
      <point x="629" y="717"/>
      <point x="410" y="717" type="curve" smooth="yes"/>
      <point x="191" y="717"/>
      <point x="41" y="571"/>
      <point x="41" y="353" type="curve" smooth="yes"/>
      <point x="41" y="136"/>
      <point x="191" y="-12"/>
    </contour>
    <contour>
      <point x="410" y="167" type="curve" smooth="yes"/>
      <point x="319" y="167"/>
      <point x="264" y="236"/>
      <point x="264" y="353" type="curve" smooth="yes"/>
      <point x="264" y="470"/>
      <point x="319" y="538"/>
      <point x="410" y="538" type="curve" smooth="yes"/>
      <point x="501" y="538"/>
      <point x="556" y="469"/>
      <point x="556" y="353" type="curve" smooth="yes"/>
      <point x="556" y="237"/>
      <point x="501" y="167"/>
    </contour>
    <contour>
      <point x="409" y="-12" type="move" name="Qtail"/>
    </contour>
    <contour>
      <point x="409" y="0" type="move" name="bottom"/>
    </contour>
    <contour>
      <point x="409" y="353" type="move" name="center"/>
    </contour>
    <contour>
      <point x="473" y="0" type="move" name="ogonek"/>
    </contour>
    <contour>
      <point x="408" y="705" type="move" name="top"/>
    </contour>
    <contour>
      <point x="26" y="705" type="move" name="topleft"/>
    </contour>
    <contour>
      <point x="473" y="705" type="move" name="topright"/>
    </contour>
  </outline>
</glyph>
<glyph name="P" format="1">
  <advance width="689"/>
  <unicode hex="0050"/>
  <outline>
    <contour>
      <point x="415" y="705" type="curve" smooth="yes"/>
      <point x="57" y="705" type="line"/>
      <point x="57" y="0" type="line"/>
      <point x="272" y="0" type="line"/>
      <point x="272" y="231" type="line"/>
      <point x="415" y="231" type="line" smooth="yes"/>
      <point x="577" y="231"/>
      <point x="670" y="321"/>
      <point x="670" y="468" type="curve" smooth="yes"/>
      <point x="670" y="615"/>
      <point x="577" y="705"/>
    </contour>
    <contour>
      <point x="375" y="395" type="curve" smooth="yes"/>
      <point x="272" y="395" type="line"/>
      <point x="272" y="541" type="line"/>
      <point x="375" y="541" type="line" smooth="yes"/>
      <point x="433" y="541"/>
      <point x="466" y="518"/>
      <point x="466" y="468" type="curve" smooth="yes"/>
      <point x="466" y="418"/>
      <point x="433" y="395"/>
    </contour>
    <contour>
      <point x="348" y="0" type="move" name="bottom"/>
    </contour>
    <contour>
      <point x="347" y="705" type="move" name="top"/>
    </contour>
  </outline>
</glyph>
<glyph name="R" format="1">
  <advance width="718"/>
  <unicode hex="0052"/>
  <outline>
    <contour>
      <point x="57" y="0" type="line"/>
      <point x="272" y="0" type="line"/>
      <point x="272" y="252" type="line"/>
      <point x="305" y="252" type="line" smooth="yes"/>
      <point x="326" y="252"/>
      <point x="348" y="243"/>
      <point x="359" y="224" type="curve" smooth="yes"/>
      <point x="482" y="0" type="line"/>
      <point x="718" y="0" type="line"/>
      <point x="613" y="191" type="line" smooth="yes"/>
      <point x="583" y="245"/>
      <point x="537" y="273"/>
      <point x="479" y="273" type="curve" smooth="yes"/>
      <point x="422" y="273" type="line"/>
      <point x="415" y="254" type="line"/>
      <point x="578" y="254"/>
      <point x="670" y="340"/>
      <point x="670" y="479" type="curve" smooth="yes"/>
      <point x="670" y="619"/>
      <point x="577" y="705"/>
      <point x="415" y="705" type="curve" smooth="yes"/>
      <point x="57" y="705" type="line"/>
    </contour>
    <contour>
      <point x="272" y="402" type="line"/>
      <point x="272" y="541" type="line"/>
      <point x="375" y="541" type="line" smooth="yes"/>
      <point x="433" y="541"/>
      <point x="466" y="519"/>
      <point x="466" y="472" type="curve" smooth="yes"/>
      <point x="466" y="424"/>
      <point x="433" y="402"/>
      <point x="375" y="402" type="curve" smooth="yes"/>
    </contour>
    <contour>
      <point x="363" y="0" type="move" name="bottom"/>
    </contour>
    <contour>
      <point x="362" y="705" type="move" name="top"/>
    </contour>
  </outline>
</glyph>
<glyph name="U" format="1">
  <advance width="754"/>
  <unicode hex="0055"/>
  <outline>
    <contour>
      <point x="379" y="-12" type="curve" smooth="yes"/>
      <point x="591" y="-12"/>
      <point x="702" y="93"/>
      <point x="702" y="307" type="curve" smooth="yes"/>
      <point x="702" y="705" type="line"/>
      <point x="491" y="705" type="line"/>
      <point x="491" y="303" type="line" smooth="yes"/>
      <point x="491" y="213"/>
      <point x="451" y="167"/>
      <point x="379" y="167" type="curve" smooth="yes"/>
      <point x="307" y="167"/>
      <point x="267" y="213"/>
      <point x="267" y="303" type="curve" smooth="yes"/>
      <point x="267" y="705" type="line"/>
      <point x="52" y="705" type="line"/>
      <point x="52" y="307" type="line" smooth="yes"/>
      <point x="52" y="93"/>
      <point x="167" y="-12"/>
    </contour>
    <contour>
      <point x="379" y="0" type="move" name="bottom"/>
    </contour>
    <contour>
      <point x="437" y="0" type="move" name="ogonek"/>
    </contour>
    <contour>
      <point x="379" y="705" type="move" name="top"/>
    </contour>
    <contour>
      <point x="557" y="705" type="move" name="topright"/>
    </contour>
  </outline>
</glyph>
<glyph name="W" format="1">
  <advance width="1136"/>
  <unicode hex="0057"/>
  <outline>
    <contour>
      <point x="260" y="0" type="line"/>
      <point x="431" y="0" type="line"/>
      <point x="583" y="412" type="line"/>
      <point x="557" y="412" type="line"/>
      <point x="705" y="0" type="line"/>
      <point x="875" y="0" type="line"/>
      <point x="1132" y="705" type="line"/>
      <point x="926" y="705" type="line"/>
      <point x="766" y="234" type="line"/>
      <point x="808" y="234" type="line"/>
      <point x="651" y="705" type="line"/>
      <point x="500" y="705" type="line"/>
      <point x="330" y="234" type="line"/>
      <point x="380" y="234" type="line"/>
      <point x="225" y="705" type="line"/>
      <point x="5" y="705" type="line"/>
    </contour>
    <contour>
      <point x="568" y="0" type="move" name="bottom"/>
    </contour>
    <contour>
      <point x="569" y="705" type="move" name="top"/>
    </contour>
  </outline>
</glyph>
<glyph name="X" format="1">
  <advance width="713"/>
  <unicode hex="0058"/>
  <outline>
    <contour>
      <point x="441" y="305" type="line"/>
      <point x="746" y="705" type="line"/>
      <point x="496" y="705" type="line"/>
      <point x="321" y="461" type="line"/>
      <point x="391" y="461" type="line"/>
      <point x="217" y="705" type="line"/>
      <point x="-32" y="705" type="line"/>
      <point x="272" y="305" type="line"/>
      <point x="272" y="404" type="line"/>
      <point x="-36" y="0" type="line"/>
      <point x="214" y="0" type="line"/>
      <point x="390" y="245" type="line"/>
      <point x="323" y="245" type="line"/>
      <point x="499" y="0" type="line"/>
      <point x="749" y="0" type="line"/>
      <point x="441" y="404" type="line"/>
    </contour>
    <contour>
      <point x="358" y="0" type="move" name="bottom"/>
    </contour>
    <contour>
      <point x="356" y="705" type="move" name="top"/>
    </contour>
  </outline>
</glyph>
<glyph name="Y" format="1">
  <advance width="660"/>
  <unicode hex="0059"/>
  <outline>
    <contour>
      <point x="222" y="0" type="line"/>
      <point x="437" y="0" type="line"/>
      <point x="437" y="359" type="line"/>
      <point x="394" y="243" type="line"/>
      <point x="708" y="705" type="line"/>
      <point x="468" y="705" type="line"/>
      <point x="312" y="467" type="line"/>
      <point x="353" y="467" type="line"/>
      <point x="197" y="705" type="line"/>
      <point x="-50" y="705" type="line"/>
      <point x="265" y="243" type="line"/>
      <point x="222" y="359" type="line"/>
    </contour>
    <contour>
      <point x="331" y="0" type="move" name="bottom"/>
    </contour>
    <contour>
      <point x="329" y="705" type="move" name="top"/>
    </contour>
    <contour>
      <point x="16" y="705" type="move" name="topleft"/>
    </contour>
  </outline>
</glyph>
<glyph name="Z" format="1">
  <advance width="636"/>
  <unicode hex="005A"/>
  <outline>
    <contour>
      <point x="44" y="0" type="line"/>
      <point x="616" y="0" type="line"/>
      <point x="616" y="176" type="line"/>
      <point x="245" y="176" type="line"/>
      <point x="245" y="117" type="line"/>
      <point x="600" y="547" type="line"/>
      <point x="600" y="705" type="line"/>
      <point x="44" y="705" type="line"/>
      <point x="44" y="529" type="line"/>
      <point x="399" y="529" type="line"/>
      <point x="399" y="588" type="line"/>
      <point x="44" y="158" type="line"/>
    </contour>
    <contour>
      <point x="326" y="0" type="move" name="bottom"/>
    </contour>
    <contour>
      <point x="326" y="705" type="move" name="top"/>
    </contour>
  </outline>
</glyph>
<glyph name="bracketleft" format="1">
  <advance width="427"/>
  <unicode hex="005B"/>
  <outline>
    <contour>
      <point x="100" y="-180" type="line"/>
      <point x="407" y="-180" type="line"/>
      <point x="407" y="-28" type="line"/>
      <point x="308" y="-28" type="line"/>
      <point x="308" y="553" type="line"/>
      <point x="407" y="553" type="line"/>
      <point x="407" y="705" type="line"/>
      <point x="100" y="705" type="line"/>
    </contour>
  </outline>
</glyph>
<glyph name="a" format="1">
  <advance width="580"/>
  <unicode hex="0061"/>
  <outline>
    <contour>
      <point x="221" y="-12" type="curve" smooth="yes"/>
      <point x="293" y="-12"/>
      <point x="341" y="27"/>
      <point x="350" y="87" type="curve"/>
      <point x="345" y="87" type="line"/>
      <point x="345" y="0" type="line"/>
      <point x="538" y="0" type="line"/>
      <point x="538" y="276" type="line" smooth="yes"/>
      <point x="538" y="434"/>
      <point x="454" y="506"/>
      <point x="279" y="506" type="curve" smooth="yes"/>
      <point x="201" y="506"/>
      <point x="93" y="479"/>
      <point x="42" y="444" type="curve"/>
      <point x="93" y="305" type="line"/>
      <point x="152" y="337"/>
      <point x="217" y="352"/>
      <point x="269" y="352" type="curve" smooth="yes"/>
      <point x="318" y="352"/>
      <point x="342" y="340"/>
      <point x="342" y="302" type="curve" smooth="yes"/>
      <point x="342" y="194" type="line" smooth="yes"/>
      <point x="342" y="152"/>
      <point x="309" y="125"/>
      <point x="270" y="125" type="curve" smooth="yes"/>
      <point x="235" y="125"/>
      <point x="219" y="142"/>
      <point x="219" y="162" type="curve" smooth="yes"/>
      <point x="219" y="189"/>
      <point x="250" y="201"/>
      <point x="302" y="201" type="curve" smooth="yes"/>
      <point x="361" y="201" type="line"/>
      <point x="361" y="301" type="line"/>
      <point x="303" y="301" type="line" smooth="yes"/>
      <point x="101" y="301"/>
      <point x="22" y="261"/>
      <point x="22" y="154" type="curve" smooth="yes"/>
      <point x="22" y="58"/>
      <point x="102" y="-12"/>
    </contour>
    <contour>
      <point x="288" y="0" type="move" name="bottom"/>
    </contour>
    <contour>
      <point x="508" y="0" type="move" name="ogonek"/>
    </contour>
    <contour>
      <point x="293" y="484" type="move" name="top"/>
    </contour>
  </outline>
</glyph>
<glyph name="b" format="1">
  <advance width="632"/>
  <unicode hex="0062"/>
  <outline>
    <contour>
      <point x="393" y="-12" type="curve" smooth="yes"/>
      <point x="518" y="-12"/>
      <point x="608" y="86"/>
      <point x="608" y="247" type="curve" smooth="yes"/>
      <point x="608" y="408"/>
      <point x="519" y="506"/>
      <point x="393" y="506" type="curve" smooth="yes"/>
      <point x="324" y="506"/>
      <point x="260" y="470"/>
      <point x="240" y="421" type="curve"/>
      <point x="252" y="421" type="line"/>
      <point x="252" y="705" type="line"/>
      <point x="44" y="705" type="line"/>
      <point x="44" y="0" type="line"/>
      <point x="249" y="0" type="line"/>
      <point x="249" y="81" type="line"/>
      <point x="238" y="81" type="line"/>
      <point x="256" y="26"/>
      <point x="321" y="-12"/>
    </contour>
    <contour>
      <point x="324" y="140" type="curve" smooth="yes"/>
      <point x="281" y="140"/>
      <point x="249" y="168"/>
      <point x="249" y="247" type="curve" smooth="yes"/>
      <point x="249" y="326"/>
      <point x="281" y="354"/>
      <point x="324" y="354" type="curve" smooth="yes"/>
      <point x="367" y="354"/>
      <point x="399" y="326"/>
      <point x="399" y="247" type="curve" smooth="yes"/>
      <point x="399" y="168"/>
      <point x="367" y="140"/>
    </contour>
    <contour>
      <point x="303" y="0" type="move" name="bottom"/>
    </contour>
    <contour>
      <point x="326" y="705" type="move" name="top"/>
    </contour>
  </outline>
</glyph>
<glyph name="d" format="1">
  <advance width="632"/>
  <unicode hex="0064"/>
  <outline>
    <contour>
      <point x="239" y="-12" type="curve" smooth="yes"/>
      <point x="311" y="-12"/>
      <point x="376" y="26"/>
      <point x="394" y="81" type="curve"/>
      <point x="383" y="81" type="line"/>
      <point x="383" y="0" type="line"/>
      <point x="588" y="0" type="line"/>
      <point x="588" y="705" type="line"/>
      <point x="380" y="705" type="line"/>
      <point x="380" y="421" type="line"/>
      <point x="392" y="421" type="line"/>
      <point x="372" y="470"/>
      <point x="308" y="506"/>
      <point x="239" y="506" type="curve" smooth="yes"/>
      <point x="113" y="506"/>
      <point x="24" y="408"/>
      <point x="24" y="247" type="curve" smooth="yes"/>
      <point x="24" y="86"/>
      <point x="114" y="-12"/>
    </contour>
    <contour>
      <point x="308" y="140" type="curve" smooth="yes"/>
      <point x="265" y="140"/>
      <point x="233" y="168"/>
      <point x="233" y="247" type="curve" smooth="yes"/>
      <point x="233" y="326"/>
      <point x="265" y="354"/>
      <point x="308" y="354" type="curve" smooth="yes"/>
      <point x="351" y="354"/>
      <point x="383" y="326"/>
      <point x="383" y="247" type="curve" smooth="yes"/>
      <point x="383" y="168"/>
      <point x="351" y="140"/>
    </contour>
    <contour>
      <point x="318" y="0" type="move" name="bottom"/>
    </contour>
    <contour>
      <point x="305" y="247" type="move" name="center"/>
    </contour>
    <contour>
      <point x="434" y="595" type="move" name="stroke"/>
    </contour>
    <contour>
      <point x="318" y="484" type="move" name="top"/>
    </contour>
    <contour>
      <point x="618" y="705" type="move" name="topright"/>
    </contour>
  </outline>
</glyph>
<glyph name="e" format="1">
  <advance width="563"/>
  <unicode hex="0065"/>
  <outline>
    <contour>
      <point x="328" y="-12" type="curve" smooth="yes"/>
      <point x="401" y="-12"/>
      <point x="481" y="10"/>
      <point x="535" y="45" type="curve"/>
      <point x="485" y="181" type="line"/>
      <point x="444" y="155"/>
      <point x="385" y="140"/>
      <point x="334" y="140" type="curve" smooth="yes"/>
      <point x="253" y="140"/>
      <point x="220" y="168"/>
      <point x="220" y="256" type="curve" smooth="yes"/>
      <point x="220" y="265" type="line" smooth="yes"/>
      <point x="220" y="338"/>
      <point x="250" y="370"/>
      <point x="299" y="370" type="curve" smooth="yes"/>
      <point x="344" y="370"/>
      <point x="366" y="342"/>
      <point x="369" y="286" type="curve"/>
      <point x="388" y="300" type="line"/>
      <point x="200" y="300" type="line"/>
      <point x="200" y="199" type="line"/>
      <point x="543" y="199" type="line"/>
      <point x="543" y="246" type="line" smooth="yes"/>
      <point x="543" y="404"/>
      <point x="444" y="506"/>
      <point x="291" y="506" type="curve" smooth="yes"/>
      <point x="137" y="506"/>
      <point x="24" y="399"/>
      <point x="24" y="248" type="curve" smooth="yes"/>
      <point x="24" y="90"/>
      <point x="139" y="-12"/>
    </contour>
    <contour>
      <point x="293" y="0" type="move" name="bottom"/>
    </contour>
    <contour>
      <point x="401" y="0" type="move" name="ogonek"/>
    </contour>
    <contour>
      <point x="293" y="484" type="move" name="top"/>
    </contour>
  </outline>
</glyph>
<glyph name="f" format="1">
  <advance width="423"/>
  <unicode hex="0066"/>
  <outline>
    <contour>
      <point x="299" y="505" type="line" smooth="yes"/>
      <point x="299" y="543"/>
      <point x="320" y="557"/>
      <point x="395" y="562" type="curve" smooth="yes"/>
      <point x="442" y="565" type="line"/>
      <point x="431" y="712" type="line"/>
      <point x="364" y="708" type="line" smooth="yes"/>
      <point x="176" y="698"/>
      <point x="91" y="622"/>
      <point x="91" y="464" type="curve" smooth="yes"/>
      <point x="91" y="439" type="line"/>
      <point x="152" y="494" type="line"/>
      <point x="0" y="494" type="line"/>
      <point x="0" y="342" type="line"/>
      <point x="91" y="342" type="line"/>
      <point x="91" y="0" type="line"/>
      <point x="299" y="0" type="line"/>
      <point x="299" y="342" type="line"/>
      <point x="418" y="342" type="line"/>
      <point x="418" y="494" type="line"/>
      <point x="299" y="494" type="line"/>
    </contour>
    <contour>
      <point x="195" y="0" type="move" name="bottom"/>
    </contour>
    <contour>
      <point x="195" y="705" type="move" name="top"/>
    </contour>
  </outline>
</glyph>
<glyph name="g" format="1">
  <advance width="638"/>
  <unicode hex="0067"/>
  <outline>
    <contour>
      <point x="297" y="-192" type="curve" smooth="yes"/>
      <point x="488" y="-192"/>
      <point x="594" y="-103"/>
      <point x="594" y="75" type="curve" smooth="yes"/>
      <point x="594" y="494" type="line"/>
      <point x="389" y="494" type="line"/>
      <point x="389" y="421" type="line"/>
      <point x="398" y="421" type="line"/>
      <point x="378" y="470"/>
      <point x="314" y="506"/>
      <point x="243" y="506" type="curve" smooth="yes"/>
      <point x="113" y="506"/>
      <point x="24" y="408"/>
      <point x="24" y="259" type="curve" smooth="yes"/>
      <point x="24" y="110"/>
      <point x="113" y="13"/>
      <point x="243" y="13" type="curve" smooth="yes"/>
      <point x="311" y="13"/>
      <point x="378" y="49"/>
      <point x="400" y="99" type="curve"/>
      <point x="392" y="99" type="line"/>
      <point x="392" y="52" type="line" smooth="yes"/>
      <point x="392" y="-13"/>
      <point x="354" y="-40"/>
      <point x="276" y="-40" type="curve" smooth="yes"/>
      <point x="224" y="-40"/>
      <point x="139" y="-22"/>
      <point x="90" y="6" type="curve"/>
      <point x="39" y="-134" type="line"/>
      <point x="102" y="-175"/>
      <point x="195" y="-192"/>
    </contour>
    <contour>
      <point x="311" y="165" type="curve" smooth="yes"/>
      <point x="264" y="165"/>
      <point x="233" y="198"/>
      <point x="233" y="259" type="curve" smooth="yes"/>
      <point x="233" y="320"/>
      <point x="264" y="354"/>
      <point x="311" y="354" type="curve" smooth="yes"/>
      <point x="358" y="354"/>
      <point x="389" y="320"/>
      <point x="389" y="259" type="curve" smooth="yes"/>
      <point x="389" y="198"/>
      <point x="358" y="165"/>
    </contour>
    <contour>
      <point x="317" y="484" type="move" name="top"/>
    </contour>
  </outline>
</glyph>
<glyph name="k" format="1">
  <advance width="605"/>
  <unicode hex="006B"/>
  <outline>
    <contour>
      <point x="641" y="0" type="line"/>
      <point x="434" y="295" type="line"/>
      <point x="434" y="227" type="line"/>
      <point x="639" y="494" type="line"/>
      <point x="397" y="494" type="line"/>
      <point x="254" y="302" type="line"/>
      <point x="252" y="302" type="line"/>
      <point x="252" y="705" type="line"/>
      <point x="44" y="705" type="line"/>
      <point x="44" y="0" type="line"/>
      <point x="252" y="0" type="line"/>
      <point x="252" y="198" type="line"/>
      <point x="254" y="198" type="line"/>
      <point x="394" y="0" type="line"/>
    </contour>
    <contour>
      <point x="302" y="0" type="move" name="bottom"/>
    </contour>
    <contour>
      <point x="302" y="705" type="move" name="top"/>
    </contour>
  </outline>
</glyph>
<glyph name="l" format="1">
  <advance width="364"/>
  <unicode hex="006C"/>
  <outline>
    <contour>
      <point x="253" y="-12" type="curve" smooth="yes"/>
      <point x="288" y="-12"/>
      <point x="319" y="-8"/>
      <point x="348" y="1" type="curve"/>
      <point x="349" y="158" type="line"/>
      <point x="337" y="155"/>
      <point x="323" y="154"/>
      <point x="310" y="154" type="curve" smooth="yes"/>
      <point x="270" y="154"/>
      <point x="252" y="176"/>
      <point x="252" y="212" type="curve" smooth="yes"/>
      <point x="252" y="705" type="line"/>
      <point x="44" y="705" type="line"/>
      <point x="44" y="207" type="line" smooth="yes"/>
      <point x="44" y="59"/>
      <point x="104" y="-12"/>
    </contour>
    <contour>
      <point x="203" y="0" type="move" name="bottom"/>
    </contour>
    <contour>
      <point x="148" y="357" type="move" name="center"/>
    </contour>
    <contour>
      <point x="400" y="350" type="move" name="dot"/>
    </contour>
    <contour>
      <point x="148" y="705" type="move" name="top"/>
    </contour>
    <contour>
      <point x="282" y="705" type="move" name="topright"/>
    </contour>
  </outline>
</glyph>
<glyph name="m" format="1">
  <advance width="916"/>
  <unicode hex="006D"/>
  <outline>
    <contour>
      <point x="702" y="506" type="curve" smooth="yes"/>
      <point x="629" y="506"/>
      <point x="564" y="468"/>
      <point x="531" y="405" type="curve"/>
      <point x="545" y="405" type="line"/>
      <point x="520" y="473"/>
      <point x="466" y="506"/>
      <point x="398" y="506" type="curve" smooth="yes"/>
      <point x="323" y="506"/>
      <point x="266" y="468"/>
      <point x="238" y="415" type="curve"/>
      <point x="249" y="415" type="line"/>
      <point x="249" y="494" type="line"/>
      <point x="46" y="494" type="line"/>
      <point x="46" y="0" type="line"/>
      <point x="254" y="0" type="line"/>
      <point x="254" y="264" type="line" smooth="yes"/>
      <point x="254" y="320"/>
      <point x="274" y="348"/>
      <point x="313" y="348" type="curve" smooth="yes"/>
      <point x="343" y="348"/>
      <point x="355" y="330"/>
      <point x="355" y="282" type="curve" smooth="yes"/>
      <point x="355" y="0" type="line"/>
      <point x="563" y="0" type="line"/>
      <point x="563" y="264" type="line" smooth="yes"/>
      <point x="563" y="320"/>
      <point x="583" y="348"/>
      <point x="622" y="348" type="curve" smooth="yes"/>
      <point x="652" y="348"/>
      <point x="664" y="330"/>
      <point x="664" y="282" type="curve" smooth="yes"/>
      <point x="664" y="0" type="line"/>
      <point x="872" y="0" type="line"/>
      <point x="872" y="287" type="line" smooth="yes"/>
      <point x="872" y="437"/>
      <point x="818" y="506"/>
    </contour>
    <contour>
      <point x="459" y="0" type="move" name="bottom"/>
    </contour>
    <contour>
      <point x="459" y="484" type="move" name="top"/>
    </contour>
  </outline>
</glyph>
<glyph name="n" format="1">
  <advance width="618"/>
  <unicode hex="006E"/>
  <outline>
    <contour>
      <point x="403" y="506" type="curve" smooth="yes"/>
      <point x="330" y="506"/>
      <point x="269" y="472"/>
      <point x="236" y="415" type="curve"/>
      <point x="247" y="415" type="line"/>
      <point x="247" y="494" type="line"/>
      <point x="44" y="494" type="line"/>
      <point x="44" y="0" type="line"/>
      <point x="252" y="0" type="line"/>
      <point x="252" y="272" type="line" smooth="yes"/>
      <point x="252" y="318"/>
      <point x="280" y="348"/>
      <point x="322" y="348" type="curve" smooth="yes"/>
      <point x="351" y="348"/>
      <point x="368" y="330"/>
      <point x="368" y="279" type="curve" smooth="yes"/>
      <point x="368" y="0" type="line"/>
      <point x="576" y="0" type="line"/>
      <point x="576" y="287" type="line" smooth="yes"/>
      <point x="576" y="436"/>
      <point x="520" y="506"/>
    </contour>
    <contour>
      <point x="311" y="0" type="move" name="bottom"/>
    </contour>
    <contour>
      <point x="311" y="484" type="move" name="top"/>
    </contour>
  </outline>
</glyph>
<glyph name="o" format="1">
  <advance width="616"/>
  <unicode hex="006F"/>
  <outline>
    <contour>
      <point x="308" y="-12" type="curve" smooth="yes"/>
      <point x="479" y="-12"/>
      <point x="592" y="86"/>
      <point x="592" y="247" type="curve" smooth="yes"/>
      <point x="592" y="408"/>
      <point x="479" y="506"/>
      <point x="308" y="506" type="curve" smooth="yes"/>
      <point x="137" y="506"/>
      <point x="24" y="408"/>
      <point x="24" y="247" type="curve" smooth="yes"/>
      <point x="24" y="86"/>
      <point x="137" y="-12"/>
    </contour>
    <contour>
      <point x="308" y="140" type="curve" smooth="yes"/>
      <point x="265" y="140"/>
      <point x="233" y="168"/>
      <point x="233" y="247" type="curve" smooth="yes"/>
      <point x="233" y="326"/>
      <point x="265" y="354"/>
      <point x="308" y="354" type="curve" smooth="yes"/>
      <point x="351" y="354"/>
      <point x="383" y="326"/>
      <point x="383" y="247" type="curve" smooth="yes"/>
      <point x="383" y="168"/>
      <point x="351" y="140"/>
    </contour>
    <contour>
      <point x="308" y="0" type="move" name="bottom"/>
    </contour>
    <contour>
      <point x="308" y="247" type="move" name="center"/>
    </contour>
    <contour>
      <point x="367" y="0" type="move" name="ogonek"/>
    </contour>
    <contour>
      <point x="308" y="484" type="move" name="top"/>
    </contour>
    <contour>
      <point x="380" y="484" type="move" name="topright"/>
    </contour>
  </outline>
</glyph>
<glyph name="p" format="1">
  <advance width="632"/>
  <unicode hex="0070"/>
  <outline>
    <contour>
      <point x="393" y="506" type="curve" smooth="yes"/>
      <point x="321" y="506"/>
      <point x="256" y="468"/>
      <point x="238" y="413" type="curve"/>
      <point x="249" y="413" type="line"/>
      <point x="249" y="494" type="line"/>
      <point x="44" y="494" type="line"/>
      <point x="44" y="-180" type="line"/>
      <point x="252" y="-180" type="line"/>
      <point x="252" y="73" type="line"/>
      <point x="240" y="73" type="line"/>
      <point x="260" y="24"/>
      <point x="324" y="-12"/>
      <point x="393" y="-12" type="curve" smooth="yes"/>
      <point x="519" y="-12"/>
      <point x="608" y="86"/>
      <point x="608" y="247" type="curve" smooth="yes"/>
      <point x="608" y="408"/>
      <point x="518" y="506"/>
    </contour>
    <contour>
      <point x="324" y="354" type="curve" smooth="yes"/>
      <point x="367" y="354"/>
      <point x="399" y="326"/>
      <point x="399" y="247" type="curve" smooth="yes"/>
      <point x="399" y="168"/>
      <point x="367" y="140"/>
      <point x="324" y="140" type="curve" smooth="yes"/>
      <point x="281" y="140"/>
      <point x="249" y="168"/>
      <point x="249" y="247" type="curve" smooth="yes"/>
      <point x="249" y="326"/>
      <point x="281" y="354"/>
    </contour>
    <contour>
      <point x="315" y="0" type="move" name="bottom"/>
    </contour>
    <contour>
      <point x="315" y="484" type="move" name="top"/>
    </contour>
  </outline>
</glyph>
<glyph name="q" format="1">
  <advance width="632"/>
  <unicode hex="0071"/>
  <outline>
    <contour>
      <point x="239" y="506" type="curve" smooth="yes"/>
      <point x="114" y="506"/>
      <point x="24" y="408"/>
      <point x="24" y="247" type="curve" smooth="yes"/>
      <point x="24" y="86"/>
      <point x="113" y="-12"/>
      <point x="239" y="-12" type="curve" smooth="yes"/>
      <point x="308" y="-12"/>
      <point x="372" y="24"/>
      <point x="392" y="73" type="curve"/>
      <point x="380" y="73" type="line"/>
      <point x="380" y="-180" type="line"/>
      <point x="588" y="-180" type="line"/>
      <point x="588" y="494" type="line"/>
      <point x="383" y="494" type="line"/>
      <point x="383" y="413" type="line"/>
      <point x="394" y="413" type="line"/>
      <point x="376" y="468"/>
      <point x="311" y="506"/>
    </contour>
    <contour>
      <point x="308" y="354" type="curve" smooth="yes"/>
      <point x="351" y="354"/>
      <point x="383" y="326"/>
      <point x="383" y="247" type="curve" smooth="yes"/>
      <point x="383" y="168"/>
      <point x="351" y="140"/>
      <point x="308" y="140" type="curve" smooth="yes"/>
      <point x="265" y="140"/>
      <point x="233" y="168"/>
      <point x="233" y="247" type="curve" smooth="yes"/>
      <point x="233" y="326"/>
      <point x="265" y="354"/>
    </contour>
    <contour>
      <point x="320" y="0" type="move" name="bottom"/>
    </contour>
    <contour>
      <point x="320" y="484" type="move" name="top"/>
    </contour>
  </outline>
</glyph>
<glyph name="r" format="1">
  <advance width="457"/>
  <unicode hex="0072"/>
  <outline>
    <contour>
      <point x="44" y="0" type="line"/>
      <point x="256" y="0" type="line"/>
      <point x="256" y="235" type="line" smooth="yes"/>
      <point x="256" y="292"/>
      <point x="281" y="317"/>
      <point x="345" y="323" type="curve" smooth="yes"/>
      <point x="456" y="334" type="line"/>
      <point x="445" y="508" type="line"/>
      <point x="390" y="504" type="line" smooth="yes"/>
      <point x="302" y="498"/>
      <point x="246" y="451"/>
      <point x="237" y="371" type="curve"/>
      <point x="247" y="371" type="line"/>
      <point x="247" y="494" type="line"/>
      <point x="44" y="494" type="line"/>
    </contour>
    <contour>
      <point x="150" y="0" type="move" name="bottom"/>
    </contour>
    <contour>
      <point x="249" y="484" type="move" name="top"/>
    </contour>
  </outline>
</glyph>
<glyph name="s" format="1">
  <advance width="501"/>
  <unicode hex="0073"/>
  <outline>
    <contour>
      <point x="251" y="-12" type="curve" smooth="yes"/>
      <point x="393" y="-12"/>
      <point x="488" y="52"/>
      <point x="488" y="166" type="curve" smooth="yes"/>
      <point x="488" y="244"/>
      <point x="439" y="290"/>
      <point x="354" y="303" type="curve" smooth="yes"/>
      <point x="237" y="321" type="line" smooth="yes"/>
      <point x="220" y="324"/>
      <point x="211" y="332"/>
      <point x="211" y="342" type="curve" smooth="yes"/>
      <point x="211" y="356"/>
      <point x="225" y="368"/>
      <point x="274" y="368" type="curve" smooth="yes"/>
      <point x="318" y="368"/>
      <point x="386" y="348"/>
      <point x="425" y="325" type="curve"/>
      <point x="474" y="455" type="line"/>
      <point x="418" y="492"/>
      <point x="342" y="506"/>
      <point x="270" y="506" type="curve" smooth="yes"/>
      <point x="129" y="506"/>
      <point x="29" y="438"/>
      <point x="29" y="331" type="curve" smooth="yes"/>
      <point x="29" y="253"/>
      <point x="78" y="205"/>
      <point x="161" y="192" type="curve" smooth="yes"/>
      <point x="278" y="174" type="line" smooth="yes"/>
      <point x="294" y="172"/>
      <point x="306" y="166"/>
      <point x="306" y="152" type="curve" smooth="yes"/>
      <point x="306" y="137"/>
      <point x="292" y="126"/>
      <point x="251" y="126" type="curve" smooth="yes"/>
      <point x="186" y="126"/>
      <point x="113" y="147"/>
      <point x="63" y="172" type="curve"/>
      <point x="18" y="39" type="line"/>
      <point x="73" y="7"/>
      <point x="155" y="-12"/>
    </contour>
    <contour>
      <point x="252" y="0" type="move" name="bottom"/>
    </contour>
    <contour>
      <point x="260" y="484" type="move" name="top"/>
    </contour>
  </outline>
</glyph>
<glyph name="t" format="1">
  <advance width="449"/>
  <unicode hex="0074"/>
  <outline>
    <contour>
      <point x="359" y="154" type="curve" smooth="yes"/>
      <point x="315" y="154"/>
      <point x="295" y="172"/>
      <point x="295" y="212" type="curve" smooth="yes"/>
      <point x="295" y="342" type="line"/>
      <point x="431" y="342" type="line"/>
      <point x="431" y="494" type="line"/>
      <point x="295" y="494" type="line"/>
      <point x="295" y="635" type="line"/>
      <point x="87" y="635" type="line"/>
      <point x="87" y="494" type="line"/>
      <point x="-4" y="494" type="line"/>
      <point x="-4" y="342" type="line"/>
      <point x="87" y="342" type="line"/>
      <point x="87" y="207" type="line" smooth="yes"/>
      <point x="87" y="59"/>
      <point x="162" y="-12"/>
      <point x="322" y="-12" type="curve" smooth="yes"/>
      <point x="364" y="-12"/>
      <point x="410" y="-2"/>
      <point x="445" y="15" type="curve"/>
      <point x="418" y="164" type="line"/>
      <point x="391" y="157"/>
      <point x="374" y="154"/>
    </contour>
    <contour>
      <point x="257" y="0" type="move" name="bottom"/>
    </contour>
    <contour>
      <point x="208" y="249" type="move" name="center"/>
    </contour>
    <contour>
      <point x="191" y="635" type="move" name="top"/>
    </contour>
    <contour>
      <point x="325" y="705" type="move" name="topright"/>
    </contour>
  </outline>
</glyph>
<glyph name="u" format="1">
  <advance width="613"/>
  <unicode hex="0075"/>
  <outline>
    <contour>
      <point x="361" y="494" type="line"/>
      <point x="361" y="223" type="line" smooth="yes"/>
      <point x="361" y="177"/>
      <point x="334" y="146"/>
      <point x="297" y="146" type="curve" smooth="yes"/>
      <point x="265" y="146"/>
      <point x="250" y="165"/>
      <point x="250" y="201" type="curve" smooth="yes"/>
      <point x="250" y="494" type="line"/>
      <point x="42" y="494" type="line"/>
      <point x="42" y="207" type="line" smooth="yes"/>
      <point x="42" y="59"/>
      <point x="102" y="-12"/>
      <point x="232" y="-12" type="curve" smooth="yes"/>
      <point x="302" y="-12"/>
      <point x="352" y="22"/>
      <point x="383" y="83" type="curve"/>
      <point x="366" y="83" type="line"/>
      <point x="366" y="0" type="line"/>
      <point x="569" y="0" type="line"/>
      <point x="569" y="494" type="line"/>
    </contour>
    <contour>
      <point x="306" y="0" type="move" name="bottom"/>
    </contour>
    <contour>
      <point x="539" y="0" type="move" name="ogonek"/>
    </contour>
    <contour>
      <point x="306" y="484" type="move" name="top"/>
    </contour>
    <contour>
      <point x="424" y="484" type="move" name="topright"/>
    </contour>
  </outline>
</glyph>
<glyph name="x" format="1">
  <advance width="587"/>
  <unicode hex="0078"/>
  <outline>
    <contour>
      <point x="373" y="208" type="line"/>
      <point x="609" y="494" type="line"/>
      <point x="368" y="494" type="line"/>
      <point x="258" y="350" type="line"/>
      <point x="330" y="350" type="line"/>
      <point x="220" y="494" type="line"/>
      <point x="-21" y="494" type="line"/>
      <point x="214" y="209" type="line"/>
      <point x="214" y="299" type="line"/>
      <point x="-35" y="0" type="line"/>
      <point x="206" y="0" type="line"/>
      <point x="330" y="157" type="line"/>
      <point x="258" y="157" type="line"/>
      <point x="382" y="0" type="line"/>
      <point x="624" y="0" type="line"/>
      <point x="373" y="301" type="line"/>
    </contour>
    <contour>
      <point x="294" y="0" type="move" name="bottom"/>
    </contour>
    <contour>
      <point x="294" y="484" type="move" name="top"/>
    </contour>
  </outline>
</glyph>
<glyph name="z" format="1">
  <advance width="494"/>
  <unicode hex="007A"/>
  <outline>
    <contour>
      <point x="38" y="0" type="line"/>
      <point x="474" y="0" type="line"/>
      <point x="474" y="152" type="line"/>
      <point x="215" y="152" type="line"/>
      <point x="215" y="99" type="line"/>
      <point x="464" y="362" type="line"/>
      <point x="464" y="494" type="line"/>
      <point x="38" y="494" type="line"/>
      <point x="38" y="342" type="line"/>
      <point x="281" y="342" type="line"/>
      <point x="281" y="388" type="line"/>
      <point x="38" y="132" type="line"/>
    </contour>
    <contour>
      <point x="251" y="0" type="move" name="bottom"/>
    </contour>
    <contour>
      <point x="251" y="484" type="move" name="top"/>
    </contour>
  </outline>
</glyph>
<glyph name="exclamdown" format="1">
  <advance width="285"/>
  <unicode hex="00A1"/>
  <outline>
    <contour>
      <point x="80" y="239" type="line"/>
      <point x="15" y="-180" type="line"/>
      <point x="270" y="-180" type="line"/>
      <point x="205" y="239" type="line"/>
    </contour>
    <contour>
      <point x="37" y="287" type="line"/>
      <point x="248" y="287" type="line"/>
      <point x="248" y="494" type="line"/>
      <point x="37" y="494" type="line"/>
    </contour>
  </outline>
</glyph>
<glyph name="brokenbar" format="1">
  <advance width="332"/>
  <unicode hex="00A6"/>
  <outline>
    <contour>
      <point x="62" y="371" type="line"/>
      <point x="270" y="371" type="line"/>
      <point x="270" y="705" type="line"/>
      <point x="62" y="705" type="line"/>
    </contour>
    <contour>
      <point x="62" y="-180" type="line"/>
      <point x="270" y="-180" type="line"/>
      <point x="270" y="154" type="line"/>
      <point x="62" y="154" type="line"/>
    </contour>
  </outline>
</glyph>
<glyph name="periodcentered" format="1">
  <advance width="285"/>
  <unicode hex="00B7"/>
  <outline>
    <contour>
      <point x="37" y="373" type="line"/>
      <point x="37" y="166" type="line"/>
      <point x="248" y="166" type="line"/>
      <point x="248" y="373" type="line"/>
    </contour>
  </outline>
</glyph>
<glyph name="Thorn" format="1">
  <advance width="693"/>
  <unicode hex="00DE"/>
  <outline>
    <contour>
      <point x="419" y="605" type="curve" smooth="yes"/>
      <point x="272" y="605" type="line"/>
      <point x="272" y="705" type="line"/>
      <point x="57" y="705" type="line"/>
      <point x="57" y="0" type="line"/>
      <point x="272" y="0" type="line"/>
      <point x="272" y="131" type="line"/>
      <point x="419" y="131" type="line" smooth="yes"/>
      <point x="581" y="131"/>
      <point x="674" y="221"/>
      <point x="674" y="368" type="curve" smooth="yes"/>
      <point x="674" y="515"/>
      <point x="581" y="605"/>
    </contour>
    <contour>
      <point x="379" y="295" type="curve" smooth="yes"/>
      <point x="272" y="295" type="line"/>
      <point x="272" y="441" type="line"/>
      <point x="379" y="441" type="line" smooth="yes"/>
      <point x="437" y="441"/>
      <point x="470" y="418"/>
      <point x="470" y="368" type="curve" smooth="yes"/>
      <point x="470" y="318"/>
      <point x="437" y="295"/>
    </contour>
    <contour>
      <point x="352" y="0" type="move" name="bottom"/>
    </contour>
    <contour>
      <point x="351" y="705" type="move" name="top"/>
    </contour>
  </outline>
</glyph>
<glyph name="ae" format="1">
  <advance width="873"/>
  <unicode hex="00E6"/>
  <outline>
    <contour>
      <point x="525" y="199" type="line"/>
      <point x="853" y="199" type="line"/>
      <point x="853" y="246" type="line" smooth="yes"/>
      <point x="853" y="404"/>
      <point x="754" y="506"/>
      <point x="601" y="506" type="curve" smooth="yes"/>
      <point x="532" y="506"/>
      <point x="474" y="486"/>
      <point x="431" y="439" type="curve"/>
      <point x="472" y="439" type="line"/>
      <point x="434" y="488"/>
      <point x="361" y="506"/>
      <point x="279" y="506" type="curve" smooth="yes"/>
      <point x="201" y="506"/>
      <point x="93" y="479"/>
      <point x="42" y="444" type="curve"/>
      <point x="93" y="305" type="line"/>
      <point x="152" y="337"/>
      <point x="219" y="352"/>
      <point x="269" y="352" type="curve" smooth="yes"/>
      <point x="318" y="352"/>
      <point x="337" y="338"/>
      <point x="337" y="304" type="curve" smooth="yes"/>
      <point x="337" y="192" type="line" smooth="yes"/>
      <point x="337" y="152"/>
      <point x="312" y="125"/>
      <point x="270" y="125" type="curve" smooth="yes"/>
      <point x="235" y="125"/>
      <point x="219" y="142"/>
      <point x="219" y="162" type="curve" smooth="yes"/>
      <point x="219" y="189"/>
      <point x="250" y="201"/>
      <point x="302" y="201" type="curve" smooth="yes"/>
      <point x="353" y="201" type="line"/>
      <point x="353" y="301" type="line"/>
      <point x="308" y="301" type="line" smooth="yes"/>
      <point x="101" y="301"/>
      <point x="22" y="261"/>
      <point x="22" y="154" type="curve" smooth="yes"/>
      <point x="22" y="58"/>
      <point x="102" y="-12"/>
      <point x="238" y="-12" type="curve" smooth="yes"/>
      <point x="335" y="-12"/>
      <point x="401" y="26"/>
      <point x="430" y="98" type="curve"/>
      <point x="402" y="98" type="line"/>
      <point x="444" y="25"/>
      <point x="529" y="-12"/>
      <point x="638" y="-12" type="curve" smooth="yes"/>
      <point x="711" y="-12"/>
      <point x="791" y="10"/>
      <point x="845" y="45" type="curve"/>
      <point x="795" y="181" type="line"/>
      <point x="754" y="155"/>
      <point x="695" y="140"/>
      <point x="644" y="140" type="curve" smooth="yes"/>
      <point x="568" y="140"/>
      <point x="535" y="168"/>
      <point x="535" y="256" type="curve" smooth="yes"/>
      <point x="535" y="266" type="line" smooth="yes"/>
      <point x="535" y="340"/>
      <point x="561" y="370"/>
      <point x="609" y="370" type="curve" smooth="yes"/>
      <point x="654" y="370"/>
      <point x="677" y="342"/>
      <point x="679" y="286" type="curve"/>
      <point x="698" y="300" type="line"/>
      <point x="525" y="300" type="line"/>
    </contour>
    <contour>
      <point x="414" y="0" type="move" name="bottom"/>
    </contour>
    <contour>
      <point x="414" y="484" type="move" name="top"/>
    </contour>
  </outline>
</glyph>
<glyph name="eth" format="1">
  <advance width="620"/>
  <unicode hex="00F0"/>
  <outline>
    <contour>
      <point x="299" y="-12" type="curve" smooth="yes"/>
      <point x="489" y="-12"/>
      <point x="599" y="106"/>
      <point x="599" y="292" type="curve" smooth="yes"/>
      <point x="599" y="450"/>
      <point x="466" y="678"/>
      <point x="144" y="719" type="curve"/>
      <point x="110" y="590" type="line"/>
      <point x="271" y="568"/>
      <point x="405" y="470"/>
      <point x="406" y="341" type="curve"/>
      <point x="443" y="341" type="line"/>
      <point x="412" y="423"/>
      <point x="357" y="452"/>
      <point x="276" y="452" type="curve" smooth="yes"/>
      <point x="130" y="452"/>
      <point x="24" y="355"/>
      <point x="24" y="223" type="curve" smooth="yes"/>
      <point x="24" y="84"/>
      <point x="137" y="-12"/>
    </contour>
    <contour>
      <point x="308" y="142" type="curve" smooth="yes"/>
      <point x="258" y="142"/>
      <point x="233" y="173"/>
      <point x="233" y="223" type="curve" smooth="yes"/>
      <point x="233" y="272"/>
      <point x="257" y="303"/>
      <point x="307" y="303" type="curve" smooth="yes"/>
      <point x="357" y="303"/>
      <point x="381" y="272"/>
      <point x="381" y="223" type="curve" smooth="yes"/>
      <point x="381" y="175"/>
      <point x="356" y="142"/>
    </contour>
    <contour>
      <point x="136" y="431" type="line"/>
      <point x="552" y="629" type="line"/>
      <point x="509" y="719" type="line"/>
      <point x="93" y="521" type="line"/>
    </contour>
  </outline>
</glyph>
<glyph name="divide" format="1">
  <advance width="600"/>
  <unicode hex="00F7"/>
  <outline>
    <contour>
      <point x="225" y="411" type="line"/>
      <point x="363" y="411" type="line"/>
      <point x="363" y="550" type="line"/>
      <point x="225" y="550" type="line"/>
    </contour>
    <contour>
      <point x="225" y="24" type="line"/>
      <point x="363" y="24" type="line"/>
      <point x="363" y="163" type="line"/>
      <point x="225" y="163" type="line"/>
    </contour>
    <contour>
      <point x="544" y="355" type="line"/>
      <point x="56" y="355" type="line"/>
      <point x="56" y="219" type="line"/>
      <point x="544" y="219" type="line"/>
    </contour>
  </outline>
</glyph>
<glyph name="dcroat" format="1">
  <advance width="632"/>
  <unicode hex="0111"/>
  <outline>
    <contour>
      <point x="239" y="-12" type="curve" smooth="yes"/>
      <point x="311" y="-12"/>
      <point x="376" y="26"/>
      <point x="394" y="81" type="curve"/>
      <point x="383" y="81" type="line"/>
      <point x="383" y="0" type="line"/>
      <point x="588" y="0" type="line"/>
      <point x="588" y="525" type="line"/>
      <point x="668" y="525" type="line"/>
      <point x="668" y="665" type="line"/>
      <point x="588" y="665" type="line"/>
      <point x="588" y="705" type="line"/>
      <point x="380" y="705" type="line"/>
      <point x="380" y="665" type="line"/>
      <point x="200" y="665" type="line"/>
      <point x="200" y="525" type="line"/>
      <point x="380" y="525" type="line"/>
      <point x="380" y="421" type="line"/>
      <point x="392" y="421" type="line"/>
      <point x="372" y="470"/>
      <point x="308" y="506"/>
      <point x="239" y="506" type="curve" smooth="yes"/>
      <point x="113" y="506"/>
      <point x="24" y="408"/>
      <point x="24" y="247" type="curve" smooth="yes"/>
      <point x="24" y="86"/>
      <point x="114" y="-12"/>
    </contour>
    <contour>
      <point x="308" y="140" type="curve" smooth="yes"/>
      <point x="265" y="140"/>
      <point x="233" y="168"/>
      <point x="233" y="247" type="curve" smooth="yes"/>
      <point x="233" y="326"/>
      <point x="265" y="354"/>
      <point x="308" y="354" type="curve" smooth="yes"/>
      <point x="351" y="354"/>
      <point x="383" y="326"/>
      <point x="383" y="247" type="curve" smooth="yes"/>
      <point x="383" y="168"/>
      <point x="351" y="140"/>
    </contour>
  </outline>
</glyph>
<glyph name="Eogonek" format="1">
  <advance width="624"/>
  <unicode hex="0118"/>
  <outline>
    <component base="E"/>
    <component base="ogonekcomb" xOffset="341"/>
    <contour>
      <point x="336" y="705" type="move" name="top"/>
    </contour>
  </outline>
</glyph>
<glyph name="eogonek" format="1">
  <advance width="563"/>
  <unicode hex="0119"/>
  <outline>
    <component base="e"/>
    <component base="ogonekcomb" xOffset="201"/>
    <contour>
      <point x="293" y="484" type="move" name="top"/>
    </contour>
  </outline>
</glyph>
<glyph name="Hbar" format="1">
  <advance width="854"/>
  <unicode hex="0126"/>
  <outline>
    <contour>
      <point x="841" y="650" type="line"/>
      <point x="767" y="650" type="line"/>
      <point x="767" y="705" type="line"/>
      <point x="552" y="705" type="line"/>
      <point x="552" y="650" type="line"/>
      <point x="302" y="650" type="line"/>
      <point x="302" y="705" type="line"/>
      <point x="87" y="705" type="line"/>
      <point x="87" y="650" type="line"/>
      <point x="13" y="650" type="line"/>
      <point x="13" y="500" type="line"/>
      <point x="87" y="500" type="line"/>
      <point x="87" y="0" type="line"/>
      <point x="302" y="0" type="line"/>
      <point x="302" y="269" type="line"/>
      <point x="552" y="269" type="line"/>
      <point x="552" y="0" type="line"/>
      <point x="767" y="0" type="line"/>
      <point x="767" y="500" type="line"/>
      <point x="841" y="500" type="line"/>
    </contour>
    <contour>
      <point x="552" y="445" type="line"/>
      <point x="302" y="445" type="line"/>
      <point x="302" y="500" type="line"/>
      <point x="552" y="500" type="line"/>
    </contour>
  </outline>
</glyph>
<glyph name="idotless" format="1">
  <advance width="296"/>
  <unicode hex="0131"/>
  <outline>
    <contour>
      <point x="44" y="0" type="line"/>
      <point x="252" y="0" type="line"/>
      <point x="252" y="494" type="line"/>
      <point x="44" y="494" type="line"/>
    </contour>
    <contour>
      <point x="148" y="0" type="move" name="bottom"/>
    </contour>
    <contour>
      <point x="200" y="0" type="move" name="ogonek"/>
    </contour>
    <contour>
      <point x="148" y="484" type="move" name="top"/>
    </contour>
  </outline>
</glyph>
<glyph name="kgreenlandic" format="1">
  <advance width="605"/>
  <unicode hex="0138"/>
  <outline>
    <contour>
      <point x="641" y="0" type="line"/>
      <point x="434" y="295" type="line"/>
      <point x="434" y="227" type="line"/>
      <point x="639" y="494" type="line"/>
      <point x="397" y="494" type="line"/>
      <point x="254" y="302" type="line"/>
      <point x="252" y="302" type="line"/>
      <point x="252" y="494" type="line"/>
      <point x="44" y="494" type="line"/>
      <point x="44" y="0" type="line"/>
      <point x="252" y="0" type="line"/>
      <point x="252" y="198" type="line"/>
      <point x="254" y="198" type="line"/>
      <point x="394" y="0" type="line"/>
    </contour>
    <contour>
      <point x="302" y="0" type="move" name="bottom"/>
    </contour>
    <contour>
      <point x="302" y="484" type="move" name="top"/>
    </contour>
  </outline>
</glyph>
<glyph name="Eng" format="1">
  <advance width="763"/>
  <unicode hex="014A"/>
  <outline>
    <contour>
      <point x="706" y="39" type="curve" smooth="yes"/>
      <point x="706" y="705" type="line"/>
      <point x="506" y="705" type="line"/>
      <point x="506" y="315" type="line"/>
      <point x="536" y="315" type="line"/>
      <point x="214" y="705" type="line"/>
      <point x="57" y="705" type="line"/>
      <point x="57" y="0" type="line"/>
      <point x="257" y="0" type="line"/>
      <point x="257" y="390" type="line"/>
      <point x="227" y="390" type="line"/>
      <point x="549" y="0" type="line"/>
      <point x="507" y="76" type="line"/>
      <point x="507" y="8" type="line" smooth="yes"/>
      <point x="507" y="-24"/>
      <point x="490" y="-38"/>
      <point x="454" y="-42" type="curve" smooth="yes"/>
      <point x="399" y="-48" type="line"/>
      <point x="413" y="-193" type="line"/>
      <point x="457" y="-190" type="line" smooth="yes"/>
      <point x="647" y="-177"/>
      <point x="706" y="-120"/>
    </contour>
    <contour>
      <point x="382" y="0" type="move" name="bottom"/>
    </contour>
    <contour>
      <point x="381" y="705" type="move" name="top"/>
    </contour>
  </outline>
</glyph>
<glyph name="eng" format="1">
  <advance width="618"/>
  <unicode hex="014B"/>
  <outline>
    <contour>
      <point x="576" y="39" type="curve" smooth="yes"/>
      <point x="576" y="287" type="line" smooth="yes"/>
      <point x="576" y="436"/>
      <point x="520" y="506"/>
      <point x="403" y="506" type="curve" smooth="yes"/>
      <point x="330" y="506"/>
      <point x="269" y="472"/>
      <point x="236" y="415" type="curve"/>
      <point x="247" y="415" type="line"/>
      <point x="247" y="494" type="line"/>
      <point x="44" y="494" type="line"/>
      <point x="44" y="0" type="line"/>
      <point x="252" y="0" type="line"/>
      <point x="252" y="272" type="line" smooth="yes"/>
      <point x="252" y="318"/>
      <point x="280" y="348"/>
      <point x="322" y="348" type="curve" smooth="yes"/>
      <point x="351" y="348"/>
      <point x="368" y="330"/>
      <point x="368" y="279" type="curve" smooth="yes"/>
      <point x="368" y="8" type="line" smooth="yes"/>
      <point x="368" y="-24"/>
      <point x="355" y="-38"/>
      <point x="319" y="-42" type="curve" smooth="yes"/>
      <point x="269" y="-48" type="line"/>
      <point x="283" y="-193" type="line"/>
      <point x="327" y="-190" type="line" smooth="yes"/>
      <point x="517" y="-177"/>
      <point x="576" y="-120"/>
    </contour>
  </outline>
</glyph>
<glyph name="oe" format="1">
  <advance width="924"/>
  <unicode hex="0153"/>
  <outline>
    <contour>
      <point x="301" y="-12" type="curve" smooth="yes"/>
      <point x="390" y="-12"/>
      <point x="458" y="18"/>
      <point x="506" y="72" type="curve"/>
      <point x="469" y="72" type="line"/>
      <point x="517" y="19"/>
      <point x="591" y="-12"/>
      <point x="689" y="-12" type="curve" smooth="yes"/>
      <point x="762" y="-12"/>
      <point x="842" y="10"/>
      <point x="896" y="45" type="curve"/>
      <point x="846" y="181" type="line"/>
      <point x="805" y="155"/>
      <point x="746" y="140"/>
      <point x="695" y="140" type="curve" smooth="yes"/>
      <point x="614" y="140"/>
      <point x="586" y="168"/>
      <point x="586" y="255" type="curve" smooth="yes"/>
      <point x="586" y="264" type="line" smooth="yes"/>
      <point x="586" y="338"/>
      <point x="611" y="370"/>
      <point x="660" y="370" type="curve" smooth="yes"/>
      <point x="705" y="370"/>
      <point x="727" y="342"/>
      <point x="730" y="286" type="curve"/>
      <point x="749" y="300" type="line"/>
      <point x="566" y="300" type="line"/>
      <point x="566" y="199" type="line"/>
      <point x="904" y="199" type="line"/>
      <point x="904" y="246" type="line" smooth="yes"/>
      <point x="904" y="404"/>
      <point x="805" y="506"/>
      <point x="652" y="506" type="curve" smooth="yes"/>
      <point x="576" y="506"/>
      <point x="514" y="482"/>
      <point x="467" y="434" type="curve"/>
      <point x="504" y="434" type="line"/>
      <point x="456" y="481"/>
      <point x="389" y="506"/>
      <point x="301" y="506" type="curve" smooth="yes"/>
      <point x="137" y="506"/>
      <point x="24" y="408"/>
      <point x="24" y="247" type="curve" smooth="yes"/>
      <point x="24" y="86"/>
      <point x="137" y="-12"/>
    </contour>
    <contour>
      <point x="308" y="140" type="curve" smooth="yes"/>
      <point x="265" y="140"/>
      <point x="233" y="168"/>
      <point x="233" y="247" type="curve" smooth="yes"/>
      <point x="233" y="326"/>
      <point x="265" y="354"/>
      <point x="308" y="354" type="curve" smooth="yes"/>
      <point x="351" y="354"/>
      <point x="383" y="326"/>
      <point x="383" y="247" type="curve" smooth="yes"/>
      <point x="383" y="168"/>
      <point x="351" y="140"/>
    </contour>
    <contour>
      <point x="484" y="0" type="move" name="bottom"/>
    </contour>
    <contour>
      <point x="484" y="484" type="move" name="top"/>
    </contour>
  </outline>
</glyph>
<glyph name="florin" format="1">
  <advance width="600"/>
  <unicode hex="0192"/>
  <outline>
    <contour>
      <point x="15" y="-192" type="line"/>
      <point x="107" y="-192" type="line" smooth="yes"/>
      <point x="231" y="-192"/>
      <point x="323" y="-112"/>
      <point x="353" y="30" type="curve" smooth="yes"/>
      <point x="425" y="368" type="line"/>
      <point x="400" y="342" type="line"/>
      <point x="549" y="342" type="line"/>
      <point x="549" y="494" type="line"/>
      <point x="422" y="494" type="line"/>
      <point x="447" y="472" type="line"/>
      <point x="451" y="490" type="line" smooth="yes"/>
      <point x="461" y="534"/>
      <point x="481" y="556"/>
      <point x="528" y="556" type="curve" smooth="yes"/>
      <point x="585" y="556" type="line"/>
      <point x="585" y="717" type="line"/>
      <point x="503" y="717" type="line" smooth="yes"/>
      <point x="371" y="717"/>
      <point x="273" y="636"/>
      <point x="247" y="494" type="curve" smooth="yes"/>
      <point x="243" y="472" type="line"/>
      <point x="282" y="494" type="line"/>
      <point x="129" y="494" type="line"/>
      <point x="129" y="342" type="line"/>
      <point x="257" y="342" type="line"/>
      <point x="221" y="369" type="line"/>
      <point x="150" y="34" type="line" smooth="yes"/>
      <point x="140" y="-11"/>
      <point x="120" y="-31"/>
      <point x="90" y="-31" type="curve" smooth="yes"/>
      <point x="15" y="-31" type="line"/>
    </contour>
  </outline>
</glyph>
<glyph name="Ohorn" format="1">
  <advance width="820"/>
  <unicode hex="01A0"/>
  <outline>
    <component base="O"/>
    <component base="horncomb.O.case" xOffset="311"/>
    <contour>
      <point x="404" y="0" type="move" name="bottom"/>
    </contour>
    <contour>
      <point x="403" y="705" type="move" name="top"/>
    </contour>
  </outline>
</glyph>
<glyph name="ohorn" format="1">
  <advance width="616"/>
  <unicode hex="01A1"/>
  <outline>
    <component base="o"/>
    <component base="horncomb" xOffset="179"/>
    <contour>
      <point x="307" y="0" type="move" name="bottom"/>
    </contour>
    <contour>
      <point x="307" y="484" type="move" name="top"/>
    </contour>
  </outline>
</glyph>
<glyph name="uhorn" format="1">
  <advance width="613"/>
  <unicode hex="01B0"/>
  <outline>
    <component base="u"/>
    <component base="horncomb" xOffset="223"/>
    <contour>
      <point x="305" y="0" type="move" name="bottom"/>
    </contour>
    <contour>
      <point x="305" y="484" type="move" name="top"/>
    </contour>
  </outline>
</glyph>
<glyph name="gstroke" format="1">
  <advance width="638"/>
  <unicode hex="01E5"/>
  <outline>
    <contour>
      <point x="297" y="-192" type="curve" smooth="yes"/>
      <point x="488" y="-192"/>
      <point x="594" y="-103"/>
      <point x="594" y="75" type="curve" smooth="yes"/>
      <point x="594" y="494" type="line"/>
      <point x="389" y="494" type="line"/>
      <point x="389" y="417" type="line"/>
      <point x="400" y="422" type="line"/>
      <point x="378" y="472"/>
      <point x="311" y="506"/>
      <point x="244" y="506" type="curve" smooth="yes"/>
      <point x="115" y="506"/>
      <point x="24" y="415"/>
      <point x="24" y="274" type="curve" smooth="yes"/>
      <point x="24" y="133"/>
      <point x="115" y="43"/>
      <point x="244" y="43" type="curve" smooth="yes"/>
      <point x="311" y="43"/>
      <point x="378" y="76"/>
      <point x="400" y="124" type="curve"/>
      <point x="392" y="124" type="line"/>
      <point x="392" y="52" type="line" smooth="yes"/>
      <point x="392" y="-14"/>
      <point x="354" y="-41"/>
      <point x="276" y="-41" type="curve" smooth="yes"/>
      <point x="224" y="-41"/>
      <point x="139" y="-22"/>
      <point x="90" y="6" type="curve"/>
      <point x="39" y="-134" type="line"/>
      <point x="102" y="-175"/>
      <point x="195" y="-192"/>
    </contour>
    <contour>
      <point x="269" y="-33" type="line"/>
      <point x="638" y="-33" type="line"/>
      <point x="638" y="46" type="line"/>
      <point x="269" y="46" type="line"/>
    </contour>
    <contour>
      <point x="311" y="196" type="curve" smooth="yes"/>
      <point x="266" y="196"/>
      <point x="233" y="223"/>
      <point x="233" y="274" type="curve" smooth="yes"/>
      <point x="233" y="326"/>
      <point x="264" y="354"/>
      <point x="311" y="354" type="curve" smooth="yes"/>
      <point x="358" y="354"/>
      <point x="389" y="325"/>
      <point x="389" y="274" type="curve" smooth="yes"/>
      <point x="389" y="225"/>
      <point x="357" y="196"/>
    </contour>
  </outline>
</glyph>
<glyph name="Oogonek" format="1">
  <advance width="820"/>
  <unicode hex="01EA"/>
  <outline>
    <component base="O"/>
    <component base="ogonekcomb" xOffset="273"/>
    <contour>
      <point x="403" y="705" type="move" name="top"/>
    </contour>
  </outline>
</glyph>
<glyph name="oogonek" format="1">
  <advance width="616"/>
  <unicode hex="01EB"/>
  <outline>
    <component base="o"/>
    <component base="ogonekcomb" xOffset="167"/>
    <contour>
      <point x="307" y="484" type="move" name="top"/>
    </contour>
  </outline>
</glyph>
<glyph name="schwa" format="1">
  <advance width="563"/>
  <unicode hex="0259"/>
  <outline>
    <contour>
      <point x="276" y="-12" type="curve" smooth="yes"/>
      <point x="426" y="-12"/>
      <point x="539" y="94"/>
      <point x="539" y="246" type="curve" smooth="yes"/>
      <point x="539" y="404"/>
      <point x="424" y="506"/>
      <point x="245" y="506" type="curve" smooth="yes"/>
      <point x="172" y="506"/>
      <point x="92" y="487"/>
      <point x="28" y="450" type="curve"/>
      <point x="78" y="311" type="line"/>
      <point x="129" y="339"/>
      <point x="183" y="354"/>
      <point x="239" y="354" type="curve" smooth="yes"/>
      <point x="310" y="354"/>
      <point x="343" y="326"/>
      <point x="343" y="237" type="curve" smooth="yes"/>
      <point x="343" y="228" type="line" smooth="yes"/>
      <point x="343" y="156"/>
      <point x="313" y="124"/>
      <point x="273" y="124" type="curve" smooth="yes"/>
      <point x="223" y="124"/>
      <point x="203" y="153"/>
      <point x="201" y="208" type="curve"/>
      <point x="145" y="194" type="line"/>
      <point x="363" y="194" type="line"/>
      <point x="363" y="295" type="line"/>
      <point x="20" y="295" type="line"/>
      <point x="20" y="251" type="line" smooth="yes"/>
      <point x="20" y="80"/>
      <point x="117" y="-12"/>
    </contour>
  </outline>
</glyph>
<glyph name="ezh" format="1">
  <advance width="557"/>
  <unicode hex="0292"/>
  <outline>
    <component base="dzeabkhasian-cy"/>
    <contour>
      <point x="223" y="-186" type="move" name="bottom"/>
    </contour>
    <contour>
      <point x="277" y="485" type="move" name="top"/>
    </contour>
  </outline>
</glyph>
<glyph name="apostrophemod" format="1">
  <advance width="400"/>
  <unicode hex="02BC"/>
  <outline>
    <contour>
      <point x="227" y="558" type="line"/>
      <point x="279" y="601"/>
      <point x="295" y="650"/>
      <point x="295" y="715" type="curve" smooth="yes"/>
      <point x="295" y="795" type="line"/>
      <point x="104" y="795" type="line"/>
      <point x="104" y="656" type="line"/>
      <point x="237" y="656" type="line"/>
      <point x="197" y="679" type="line"/>
      <point x="197" y="651"/>
      <point x="187" y="625"/>
      <point x="159" y="603" type="curve"/>
    </contour>
  </outline>
</glyph>
<glyph name="ringhalfright" format="1">
  <advance width="300"/>
  <unicode hex="02BE"/>
  <outline>
    <contour>
      <point x="150" y="776" type="curve"/>
      <point x="150" y="703" type="line"/>
      <point x="173" y="703"/>
      <point x="189" y="685"/>
      <point x="189" y="662" type="curve" smooth="yes"/>
      <point x="189" y="639"/>
      <point x="173" y="620"/>
      <point x="150" y="620" type="curve"/>
      <point x="150" y="547" type="line"/>
      <point x="215" y="547"/>
      <point x="266" y="597"/>
      <point x="266" y="662" type="curve" smooth="yes"/>
      <point x="266" y="726"/>
      <point x="215" y="776"/>
    </contour>
    <contour>
      <point x="150" y="484" type="move" name="_top"/>
    </contour>
    <contour>
      <point x="150" y="685" type="move" name="top"/>
    </contour>
  </outline>
</glyph>
<glyph name="ringhalfleft" format="1">
  <advance width="300"/>
  <unicode hex="02BF"/>
  <outline>
    <contour>
      <point x="150" y="776" type="line"/>
      <point x="85" y="776"/>
      <point x="34" y="726"/>
      <point x="34" y="662" type="curve" smooth="yes"/>
      <point x="34" y="597"/>
      <point x="85" y="547"/>
      <point x="150" y="547" type="curve"/>
      <point x="150" y="620" type="line"/>
      <point x="127" y="620"/>
      <point x="111" y="639"/>
      <point x="111" y="662" type="curve" smooth="yes"/>
      <point x="111" y="685"/>
      <point x="127" y="703"/>
      <point x="150" y="703" type="curve"/>
    </contour>
    <contour>
      <point x="150" y="484" type="move" name="_top"/>
    </contour>
    <contour>
      <point x="150" y="685" type="move" name="top"/>
    </contour>
  </outline>
</glyph>
<glyph name="verticallinemod" format="1">
  <advance width="300"/>
  <unicode hex="02C8"/>
  <outline>
    <contour>
      <point x="90" y="592" type="line"/>
      <point x="210" y="592" type="line"/>
      <point x="210" y="800" type="line"/>
      <point x="90" y="800" type="line"/>
    </contour>
  </outline>
</glyph>
<glyph name="firsttonechinese" format="1">
  <advance width="400"/>
  <unicode hex="02C9"/>
  <outline>
    <contour>
      <point x="25" y="599" type="line"/>
      <point x="375" y="599" type="line"/>
      <point x="375" y="709" type="line"/>
      <point x="25" y="709" type="line"/>
    </contour>
    <contour>
      <point x="200" y="484" type="move" name="_top"/>
    </contour>
    <contour>
      <point x="200" y="685" type="move" name="top"/>
    </contour>
  </outline>
</glyph>
<glyph name="verticallinelowmod" format="1">
  <advance width="300"/>
  <unicode hex="02CC"/>
  <outline>
    <contour>
      <point x="90" y="-270" type="line"/>
      <point x="210" y="-270" type="line"/>
      <point x="210" y="-62" type="line"/>
      <point x="90" y="-62" type="line"/>
    </contour>
  </outline>
</glyph>
<glyph name="gravecomb" format="1">
  <advance width="400"/>
  <unicode hex="0300"/>
  <outline>
    <contour>
      <point x="134" y="558" type="line"/>
      <point x="266" y="558" type="line"/>
      <point x="165" y="765" type="line"/>
      <point x="-27" y="765" type="line"/>
    </contour>
    <contour>
      <point x="200" y="484" type="move" name="_top"/>
    </contour>
    <contour>
      <point x="200" y="685" type="move" name="top"/>
    </contour>
  </outline>
</glyph>
<glyph name="acutecomb" format="1">
  <advance width="400"/>
  <unicode hex="0301"/>
  <outline>
    <contour>
      <point x="266" y="558" type="line"/>
      <point x="427" y="765" type="line"/>
      <point x="235" y="765" type="line"/>
      <point x="134" y="558" type="line"/>
    </contour>
    <contour>
      <point x="200" y="484" type="move" name="_top"/>
    </contour>
    <contour>
      <point x="200" y="685" type="move" name="top"/>
    </contour>
  </outline>
</glyph>
<glyph name="circumflexcomb" format="1">
  <advance width="400"/>
  <unicode hex="0302"/>
  <outline>
    <contour>
      <point x="127" y="558" type="line"/>
      <point x="200" y="661" type="line"/>
      <point x="273" y="558" type="line"/>
      <point x="397" y="558" type="line"/>
      <point x="285" y="765" type="line"/>
      <point x="115" y="765" type="line"/>
      <point x="3" y="558" type="line"/>
    </contour>
    <contour>
      <point x="200" y="484" type="move" name="_top"/>
    </contour>
    <contour>
      <point x="200" y="685" type="move" name="top"/>
    </contour>
  </outline>
</glyph>
<glyph name="brevecomb" format="1">
  <advance width="400"/>
  <unicode hex="0306"/>
  <outline>
    <contour>
      <point x="200" y="554" type="curve" smooth="yes"/>
      <point x="312" y="554"/>
      <point x="388" y="633"/>
      <point x="388" y="754" type="curve"/>
      <point x="279" y="763" type="line"/>
      <point x="274" y="703"/>
      <point x="246" y="670"/>
      <point x="200" y="670" type="curve" smooth="yes"/>
      <point x="154" y="670"/>
      <point x="126" y="703"/>
      <point x="121" y="763" type="curve"/>
      <point x="12" y="754" type="line"/>
      <point x="12" y="633"/>
      <point x="88" y="554"/>
    </contour>
    <contour>
      <point x="200" y="484" type="move" name="_top"/>
    </contour>
    <contour>
      <point x="200" y="685" type="move" name="top"/>
    </contour>
  </outline>
</glyph>
<glyph name="dotaccentcomb" format="1">
  <advance width="400"/>
  <unicode hex="0307"/>
  <outline>
    <contour>
      <point x="110" y="744" type="line"/>
      <point x="110" y="575" type="line"/>
      <point x="290" y="575" type="line"/>
      <point x="290" y="744" type="line"/>
    </contour>
    <contour>
      <point x="200" y="484" type="move" name="_top"/>
    </contour>
    <contour>
      <point x="200" y="685" type="move" name="top"/>
    </contour>
  </outline>
</glyph>
<glyph name="dieresiscomb" format="1">
  <advance width="400"/>
  <unicode hex="0308"/>
  <outline>
    <contour>
      <point x="224" y="574" type="line"/>
      <point x="392" y="574" type="line"/>
      <point x="392" y="743" type="line"/>
      <point x="224" y="743" type="line"/>
    </contour>
    <contour>
      <point x="8" y="574" type="line"/>
      <point x="176" y="574" type="line"/>
      <point x="176" y="743" type="line"/>
      <point x="8" y="743" type="line"/>
    </contour>
    <contour>
      <point x="200" y="484" type="move" name="_top"/>
    </contour>
    <contour>
      <point x="200" y="685" type="move" name="top"/>
    </contour>
  </outline>
</glyph>
<glyph name="hookabovecomb" format="1">
  <advance width="400"/>
  <unicode hex="0309"/>
  <outline>
    <contour>
      <point x="258" y="575" type="line" smooth="yes"/>
      <point x="258" y="623"/>
      <point x="334" y="626"/>
      <point x="334" y="697" type="curve" smooth="yes"/>
      <point x="334" y="747"/>
      <point x="288" y="775"/>
      <point x="209" y="775" type="curve" smooth="yes"/>
      <point x="154" y="775"/>
      <point x="108" y="766"/>
      <point x="73" y="748" type="curve"/>
      <point x="102" y="672" type="line"/>
      <point x="120" y="681"/>
      <point x="136" y="686"/>
      <point x="158" y="686" type="curve" smooth="yes"/>
      <point x="174" y="686"/>
      <point x="186" y="681"/>
      <point x="186" y="666" type="curve" smooth="yes"/>
      <point x="186" y="639"/>
      <point x="142" y="626"/>
      <point x="142" y="581" type="curve" smooth="yes"/>
      <point x="142" y="558" type="line"/>
      <point x="258" y="558" type="line"/>
    </contour>
    <contour>
      <point x="200" y="484" type="move" name="_top"/>
    </contour>
    <contour>
      <point x="200" y="685" type="move" name="top"/>
    </contour>
  </outline>
</glyph>
<glyph name="ringcomb" format="1">
  <advance width="400"/>
  <unicode hex="030A"/>
  <outline>
    <contour>
      <point x="200" y="554" type="curve" smooth="yes"/>
      <point x="273" y="554"/>
      <point x="330" y="608"/>
      <point x="330" y="679" type="curve" smooth="yes"/>
      <point x="330" y="750"/>
      <point x="273" y="804"/>
      <point x="200" y="804" type="curve" smooth="yes"/>
      <point x="127" y="804"/>
      <point x="70" y="750"/>
      <point x="70" y="679" type="curve" smooth="yes"/>
      <point x="70" y="608"/>
      <point x="127" y="554"/>
    </contour>
    <contour>
      <point x="200" y="626" type="curve" smooth="yes"/>
      <point x="171" y="626"/>
      <point x="148" y="648"/>
      <point x="148" y="679" type="curve" smooth="yes"/>
      <point x="148" y="710"/>
      <point x="171" y="731"/>
      <point x="200" y="731" type="curve" smooth="yes"/>
      <point x="229" y="731"/>
      <point x="252" y="710"/>
      <point x="252" y="679" type="curve" smooth="yes"/>
      <point x="252" y="648"/>
      <point x="229" y="626"/>
    </contour>
    <contour>
      <point x="200" y="484" type="move" name="_top"/>
    </contour>
    <contour>
      <point x="200" y="685" type="move" name="top"/>
    </contour>
  </outline>
</glyph>
<glyph name="hungarumlautcomb" format="1">
  <advance width="400"/>
  <unicode hex="030B"/>
  <outline>
    <contour>
      <point x="155" y="558" type="line"/>
      <point x="253" y="765" type="line"/>
      <point x="91" y="765" type="line"/>
      <point x="50" y="558" type="line"/>
    </contour>
    <contour>
      <point x="343" y="558" type="line"/>
      <point x="441" y="765" type="line"/>
      <point x="279" y="765" type="line"/>
      <point x="238" y="558" type="line"/>
    </contour>
    <contour>
      <point x="200" y="484" type="move" name="_top"/>
    </contour>
    <contour>
      <point x="200" y="685" type="move" name="top"/>
    </contour>
  </outline>
</glyph>
<glyph name="caroncomb" format="1">
  <advance width="400"/>
  <unicode hex="030C"/>
  <outline>
    <contour>
      <point x="127" y="765" type="line"/>
      <point x="3" y="765" type="line"/>
      <point x="115" y="558" type="line"/>
      <point x="285" y="558" type="line"/>
      <point x="397" y="765" type="line"/>
      <point x="273" y="765" type="line"/>
      <point x="200" y="662" type="line"/>
    </contour>
    <contour>
      <point x="200" y="484" type="move" name="_top"/>
    </contour>
    <contour>
      <point x="200" y="685" type="move" name="top"/>
    </contour>
  </outline>
</glyph>
<glyph name="dblgravecomb" format="1">
  <advance width="400"/>
  <unicode hex="030F"/>
  <outline>
    <contour>
      <point x="245" y="558" type="line"/>
      <point x="350" y="558" type="line"/>
      <point x="309" y="765" type="line"/>
      <point x="147" y="765" type="line"/>
    </contour>
    <contour>
      <point x="57" y="558" type="line"/>
      <point x="162" y="558" type="line"/>
      <point x="121" y="765" type="line"/>
      <point x="-41" y="765" type="line"/>
    </contour>
    <contour>
      <point x="200" y="484" type="move" name="_top"/>
    </contour>
    <contour>
      <point x="200" y="685" type="move" name="top"/>
    </contour>
  </outline>
</glyph>
<glyph name="breveinvertedcomb" format="1">
  <advance width="400"/>
  <unicode hex="0311"/>
  <outline>
    <contour>
      <point x="200" y="763" type="curve" smooth="yes"/>
      <point x="88" y="763"/>
      <point x="12" y="684"/>
      <point x="12" y="563" type="curve"/>
      <point x="121" y="554" type="line"/>
      <point x="126" y="614"/>
      <point x="154" y="647"/>
      <point x="200" y="647" type="curve" smooth="yes"/>
      <point x="246" y="647"/>
      <point x="274" y="614"/>
      <point x="279" y="554" type="curve"/>
      <point x="388" y="563" type="line"/>
      <point x="388" y="684"/>
      <point x="312" y="763"/>
    </contour>
    <contour>
      <point x="200" y="484" type="move" name="_top"/>
    </contour>
    <contour>
      <point x="200" y="685" type="move" name="top"/>
    </contour>
  </outline>
</glyph>
<glyph name="commaturnedabovecomb" format="1">
  <advance width="400"/>
  <unicode hex="0312"/>
  <outline>
    <contour>
      <point x="104" y="558" type="line"/>
      <point x="295" y="558" type="line"/>
      <point x="295" y="697" type="line"/>
      <point x="162" y="697" type="line"/>
      <point x="202" y="674" type="line"/>
      <point x="202" y="702"/>
      <point x="212" y="728"/>
      <point x="240" y="750" type="curve"/>
      <point x="172" y="795" type="line"/>
      <point x="120" y="752"/>
      <point x="104" y="703"/>
      <point x="104" y="638" type="curve" smooth="yes"/>
    </contour>
    <contour>
      <point x="200" y="484" type="move" name="_top"/>
    </contour>
    <contour>
      <point x="200" y="685" type="move" name="top"/>
    </contour>
  </outline>
</glyph>
<glyph name="dotbelowcomb" format="1">
  <advance width="400"/>
  <unicode hex="0323"/>
  <outline>
    <contour>
      <point x="110" y="-67" type="line"/>
      <point x="110" y="-236" type="line"/>
      <point x="290" y="-236" type="line"/>
      <point x="290" y="-67" type="line"/>
    </contour>
    <contour>
      <point x="200" y="0" type="move" name="_bottom"/>
    </contour>
    <contour>
      <point x="200" y="-170" type="move" name="bottom"/>
    </contour>
  </outline>
</glyph>
<glyph name="dieresisbelowcomb" format="1">
  <advance width="400"/>
  <unicode hex="0324"/>
  <outline>
    <contour>
      <point x="224" y="-44" type="line"/>
      <point x="224" y="-213" type="line"/>
      <point x="392" y="-213" type="line"/>
      <point x="392" y="-44" type="line"/>
    </contour>
    <contour>
      <point x="8" y="-44" type="line"/>
      <point x="8" y="-213" type="line"/>
      <point x="176" y="-213" type="line"/>
      <point x="176" y="-44" type="line"/>
    </contour>
    <contour>
      <point x="200" y="0" type="move" name="_bottom"/>
    </contour>
    <contour>
      <point x="200" y="-170" type="move" name="bottom"/>
    </contour>
  </outline>
</glyph>
<glyph name="ogonekcomb" format="1">
  <advance width="400"/>
  <unicode hex="0328"/>
  <outline>
    <contour>
      <point x="174" y="-200" type="curve" smooth="yes"/>
      <point x="212" y="-200"/>
      <point x="237" y="-196"/>
      <point x="276" y="-182" type="curve"/>
      <point x="259" y="-92" type="line"/>
      <point x="239" y="-98"/>
      <point x="225" y="-101"/>
      <point x="203" y="-101" type="curve" smooth="yes"/>
      <point x="173" y="-101"/>
      <point x="151" y="-86"/>
      <point x="151" y="-63" type="curve" smooth="yes"/>
      <point x="151" y="-40"/>
      <point x="170" y="-15"/>
      <point x="200" y="0" type="curve"/>
      <point x="146" y="52" type="line"/>
      <point x="79" y="20"/>
      <point x="32" y="-32"/>
      <point x="32" y="-94" type="curve" smooth="yes"/>
      <point x="32" y="-158"/>
      <point x="82" y="-200"/>
    </contour>
    <contour>
      <point x="200" y="0" type="move" name="_ogonek"/>
    </contour>
  </outline>
</glyph>
<glyph name="brevebelowcomb" format="1">
  <advance width="400"/>
  <unicode hex="032E"/>
  <outline>
    <contour>
      <point x="200" y="-215" type="curve" smooth="yes"/>
      <point x="312" y="-215"/>
      <point x="388" y="-152"/>
      <point x="388" y="-55" type="curve"/>
      <point x="279" y="-46" type="line"/>
      <point x="274" y="-80"/>
      <point x="246" y="-102"/>
      <point x="200" y="-102" type="curve" smooth="yes"/>
      <point x="154" y="-102"/>
      <point x="126" y="-80"/>
      <point x="121" y="-46" type="curve"/>
      <point x="12" y="-55" type="line"/>
      <point x="12" y="-152"/>
      <point x="88" y="-215"/>
    </contour>
    <contour>
      <point x="200" y="0" type="move" name="_bottom"/>
    </contour>
    <contour>
      <point x="200" y="-170" type="move" name="bottom"/>
    </contour>
  </outline>
</glyph>
<glyph name="macronbelowcomb" format="1">
  <advance width="400"/>
  <unicode hex="0331"/>
  <outline>
    <contour>
      <point x="25" y="-181" type="line"/>
      <point x="375" y="-181" type="line"/>
      <point x="375" y="-71" type="line"/>
      <point x="25" y="-71" type="line"/>
    </contour>
    <contour>
      <point x="200" y="0" type="move" name="_bottom"/>
    </contour>
    <contour>
      <point x="200" y="-170" type="move" name="bottom"/>
    </contour>
  </outline>
</glyph>
<glyph name="strokeshortcomb" format="1">
  <advance width="300"/>
  <unicode hex="0335"/>
  <outline>
    <contour>
      <point x="-84" y="540" type="line"/>
      <point x="384" y="540" type="line"/>
      <point x="384" y="680" type="line"/>
      <point x="-84" y="680" type="line"/>
    </contour>
    <contour>
      <point x="150" y="610" type="move" name="_stroke"/>
    </contour>
  </outline>
</glyph>
<glyph name="slashshortcomb" format="1">
  <advance width="407"/>
  <unicode hex="0337"/>
  <outline>
    <contour>
      <point x="52" y="181" type="line"/>
      <point x="431" y="400" type="line"/>
      <point x="355" y="536" type="line"/>
      <point x="-24" y="317" type="line"/>
    </contour>
    <contour>
      <point x="203" y="359" type="move" name="_center"/>
    </contour>
  </outline>
</glyph>
<glyph name="slashlongcomb" format="1">
  <advance width="614"/>
  <unicode hex="0338"/>
  <outline>
    <contour>
      <point x="177" y="-77" type="line"/>
      <point x="526" y="521" type="line"/>
      <point x="438" y="574" type="line"/>
      <point x="88" y="-24" type="line"/>
    </contour>
    <contour>
      <point x="307" y="250" type="move" name="_center"/>
    </contour>
  </outline>
</glyph>
<glyph name="pi" format="1">
  <advance width="677"/>
  <unicode hex="03C0"/>
  <outline>
    <contour>
      <point x="670" y="156" type="line"/>
      <point x="658" y="155"/>
      <point x="646" y="154"/>
      <point x="636" y="154" type="curve" smooth="yes"/>
      <point x="576" y="154"/>
      <point x="554" y="180"/>
      <point x="554" y="248" type="curve" smooth="yes"/>
      <point x="554" y="342" type="line"/>
      <point x="645" y="342" type="line"/>
      <point x="645" y="494" type="line"/>
      <point x="3" y="494" type="line"/>
      <point x="3" y="342" type="line"/>
      <point x="95" y="342" type="line"/>
      <point x="92" y="247"/>
      <point x="77" y="164"/>
      <point x="34" y="-2" type="curve"/>
      <point x="245" y="-2" type="line"/>
      <point x="284" y="112"/>
      <point x="299" y="206"/>
      <point x="301" y="342" type="curve"/>
      <point x="346" y="342" type="line"/>
      <point x="346" y="226" type="line" smooth="yes"/>
      <point x="346" y="77"/>
      <point x="416" y="-12"/>
      <point x="580" y="-12" type="curve" smooth="yes"/>
      <point x="603" y="-12"/>
      <point x="629" y="-10"/>
      <point x="662" y="-6" type="curve"/>
    </contour>
  </outline>
</glyph>
<glyph name="Dzhe-cy" format="1">
  <advance width="786"/>
  <unicode hex="040F"/>
  <outline>
    <contour>
      <point x="301" y="-180" type="line"/>
      <point x="486" y="-180" type="line"/>
      <point x="486" y="0" type="line"/>
      <point x="729" y="0" type="line"/>
      <point x="729" y="705" type="line"/>
      <point x="514" y="705" type="line"/>
      <point x="514" y="174" type="line"/>
      <point x="272" y="174" type="line"/>
      <point x="272" y="705" type="line"/>
      <point x="57" y="705" type="line"/>
      <point x="57" y="0" type="line"/>
      <point x="301" y="0" type="line"/>
    </contour>
  </outline>
</glyph>
<glyph name="Ge-cy" format="1">
  <advance width="591"/>
  <unicode hex="0413"/>
  <outline>
    <contour>
      <point x="57" y="0" type="line"/>
      <point x="272" y="0" type="line"/>
      <point x="272" y="531" type="line"/>
      <point x="572" y="531" type="line"/>
      <point x="572" y="705" type="line"/>
      <point x="57" y="705" type="line"/>
    </contour>
    <contour>
      <point x="71" y="0" type="move" name="bottomright"/>
    </contour>
    <contour>
      <point x="176" y="359" type="move" name="stroke"/>
    </contour>
    <contour>
      <point x="285" y="705" type="move" name="top"/>
    </contour>
  </outline>
</glyph>
<glyph name="Ie-cy" format="1">
  <advance width="624"/>
  <unicode hex="0415"/>
  <outline>
    <component base="E"/>
    <contour>
      <point x="336" y="705" type="move" name="top"/>
    </contour>
  </outline>
</glyph>
<glyph name="Zhe-cy" format="1">
  <advance width="1100"/>
  <unicode hex="0416"/>
  <outline>
    <contour>
      <point x="982" y="262" type="line" smooth="yes"/>
      <point x="936" y="356"/>
      <point x="875" y="405"/>
      <point x="778" y="425" type="curve"/>
      <point x="865" y="369" type="line"/>
      <point x="1075" y="705" type="line"/>
      <point x="842" y="705" type="line"/>
      <point x="675" y="414" type="line"/>
      <point x="702" y="433" type="line"/>
      <point x="653" y="433" type="line"/>
      <point x="653" y="705" type="line"/>
      <point x="448" y="705" type="line"/>
      <point x="448" y="433" type="line"/>
      <point x="399" y="433" type="line"/>
      <point x="426" y="414" type="line"/>
      <point x="258" y="705" type="line"/>
      <point x="25" y="705" type="line"/>
      <point x="235" y="369" type="line"/>
      <point x="322" y="425" type="line"/>
      <point x="226" y="405"/>
      <point x="166" y="357"/>
      <point x="119" y="262" type="curve" smooth="yes"/>
      <point x="-9" y="0" type="line"/>
      <point x="223" y="0" type="line"/>
      <point x="312" y="195" type="line" smooth="yes"/>
      <point x="333" y="241"/>
      <point x="362" y="259"/>
      <point x="417" y="259" type="curve" smooth="yes"/>
      <point x="448" y="259" type="line"/>
      <point x="448" y="0" type="line"/>
      <point x="653" y="0" type="line"/>
      <point x="653" y="259" type="line"/>
      <point x="683" y="259" type="line" smooth="yes"/>
      <point x="738" y="259"/>
      <point x="768" y="241"/>
      <point x="789" y="195" type="curve" smooth="yes"/>
      <point x="877" y="0" type="line"/>
      <point x="1109" y="0" type="line"/>
    </contour>
    <contour>
      <point x="877" y="0" type="move" name="bottomright"/>
    </contour>
    <contour>
      <point x="550" y="705" type="move" name="top"/>
    </contour>
  </outline>
</glyph>
<glyph name="Ii-cy" format="1">
  <advance width="763"/>
  <unicode hex="0418"/>
  <outline>
    <contour>
      <point x="57" y="0" type="line"/>
      <point x="214" y="0" type="line"/>
      <point x="531" y="390" type="line"/>
      <point x="506" y="390" type="line"/>
      <point x="506" y="0" type="line"/>
      <point x="706" y="0" type="line"/>
      <point x="706" y="705" type="line"/>
      <point x="549" y="705" type="line"/>
      <point x="232" y="315" type="line"/>
      <point x="257" y="315" type="line"/>
      <point x="257" y="705" type="line"/>
      <point x="57" y="705" type="line"/>
    </contour>
    <contour>
      <point x="506" y="0" type="move" name="bottomright"/>
    </contour>
    <contour>
      <point x="382" y="705" type="move" name="top"/>
    </contour>
  </outline>
</glyph>
<glyph name="Ka-cy" format="1">
  <advance width="739"/>
  <unicode hex="041A"/>
  <outline>
    <contour>
      <point x="621" y="262" type="line" smooth="yes"/>
      <point x="575" y="356"/>
      <point x="514" y="405"/>
      <point x="417" y="425" type="curve"/>
      <point x="504" y="369" type="line"/>
      <point x="714" y="705" type="line"/>
      <point x="481" y="705" type="line"/>
      <point x="314" y="414" type="line"/>
      <point x="341" y="433" type="line"/>
      <point x="272" y="433" type="line"/>
      <point x="272" y="705" type="line"/>
      <point x="57" y="705" type="line"/>
      <point x="57" y="0" type="line"/>
      <point x="272" y="0" type="line"/>
      <point x="272" y="259" type="line"/>
      <point x="322" y="259" type="line" smooth="yes"/>
      <point x="377" y="259"/>
      <point x="407" y="241"/>
      <point x="428" y="195" type="curve" smooth="yes"/>
      <point x="516" y="0" type="line"/>
      <point x="748" y="0" type="line"/>
    </contour>
    <contour>
      <point x="516" y="0" type="move" name="bottomright"/>
    </contour>
    <contour>
      <point x="381" y="353" type="move" name="center"/>
    </contour>
    <contour>
      <point x="362" y="705" type="move" name="top"/>
    </contour>
    <contour>
      <point x="272" y="705" type="move" name="topleft"/>
    </contour>
  </outline>
</glyph>
<glyph name="En-cy" format="1">
  <advance width="794"/>
  <unicode hex="041D"/>
  <outline>
    <component base="H"/>
    <contour>
      <point x="522" y="0" type="move" name="bottomright"/>
    </contour>
  </outline>
</glyph>
<glyph name="O-cy" format="1">
  <advance width="820"/>
  <unicode hex="041E"/>
  <outline>
    <component base="O"/>
    <contour>
      <point x="404" y="353" type="move" name="center"/>
    </contour>
    <contour>
      <point x="404" y="705" type="move" name="top"/>
    </contour>
  </outline>
</glyph>
<glyph name="Pe-cy" format="1">
  <advance width="786"/>
  <unicode hex="041F"/>
  <outline>
    <contour>
      <point x="57" y="0" type="line"/>
      <point x="272" y="0" type="line"/>
      <point x="272" y="531" type="line"/>
      <point x="514" y="531" type="line"/>
      <point x="514" y="0" type="line"/>
      <point x="729" y="0" type="line"/>
      <point x="729" y="705" type="line"/>
      <point x="57" y="705" type="line"/>
    </contour>
    <contour>
      <point x="514" y="0" type="move" name="bottomright"/>
    </contour>
  </outline>
</glyph>
<glyph name="U-cy" format="1">
  <advance width="693"/>
  <unicode hex="0423"/>
  <outline>
    <contour>
      <point x="503" y="705" type="line"/>
      <point x="341" y="380" type="line"/>
      <point x="376" y="380" type="line"/>
      <point x="188" y="705" type="line"/>
      <point x="-37" y="705" type="line"/>
      <point x="272" y="191" type="line"/>
      <point x="272" y="247" type="line"/>
      <point x="149" y="0" type="line"/>
      <point x="369" y="0" type="line"/>
      <point x="723" y="705" type="line"/>
    </contour>
    <contour>
      <point x="352" y="705" type="move" name="top"/>
    </contour>
  </outline>
</glyph>
<glyph name="Ha-cy" format="1">
  <advance width="713"/>
  <unicode hex="0425"/>
  <outline>
    <component base="X"/>
    <contour>
      <point x="497" y="0" type="move" name="bottomright"/>
    </contour>
    <contour>
      <point x="350" y="363" type="move" name="center"/>
    </contour>
  </outline>
</glyph>
<glyph name="Tse-cy" format="1">
  <advance width="851"/>
  <unicode hex="0426"/>
  <outline>
    <contour>
      <point x="644" y="-180" type="line"/>
      <point x="829" y="-180" type="line"/>
      <point x="829" y="172" type="line"/>
      <point x="729" y="172" type="line"/>
      <point x="729" y="705" type="line"/>
      <point x="514" y="705" type="line"/>
      <point x="514" y="174" type="line"/>
      <point x="272" y="174" type="line"/>
      <point x="272" y="705" type="line"/>
      <point x="57" y="705" type="line"/>
      <point x="57" y="0" type="line"/>
      <point x="644" y="0" type="line"/>
    </contour>
  </outline>
</glyph>
<glyph name="Ereversed-cy" format="1">
  <advance width="692"/>
  <unicode hex="042D"/>
  <outline>
    <contour>
      <point x="255" y="175" type="curve" smooth="yes"/>
      <point x="199" y="175"/>
      <point x="143" y="193"/>
      <point x="85" y="232" type="curve"/>
      <point x="23" y="63" type="line"/>
      <point x="75" y="19"/>
      <point x="171" y="-12"/>
      <point x="263" y="-12" type="curve" smooth="yes"/>
      <point x="505" y="-12"/>
      <point x="651" y="133"/>
      <point x="651" y="353" type="curve" smooth="yes"/>
      <point x="651" y="572"/>
      <point x="505" y="717"/>
      <point x="273" y="717" type="curve" smooth="yes"/>
      <point x="181" y="717"/>
      <point x="85" y="686"/>
      <point x="23" y="642" type="curve"/>
      <point x="85" y="473" type="line"/>
      <point x="153" y="516"/>
      <point x="209" y="530"/>
      <point x="265" y="530" type="curve" smooth="yes"/>
      <point x="351" y="530"/>
      <point x="414" y="484"/>
      <point x="426" y="392" type="curve"/>
      <point x="482" y="441" type="line"/>
      <point x="168" y="441" type="line"/>
      <point x="168" y="277" type="line"/>
      <point x="485" y="277" type="line"/>
      <point x="428" y="329" type="line"/>
      <point x="416" y="218"/>
      <point x="351" y="175"/>
    </contour>
    <contour>
      <point x="317" y="0" type="move" name="bottom"/>
    </contour>
    <contour>
      <point x="317" y="705" type="move" name="top"/>
    </contour>
  </outline>
</glyph>
<glyph name="a-cy" format="1">
  <advance width="598"/>
  <unicode hex="0430"/>
  <outline>
    <component base="a" xOffset="8"/>
    <contour>
      <point x="283" y="484" type="move" name="top"/>
    </contour>
  </outline>
</glyph>
<glyph name="be-cy" format="1">
  <advance width="636"/>
  <unicode hex="0431"/>
  <outline>
    <contour>
      <point x="327" y="-12" type="curve" smooth="yes"/>
      <point x="489" y="-12"/>
      <point x="602" y="86"/>
      <point x="602" y="242" type="curve" smooth="yes"/>
      <point x="602" y="388"/>
      <point x="509" y="475"/>
      <point x="394" y="475" type="curve" smooth="yes"/>
      <point x="271" y="475"/>
      <point x="216" y="396"/>
      <point x="203" y="314" type="curve"/>
      <point x="228" y="314" type="line"/>
      <point x="228" y="394" type="line" smooth="yes"/>
      <point x="228" y="474"/>
      <point x="278" y="517"/>
      <point x="364" y="532" type="curve" smooth="yes"/>
      <point x="571" y="569" type="line"/>
      <point x="516" y="729" type="line"/>
      <point x="347" y="698" type="line" smooth="yes"/>
      <point x="144" y="661"/>
      <point x="34" y="558"/>
      <point x="34" y="354" type="curve" smooth="yes"/>
      <point x="34" y="286" type="line" smooth="yes"/>
      <point x="34" y="86"/>
      <point x="147" y="-12"/>
    </contour>
    <contour>
      <point x="319" y="140" type="curve" smooth="yes"/>
      <point x="269" y="140"/>
      <point x="243" y="171"/>
      <point x="243" y="231" type="curve" smooth="yes"/>
      <point x="243" y="292"/>
      <point x="269" y="324"/>
      <point x="318" y="324" type="curve" smooth="yes"/>
      <point x="367" y="324"/>
      <point x="393" y="292"/>
      <point x="393" y="231" type="curve" smooth="yes"/>
      <point x="393" y="170"/>
      <point x="368" y="140"/>
    </contour>
  </outline>
</glyph>
<glyph name="ge-cy" format="1">
  <advance width="500"/>
  <unicode hex="0433"/>
  <outline>
    <contour>
      <point x="54" y="0" type="line"/>
      <point x="262" y="0" type="line"/>
      <point x="262" y="334" type="line"/>
      <point x="479" y="334" type="line"/>
      <point x="479" y="494" type="line"/>
      <point x="54" y="494" type="line"/>
    </contour>
    <contour>
      <point x="73" y="0" type="move" name="bottomright"/>
    </contour>
    <contour>
      <point x="194" y="248" type="move" name="center"/>
    </contour>
    <contour>
      <point x="247" y="484" type="move" name="top"/>
    </contour>
  </outline>
</glyph>
<glyph name="de-cy" format="1">
  <advance width="667"/>
  <unicode hex="0434"/>
  <outline>
    <contour>
      <point x="25" y="-130" type="line"/>
      <point x="200" y="-130" type="line"/>
      <point x="200" y="0" type="line"/>
      <point x="483" y="0" type="line"/>
      <point x="483" y="-130" type="line"/>
      <point x="658" y="-130" type="line"/>
      <point x="658" y="157" type="line"/>
      <point x="573" y="157" type="line"/>
      <point x="573" y="494" type="line"/>
      <point x="123" y="494" type="line"/>
      <point x="123" y="364" type="line" smooth="yes"/>
      <point x="123" y="258"/>
      <point x="114" y="205"/>
      <point x="90" y="157" type="curve"/>
      <point x="25" y="157" type="line"/>
    </contour>
    <contour>
      <point x="268" y="156" type="line"/>
      <point x="286" y="193"/>
      <point x="296" y="253"/>
      <point x="296" y="305" type="curve" smooth="yes"/>
      <point x="296" y="338" type="line"/>
      <point x="380" y="338" type="line"/>
      <point x="380" y="156" type="line"/>
    </contour>
  </outline>
</glyph>
<glyph name="ie-cy" format="1">
  <advance width="583"/>
  <unicode hex="0435"/>
  <outline>
    <component base="e" xOffset="10"/>
    <contour>
      <point x="303" y="484" type="move" name="top"/>
    </contour>
  </outline>
</glyph>
<glyph name="zhe-cy" format="1">
  <advance width="908"/>
  <unicode hex="0436"/>
  <outline>
    <contour>
      <point x="817" y="208" type="line" smooth="yes"/>
      <point x="796" y="248"/>
      <point x="752" y="292"/>
      <point x="701" y="299" type="curve"/>
      <point x="737" y="232" type="line"/>
      <point x="909" y="494" type="line"/>
      <point x="690" y="494" type="line"/>
      <point x="582" y="329" type="line"/>
      <point x="558" y="329" type="line"/>
      <point x="558" y="494" type="line"/>
      <point x="350" y="494" type="line"/>
      <point x="350" y="329" type="line"/>
      <point x="326" y="329" type="line"/>
      <point x="218" y="494" type="line"/>
      <point x="-1" y="494" type="line"/>
      <point x="171" y="232" type="line"/>
      <point x="207" y="299" type="line"/>
      <point x="156" y="292"/>
      <point x="112" y="248"/>
      <point x="91" y="208" type="curve" smooth="yes"/>
      <point x="-17" y="0" type="line"/>
      <point x="204" y="0" type="line"/>
      <point x="275" y="137" type="line" smooth="yes"/>
      <point x="288" y="162"/>
      <point x="303" y="171"/>
      <point x="324" y="171" type="curve" smooth="yes"/>
      <point x="350" y="171" type="line"/>
      <point x="350" y="0" type="line"/>
      <point x="558" y="0" type="line"/>
      <point x="558" y="171" type="line"/>
      <point x="584" y="171" type="line" smooth="yes"/>
      <point x="605" y="171"/>
      <point x="620" y="162"/>
      <point x="633" y="137" type="curve" smooth="yes"/>
      <point x="704" y="0" type="line"/>
      <point x="925" y="0" type="line"/>
    </contour>
    <contour>
      <point x="724" y="0" type="move" name="bottomright"/>
    </contour>
    <contour>
      <point x="454" y="484" type="move" name="top"/>
    </contour>
  </outline>
</glyph>
<glyph name="ze-cy" format="1">
  <advance width="562"/>
  <unicode hex="0437"/>
  <outline>
    <contour>
      <point x="272" y="-12" type="curve" smooth="yes"/>
      <point x="437" y="-12"/>
      <point x="538" y="46"/>
      <point x="538" y="141" type="curve" smooth="yes"/>
      <point x="538" y="216"/>
      <point x="496" y="256"/>
      <point x="408" y="266" type="curve"/>
      <point x="408" y="249" type="line"/>
      <point x="476" y="262"/>
      <point x="518" y="306"/>
      <point x="518" y="365" type="curve" smooth="yes"/>
      <point x="518" y="454"/>
      <point x="432" y="506"/>
      <point x="285" y="506" type="curve" smooth="yes"/>
      <point x="177" y="506"/>
      <point x="86" y="485"/>
      <point x="30" y="456" type="curve"/>
      <point x="78" y="319" type="line"/>
      <point x="122" y="336"/>
      <point x="176" y="352"/>
      <point x="253" y="352" type="curve" smooth="yes"/>
      <point x="316" y="352"/>
      <point x="333" y="343"/>
      <point x="333" y="333" type="curve" smooth="yes"/>
      <point x="333" y="324"/>
      <point x="324" y="319"/>
      <point x="305" y="319" type="curve" smooth="yes"/>
      <point x="152" y="319" type="line"/>
      <point x="152" y="180" type="line"/>
      <point x="321" y="180" type="line" smooth="yes"/>
      <point x="343" y="180"/>
      <point x="353" y="176"/>
      <point x="353" y="167" type="curve" smooth="yes"/>
      <point x="353" y="149"/>
      <point x="324" y="143"/>
      <point x="277" y="143" type="curve" smooth="yes"/>
      <point x="200" y="143"/>
      <point x="117" y="159"/>
      <point x="70" y="182" type="curve"/>
      <point x="24" y="40" type="line"/>
      <point x="88" y="4"/>
      <point x="176" y="-12"/>
    </contour>
    <contour>
      <point x="289" y="0" type="move" name="bottom"/>
    </contour>
    <contour>
      <point x="289" y="484" type="move" name="top"/>
    </contour>
  </outline>
</glyph>
<glyph name="ii-cy" format="1">
  <advance width="642"/>
  <unicode hex="0438"/>
  <outline>
    <contour>
      <point x="54" y="0" type="line"/>
      <point x="224" y="0" type="line"/>
      <point x="430" y="271" type="line"/>
      <point x="401" y="271" type="line"/>
      <point x="401" y="0" type="line"/>
      <point x="588" y="0" type="line"/>
      <point x="588" y="494" type="line"/>
      <point x="418" y="494" type="line"/>
      <point x="212" y="223" type="line"/>
      <point x="241" y="223" type="line"/>
      <point x="241" y="494" type="line"/>
      <point x="54" y="494" type="line"/>
    </contour>
    <contour>
      <point x="401" y="0" type="move" name="bottomright"/>
    </contour>
    <contour>
      <point x="321" y="484" type="move" name="top"/>
    </contour>
  </outline>
</glyph>
<glyph name="ka-cy" format="1">
  <advance width="622"/>
  <unicode hex="043A"/>
  <outline>
    <contour>
      <point x="531" y="208" type="line" smooth="yes"/>
      <point x="510" y="248"/>
      <point x="466" y="292"/>
      <point x="415" y="299" type="curve"/>
      <point x="451" y="232" type="line"/>
      <point x="623" y="494" type="line"/>
      <point x="404" y="494" type="line"/>
      <point x="296" y="329" type="line"/>
      <point x="262" y="329" type="line"/>
      <point x="262" y="494" type="line"/>
      <point x="54" y="494" type="line"/>
      <point x="54" y="0" type="line"/>
      <point x="262" y="0" type="line"/>
      <point x="262" y="171" type="line"/>
      <point x="298" y="171" type="line" smooth="yes"/>
      <point x="319" y="171"/>
      <point x="334" y="162"/>
      <point x="347" y="137" type="curve" smooth="yes"/>
      <point x="418" y="0" type="line"/>
      <point x="639" y="0" type="line"/>
    </contour>
    <contour>
      <point x="438" y="0" type="move" name="bottomright"/>
    </contour>
    <contour>
      <point x="306" y="248" type="move" name="center"/>
    </contour>
    <contour>
      <point x="339" y="484" type="move" name="top"/>
    </contour>
  </outline>
</glyph>
<glyph name="el-cy" format="1">
  <advance width="639"/>
  <unicode hex="043B"/>
  <outline>
    <contour>
      <point x="67" y="-18" type="line"/>
      <point x="227" y="-8"/>
      <point x="303" y="108"/>
      <point x="303" y="285" type="curve" smooth="yes"/>
      <point x="303" y="336" type="line"/>
      <point x="377" y="336" type="line"/>
      <point x="377" y="0" type="line"/>
      <point x="585" y="0" type="line"/>
      <point x="585" y="494" type="line"/>
      <point x="115" y="494" type="line"/>
      <point x="115" y="292" type="line" smooth="yes"/>
      <point x="115" y="203"/>
      <point x="83" y="154"/>
      <point x="11" y="146" type="curve"/>
    </contour>
    <contour>
      <point x="396" y="0" type="move" name="bottomright"/>
    </contour>
  </outline>
</glyph>
<glyph name="em-cy" format="1">
  <advance width="734"/>
  <unicode hex="043C"/>
  <outline>
    <contour>
      <point x="54" y="0" type="line"/>
      <point x="236" y="0" type="line"/>
      <point x="236" y="253" type="line"/>
      <point x="209" y="253" type="line"/>
      <point x="321" y="82" type="line"/>
      <point x="413" y="82" type="line"/>
      <point x="525" y="253" type="line"/>
      <point x="498" y="253" type="line"/>
      <point x="498" y="0" type="line"/>
      <point x="680" y="0" type="line"/>
      <point x="680" y="494" type="line"/>
      <point x="510" y="494" type="line"/>
      <point x="368" y="273" type="line"/>
      <point x="224" y="494" type="line"/>
      <point x="54" y="494" type="line"/>
    </contour>
    <contour>
      <point x="498" y="0" type="move" name="bottomright"/>
    </contour>
  </outline>
</glyph>
<glyph name="en-cy" format="1">
  <advance width="647"/>
  <unicode hex="043D"/>
  <outline>
    <contour>
      <point x="385" y="494" type="line"/>
      <point x="385" y="329" type="line"/>
      <point x="262" y="329" type="line"/>
      <point x="262" y="494" type="line"/>
      <point x="54" y="494" type="line"/>
      <point x="54" y="0" type="line"/>
      <point x="262" y="0" type="line"/>
      <point x="262" y="171" type="line"/>
      <point x="385" y="171" type="line"/>
      <point x="385" y="0" type="line"/>
      <point x="593" y="0" type="line"/>
      <point x="593" y="494" type="line"/>
    </contour>
    <contour>
      <point x="404" y="0" type="move" name="bottomright"/>
    </contour>
  </outline>
</glyph>
<glyph name="o-cy" format="1">
  <advance width="636"/>
  <unicode hex="043E"/>
  <outline>
    <component base="o" xOffset="10"/>
    <contour>
      <point x="318" y="250" type="move" name="center"/>
    </contour>
    <contour>
      <point x="318" y="484" type="move" name="top"/>
    </contour>
  </outline>
</glyph>
<glyph name="pe-cy" format="1">
  <advance width="644"/>
  <unicode hex="043F"/>
  <outline>
    <contour>
      <point x="54" y="0" type="line"/>
      <point x="262" y="0" type="line"/>
      <point x="262" y="336" type="line"/>
      <point x="382" y="336" type="line"/>
      <point x="382" y="0" type="line"/>
      <point x="590" y="0" type="line"/>
      <point x="590" y="494" type="line"/>
      <point x="54" y="494" type="line"/>
    </contour>
    <contour>
      <point x="382" y="0" type="move" name="bottomright"/>
    </contour>
  </outline>
</glyph>
<glyph name="es-cy" format="1">
  <advance width="506"/>
  <unicode hex="0441"/>
  <outline>
    <component base="c" xOffset="10"/>
    <contour>
      <point x="299" y="0" type="move" name="bottom"/>
    </contour>
    <contour>
      <point x="275" y="0" type="move" name="bottomright"/>
    </contour>
  </outline>
</glyph>
<glyph name="te-cy" format="1">
  <advance width="528"/>
  <unicode hex="0442"/>
  <outline>
    <contour>
      <point x="160" y="0" type="line"/>
      <point x="368" y="0" type="line"/>
      <point x="368" y="332" type="line"/>
      <point x="518" y="332" type="line"/>
      <point x="518" y="494" type="line"/>
      <point x="10" y="494" type="line"/>
      <point x="10" y="332" type="line"/>
      <point x="160" y="332" type="line"/>
    </contour>
    <contour>
      <point x="160" y="0" type="move" name="bottomright"/>
    </contour>
  </outline>
</glyph>
<glyph name="u-cy" format="1">
  <advance width="569"/>
  <unicode hex="0443"/>
  <outline>
    <component base="y" xOffset="10"/>
    <contour>
      <point x="275" y="484" type="move" name="top"/>
    </contour>
  </outline>
</glyph>
<glyph name="ef-cy" format="1">
  <advance width="920"/>
  <unicode hex="0444"/>
  <outline>
    <contour>
      <point x="356" y="-180" type="line"/>
      <point x="564" y="-180" type="line"/>
      <point x="564" y="67" type="line"/>
      <point x="552" y="67" type="line"/>
      <point x="576" y="15"/>
      <point x="628" y="-12"/>
      <point x="690" y="-12" type="curve" smooth="yes"/>
      <point x="802" y="-12"/>
      <point x="886" y="90"/>
      <point x="886" y="247" type="curve" smooth="yes"/>
      <point x="886" y="406"/>
      <point x="802" y="506"/>
      <point x="690" y="506" type="curve" smooth="yes"/>
      <point x="626" y="506"/>
      <point x="573" y="477"/>
      <point x="552" y="427" type="curve"/>
      <point x="564" y="427" type="line"/>
      <point x="564" y="666" type="line"/>
      <point x="356" y="666" type="line"/>
      <point x="356" y="427" type="line"/>
      <point x="368" y="427" type="line"/>
      <point x="344" y="479"/>
      <point x="292" y="506"/>
      <point x="230" y="506" type="curve" smooth="yes"/>
      <point x="117" y="506"/>
      <point x="34" y="407"/>
      <point x="34" y="247" type="curve" smooth="yes"/>
      <point x="34" y="88"/>
      <point x="118" y="-12"/>
      <point x="230" y="-12" type="curve" smooth="yes"/>
      <point x="294" y="-12"/>
      <point x="347" y="17"/>
      <point x="368" y="67" type="curve"/>
      <point x="356" y="67" type="line"/>
    </contour>
    <contour>
      <point x="300" y="138" type="curve" smooth="yes"/>
      <point x="267" y="138"/>
      <point x="242" y="167"/>
      <point x="242" y="248" type="curve" smooth="yes"/>
      <point x="242" y="330"/>
      <point x="266" y="356"/>
      <point x="300" y="356" type="curve" smooth="yes"/>
      <point x="333" y="356"/>
      <point x="359" y="330"/>
      <point x="359" y="248" type="curve" smooth="yes"/>
      <point x="359" y="167"/>
      <point x="334" y="138"/>
    </contour>
    <contour>
      <point x="619" y="138" type="curve" smooth="yes"/>
      <point x="586" y="138"/>
      <point x="561" y="167"/>
      <point x="561" y="248" type="curve" smooth="yes"/>
      <point x="561" y="330"/>
      <point x="585" y="356"/>
      <point x="619" y="356" type="curve" smooth="yes"/>
      <point x="652" y="356"/>
      <point x="678" y="330"/>
      <point x="678" y="248" type="curve" smooth="yes"/>
      <point x="678" y="167"/>
      <point x="653" y="138"/>
    </contour>
  </outline>
</glyph>
<glyph name="ha-cy" format="1">
  <advance width="607"/>
  <unicode hex="0445"/>
  <outline>
    <component base="x" xOffset="10"/>
    <contour>
      <point x="400" y="0" type="move" name="bottomright"/>
    </contour>
    <contour>
      <point x="279" y="248" type="move" name="center"/>
    </contour>
  </outline>
</glyph>
<glyph name="tse-cy" format="1">
  <advance width="671"/>
  <unicode hex="0446"/>
  <outline>
    <contour>
      <point x="487" y="-130" type="line"/>
      <point x="662" y="-130" type="line"/>
      <point x="662" y="158" type="line"/>
      <point x="577" y="158" type="line"/>
      <point x="577" y="494" type="line"/>
      <point x="369" y="494" type="line"/>
      <point x="369" y="158" type="line"/>
      <point x="262" y="158" type="line"/>
      <point x="262" y="494" type="line"/>
      <point x="54" y="494" type="line"/>
      <point x="54" y="0" type="line"/>
      <point x="487" y="0" type="line"/>
    </contour>
  </outline>
</glyph>
<glyph name="sha-cy" format="1">
  <advance width="893"/>
  <unicode hex="0448"/>
  <outline>
    <contour>
      <point x="54" y="0" type="line"/>
      <point x="839" y="0" type="line"/>
      <point x="839" y="494" type="line"/>
      <point x="646" y="494" type="line"/>
      <point x="646" y="158" type="line"/>
      <point x="543" y="158" type="line"/>
      <point x="543" y="494" type="line"/>
      <point x="350" y="494" type="line"/>
      <point x="350" y="158" type="line"/>
      <point x="247" y="158" type="line"/>
      <point x="247" y="494" type="line"/>
      <point x="54" y="494" type="line"/>
    </contour>
  </outline>
</glyph>
<glyph name="shcha-cy" format="1">
  <advance width="933"/>
  <unicode hex="0449"/>
  <outline>
    <contour>
      <point x="749" y="-130" type="line"/>
      <point x="924" y="-130" type="line"/>
      <point x="924" y="158" type="line"/>
      <point x="839" y="158" type="line"/>
      <point x="839" y="494" type="line"/>
      <point x="646" y="494" type="line"/>
      <point x="646" y="158" type="line"/>
      <point x="543" y="158" type="line"/>
      <point x="543" y="494" type="line"/>
      <point x="350" y="494" type="line"/>
      <point x="350" y="158" type="line"/>
      <point x="247" y="158" type="line"/>
      <point x="247" y="494" type="line"/>
      <point x="54" y="494" type="line"/>
      <point x="54" y="0" type="line"/>
      <point x="749" y="0" type="line"/>
    </contour>
  </outline>
</glyph>
<glyph name="hardsign-cy" format="1">
  <advance width="670"/>
  <unicode hex="044A"/>
  <outline>
    <contour>
      <point x="140" y="0" type="line"/>
      <point x="442" y="0" type="line" smooth="yes"/>
      <point x="565" y="0"/>
      <point x="652" y="76"/>
      <point x="652" y="182" type="curve" smooth="yes"/>
      <point x="652" y="297"/>
      <point x="582" y="354"/>
      <point x="442" y="354" type="curve" smooth="yes"/>
      <point x="348" y="354" type="line"/>
      <point x="348" y="494" type="line"/>
      <point x="10" y="494" type="line"/>
      <point x="10" y="332" type="line"/>
      <point x="140" y="332" type="line"/>
    </contour>
    <contour>
      <point x="348" y="129" type="line"/>
      <point x="348" y="225" type="line"/>
      <point x="402" y="225" type="line" smooth="yes"/>
      <point x="443" y="225"/>
      <point x="464" y="212"/>
      <point x="464" y="179" type="curve" smooth="yes"/>
      <point x="464" y="146"/>
      <point x="440" y="129"/>
      <point x="402" y="129" type="curve" smooth="yes"/>
    </contour>
  </outline>
</glyph>
<glyph name="softsign-cy" format="1">
  <advance width="584"/>
  <unicode hex="044C"/>
  <outline>
    <contour>
      <point x="54" y="0" type="line"/>
      <point x="356" y="0" type="line" smooth="yes"/>
      <point x="479" y="0"/>
      <point x="566" y="76"/>
      <point x="566" y="182" type="curve" smooth="yes"/>
      <point x="566" y="297"/>
      <point x="496" y="354"/>
      <point x="356" y="354" type="curve" smooth="yes"/>
      <point x="262" y="354" type="line"/>
      <point x="262" y="494" type="line"/>
      <point x="54" y="494" type="line"/>
    </contour>
    <contour>
      <point x="262" y="129" type="line"/>
      <point x="262" y="225" type="line"/>
      <point x="316" y="225" type="line" smooth="yes"/>
      <point x="357" y="225"/>
      <point x="378" y="212"/>
      <point x="378" y="179" type="curve" smooth="yes"/>
      <point x="378" y="146"/>
      <point x="354" y="129"/>
      <point x="316" y="129" type="curve" smooth="yes"/>
    </contour>
  </outline>
</glyph>
<glyph name="ereversed-cy" format="1">
  <advance width="572"/>
  <unicode hex="044D"/>
  <outline>
    <contour>
      <point x="240" y="-12" type="curve" smooth="yes"/>
      <point x="420" y="-12"/>
      <point x="538" y="86"/>
      <point x="538" y="247" type="curve" smooth="yes"/>
      <point x="538" y="408"/>
      <point x="420" y="506"/>
      <point x="240" y="506" type="curve" smooth="yes"/>
      <point x="165" y="506"/>
      <point x="85" y="487"/>
      <point x="34" y="453" type="curve"/>
      <point x="86" y="318" type="line"/>
      <point x="117" y="338"/>
      <point x="163" y="351"/>
      <point x="210" y="351" type="curve" smooth="yes"/>
      <point x="280" y="351"/>
      <point x="312" y="325"/>
      <point x="326" y="280" type="curve"/>
      <point x="342" y="320" type="line"/>
      <point x="144" y="320" type="line"/>
      <point x="144" y="178" type="line"/>
      <point x="342" y="178" type="line"/>
      <point x="326" y="220" type="line"/>
      <point x="317" y="173"/>
      <point x="281" y="143"/>
      <point x="210" y="143" type="curve" smooth="yes"/>
      <point x="163" y="143"/>
      <point x="117" y="157"/>
      <point x="86" y="177" type="curve"/>
      <point x="34" y="42" type="line"/>
      <point x="83" y="6"/>
      <point x="160" y="-12"/>
    </contour>
    <contour>
      <point x="266" y="484" type="move" name="top"/>
    </contour>
  </outline>
</glyph>
<glyph name="iu-cy" format="1">
  <advance width="905"/>
  <unicode hex="044E"/>
  <outline>
    <contour>
      <point x="587" y="-12" type="curve" smooth="yes"/>
      <point x="758" y="-12"/>
      <point x="871" y="86"/>
      <point x="871" y="247" type="curve" smooth="yes"/>
      <point x="871" y="408"/>
      <point x="758" y="506"/>
      <point x="587" y="506" type="curve" smooth="yes"/>
      <point x="447" y="506"/>
      <point x="346" y="441"/>
      <point x="314" y="329" type="curve"/>
      <point x="257" y="329" type="line"/>
      <point x="257" y="494" type="line"/>
      <point x="54" y="494" type="line"/>
      <point x="54" y="0" type="line"/>
      <point x="257" y="0" type="line"/>
      <point x="257" y="171" type="line"/>
      <point x="313" y="171" type="line"/>
      <point x="343" y="56"/>
      <point x="444" y="-12"/>
    </contour>
    <contour>
      <point x="587" y="140" type="curve" smooth="yes"/>
      <point x="544" y="140"/>
      <point x="512" y="168"/>
      <point x="512" y="247" type="curve" smooth="yes"/>
      <point x="512" y="326"/>
      <point x="544" y="354"/>
      <point x="587" y="354" type="curve" smooth="yes"/>
      <point x="630" y="354"/>
      <point x="662" y="326"/>
      <point x="662" y="247" type="curve" smooth="yes"/>
      <point x="662" y="168"/>
      <point x="630" y="140"/>
    </contour>
  </outline>
</glyph>
<glyph name="ia-cy" format="1">
  <advance width="592"/>
  <unicode hex="044F"/>
  <outline>
    <contour>
      <point x="8" y="0" type="line"/>
      <point x="240" y="0" type="line"/>
      <point x="300" y="107" type="line" smooth="yes"/>
      <point x="311" y="126"/>
      <point x="328" y="138"/>
      <point x="341" y="138" type="curve" smooth="yes"/>
      <point x="358" y="138" type="line"/>
      <point x="358" y="0" type="line"/>
      <point x="538" y="0" type="line"/>
      <point x="538" y="494" type="line"/>
      <point x="243" y="494" type="line" smooth="yes"/>
      <point x="109" y="494"/>
      <point x="33" y="435"/>
      <point x="33" y="331" type="curve" smooth="yes"/>
      <point x="33" y="228"/>
      <point x="95" y="178"/>
      <point x="223" y="178" type="curve"/>
      <point x="223" y="193" type="line"/>
      <point x="188" y="193" type="line" smooth="yes"/>
      <point x="145" y="193"/>
      <point x="102" y="164"/>
      <point x="76" y="118" type="curve" smooth="yes"/>
    </contour>
    <contour>
      <point x="289" y="267" type="line" smooth="yes"/>
      <point x="249" y="267"/>
      <point x="227" y="285"/>
      <point x="227" y="316" type="curve" smooth="yes"/>
      <point x="227" y="347"/>
      <point x="249" y="365"/>
      <point x="289" y="365" type="curve" smooth="yes"/>
      <point x="359" y="365" type="line"/>
      <point x="359" y="267" type="line"/>
    </contour>
  </outline>
</glyph>
<glyph name="e-cy" format="1">
  <advance width="547"/>
  <unicode hex="0454"/>
  <outline>
    <contour>
      <point x="332" y="-12" type="curve" smooth="yes"/>
      <point x="412" y="-12"/>
      <point x="489" y="6"/>
      <point x="538" y="42" type="curve"/>
      <point x="486" y="177" type="line"/>
      <point x="455" y="157"/>
      <point x="409" y="143"/>
      <point x="362" y="143" type="curve" smooth="yes"/>
      <point x="291" y="143"/>
      <point x="255" y="173"/>
      <point x="246" y="220" type="curve"/>
      <point x="230" y="178" type="line"/>
      <point x="428" y="178" type="line"/>
      <point x="428" y="320" type="line"/>
      <point x="230" y="320" type="line"/>
      <point x="246" y="280" type="line"/>
      <point x="260" y="325"/>
      <point x="292" y="351"/>
      <point x="362" y="351" type="curve" smooth="yes"/>
      <point x="409" y="351"/>
      <point x="455" y="338"/>
      <point x="486" y="318" type="curve"/>
      <point x="538" y="453" type="line"/>
      <point x="493" y="487"/>
      <point x="417" y="506"/>
      <point x="342" y="506" type="curve" smooth="yes"/>
      <point x="152" y="506"/>
      <point x="34" y="408"/>
      <point x="34" y="247" type="curve" smooth="yes"/>
      <point x="34" y="86"/>
      <point x="152" y="-12"/>
    </contour>
  </outline>
</glyph>
<glyph name="yat-cy" format="1">
  <advance width="670"/>
  <unicode hex="0463"/>
  <outline>
    <contour>
      <point x="140" y="0" type="line"/>
      <point x="442" y="0" type="line" smooth="yes"/>
      <point x="565" y="0"/>
      <point x="652" y="74"/>
      <point x="652" y="177" type="curve" smooth="yes"/>
      <point x="652" y="289"/>
      <point x="582" y="344"/>
      <point x="442" y="344" type="curve" smooth="yes"/>
      <point x="348" y="344" type="line"/>
      <point x="348" y="354" type="line"/>
      <point x="518" y="354" type="line"/>
      <point x="518" y="494" type="line"/>
      <point x="348" y="494" type="line"/>
      <point x="348" y="705" type="line"/>
      <point x="140" y="705" type="line"/>
      <point x="140" y="494" type="line"/>
      <point x="10" y="494" type="line"/>
      <point x="10" y="354" type="line"/>
      <point x="140" y="354" type="line"/>
    </contour>
    <contour>
      <point x="348" y="129" type="line"/>
      <point x="348" y="215" type="line"/>
      <point x="402" y="215" type="line" smooth="yes"/>
      <point x="443" y="215"/>
      <point x="464" y="203"/>
      <point x="464" y="174" type="curve" smooth="yes"/>
      <point x="464" y="144"/>
      <point x="440" y="129"/>
      <point x="402" y="129" type="curve" smooth="yes"/>
    </contour>
  </outline>
</glyph>
<glyph name="yusbig-cy" format="1">
  <advance width="908"/>
  <unicode hex="046B"/>
  <outline>
    <contour>
      <point x="-17" y="0" type="line"/>
      <point x="204" y="0" type="line"/>
      <point x="275" y="113" type="line" smooth="yes"/>
      <point x="290" y="137"/>
      <point x="303" y="147"/>
      <point x="324" y="147" type="curve" smooth="yes"/>
      <point x="350" y="147" type="line"/>
      <point x="350" y="0" type="line"/>
      <point x="558" y="0" type="line"/>
      <point x="558" y="147" type="line"/>
      <point x="584" y="147" type="line" smooth="yes"/>
      <point x="605" y="147"/>
      <point x="618" y="137"/>
      <point x="633" y="113" type="curve" smooth="yes"/>
      <point x="704" y="0" type="line"/>
      <point x="925" y="0" type="line"/>
      <point x="817" y="184" type="line" smooth="yes"/>
      <point x="769" y="265"/>
      <point x="725" y="305"/>
      <point x="618" y="305" type="curve" smooth="yes"/>
      <point x="580" y="305" type="line"/>
      <point x="617" y="243" type="line"/>
      <point x="832" y="494" type="line"/>
      <point x="76" y="494" type="line"/>
      <point x="291" y="243" type="line"/>
      <point x="328" y="305" type="line"/>
      <point x="290" y="305" type="line" smooth="yes"/>
      <point x="182" y="305"/>
      <point x="140" y="267"/>
      <point x="91" y="184" type="curve" smooth="yes"/>
    </contour>
    <contour>
      <point x="470" y="244" type="line"/>
      <point x="315" y="425" type="line"/>
      <point x="315" y="368" type="line"/>
      <point x="593" y="368" type="line"/>
      <point x="593" y="425" type="line"/>
      <point x="438" y="244" type="line"/>
    </contour>
  </outline>
</glyph>
<glyph name="Ertick-cy" format="1">
  <advance width="689"/>
  <unicode hex="048E"/>
  <outline>
    <contour>
      <point x="502" y="145" type="line"/>
      <point x="587" y="200" type="line"/>
      <point x="385" y="493" type="line"/>
      <point x="304" y="442" type="line"/>
    </contour>
    <component base="Er-cy"/>
  </outline>
</glyph>
<glyph name="ertick-cy" format="1">
  <advance width="652"/>
  <unicode hex="048F"/>
  <outline>
    <contour>
      <point x="507" y="-78" type="line"/>
      <point x="575" y="-28" type="line"/>
      <point x="349" y="266" type="line"/>
      <point x="282" y="216" type="line"/>
    </contour>
    <component base="er-cy"/>
  </outline>
</glyph>
<glyph name="Gheupturn-cy" format="1">
  <advance width="591"/>
  <unicode hex="0490"/>
  <outline>
    <contour>
      <point x="57" y="0" type="line"/>
      <point x="272" y="0" type="line"/>
      <point x="272" y="531" type="line"/>
      <point x="572" y="531" type="line"/>
      <point x="572" y="874" type="line"/>
      <point x="387" y="874" type="line"/>
      <point x="387" y="705" type="line"/>
      <point x="57" y="705" type="line"/>
    </contour>
  </outline>
</glyph>
<glyph name="gheupturn-cy" format="1">
  <advance width="500"/>
  <unicode hex="0491"/>
  <outline>
    <contour>
      <point x="54" y="0" type="line"/>
      <point x="262" y="0" type="line"/>
      <point x="262" y="334" type="line"/>
      <point x="479" y="334" type="line"/>
      <point x="479" y="602" type="line"/>
      <point x="304" y="602" type="line"/>
      <point x="304" y="494" type="line"/>
      <point x="54" y="494" type="line"/>
    </contour>
  </outline>
</glyph>
<glyph name="Ghestroke-cy" format="1">
  <advance width="644"/>
  <unicode hex="0492"/>
  <outline>
    <contour>
      <point x="625" y="531" type="line"/>
      <point x="625" y="705" type="line"/>
      <point x="110" y="705" type="line"/>
      <point x="110" y="412" type="line"/>
      <point x="20" y="412" type="line"/>
      <point x="20" y="264" type="line"/>
      <point x="110" y="264" type="line"/>
      <point x="110" y="0" type="line"/>
      <point x="325" y="0" type="line"/>
      <point x="325" y="264" type="line"/>
      <point x="495" y="264" type="line"/>
      <point x="495" y="412" type="line"/>
      <point x="325" y="412" type="line"/>
      <point x="325" y="531" type="line"/>
    </contour>
  </outline>
</glyph>
<glyph name="ghestroke-cy" format="1">
  <advance width="530"/>
  <unicode hex="0493"/>
  <outline>
    <contour>
      <point x="509" y="334" type="line"/>
      <point x="509" y="494" type="line"/>
      <point x="84" y="494" type="line"/>
      <point x="84" y="276" type="line"/>
      <point x="4" y="276" type="line"/>
      <point x="4" y="136" type="line"/>
      <point x="84" y="136" type="line"/>
      <point x="84" y="0" type="line"/>
      <point x="292" y="0" type="line"/>
      <point x="292" y="136" type="line"/>
      <point x="422" y="136" type="line"/>
      <point x="422" y="276" type="line"/>
      <point x="292" y="276" type="line"/>
      <point x="292" y="334" type="line"/>
    </contour>
  </outline>
</glyph>
<glyph name="Kaverticalstroke-cy" format="1">
  <advance width="834"/>
  <unicode hex="049C"/>
  <outline>
    <contour>
      <point x="716" y="262" type="line" smooth="yes"/>
      <point x="670" y="356"/>
      <point x="609" y="405"/>
      <point x="512" y="425" type="curve"/>
      <point x="599" y="369" type="line"/>
      <point x="809" y="705" type="line"/>
      <point x="576" y="705" type="line"/>
      <point x="420" y="433" type="line"/>
      <point x="435" y="433" type="line"/>
      <point x="435" y="590" type="line"/>
      <point x="302" y="590" type="line"/>
      <point x="302" y="433" type="line"/>
      <point x="272" y="433" type="line"/>
      <point x="272" y="705" type="line"/>
      <point x="57" y="705" type="line"/>
      <point x="57" y="0" type="line"/>
      <point x="272" y="0" type="line"/>
      <point x="272" y="259" type="line"/>
      <point x="302" y="259" type="line"/>
      <point x="302" y="111" type="line"/>
      <point x="435" y="111" type="line"/>
      <point x="435" y="275" type="line"/>
      <point x="401" y="259" type="line"/>
      <point x="417" y="259" type="line" smooth="yes"/>
      <point x="472" y="259"/>
      <point x="502" y="241"/>
      <point x="523" y="195" type="curve" smooth="yes"/>
      <point x="611" y="0" type="line"/>
      <point x="843" y="0" type="line"/>
    </contour>
  </outline>
</glyph>
<glyph name="Kastroke-cy" format="1">
  <advance width="828"/>
  <unicode hex="049E"/>
  <outline>
    <contour>
      <point x="130" y="0" type="line"/>
      <point x="345" y="0" type="line"/>
      <point x="345" y="259" type="line"/>
      <point x="395" y="259" type="line" smooth="yes"/>
      <point x="450" y="259"/>
      <point x="480" y="241"/>
      <point x="501" y="195" type="curve" smooth="yes"/>
      <point x="589" y="0" type="line"/>
      <point x="821" y="0" type="line"/>
      <point x="694" y="262" type="line" smooth="yes"/>
      <point x="648" y="356"/>
      <point x="592" y="389"/>
      <point x="555" y="406" type="curve"/>
      <point x="604" y="349" type="line"/>
      <point x="837" y="705" type="line"/>
      <point x="604" y="705" type="line"/>
      <point x="414" y="394" type="line"/>
      <point x="454" y="433" type="line"/>
      <point x="345" y="433" type="line"/>
      <point x="345" y="505" type="line"/>
      <point x="445" y="505" type="line"/>
      <point x="445" y="643" type="line"/>
      <point x="345" y="643" type="line"/>
      <point x="345" y="705" type="line"/>
      <point x="130" y="705" type="line"/>
      <point x="130" y="643" type="line"/>
      <point x="-10" y="643" type="line"/>
      <point x="-10" y="505" type="line"/>
      <point x="130" y="505" type="line"/>
    </contour>
  </outline>
</glyph>
<glyph name="Enghe-cy" format="1">
  <advance width="958"/>
  <unicode hex="04A4"/>
  <outline>
    <contour>
      <point x="57" y="0" type="line"/>
      <point x="272" y="0" type="line"/>
      <point x="272" y="269" type="line"/>
      <point x="522" y="269" type="line"/>
      <point x="522" y="0" type="line"/>
      <point x="737" y="0" type="line"/>
      <point x="737" y="531" type="line"/>
      <point x="951" y="531" type="line"/>
      <point x="951" y="705" type="line"/>
      <point x="522" y="705" type="line"/>
      <point x="522" y="445" type="line"/>
      <point x="272" y="445" type="line"/>
      <point x="272" y="705" type="line"/>
      <point x="57" y="705" type="line"/>
    </contour>
  </outline>
</glyph>
<glyph name="enghe-cy" format="1">
  <advance width="799"/>
  <unicode hex="04A5"/>
  <outline>
    <contour>
      <point x="54" y="0" type="line"/>
      <point x="262" y="0" type="line"/>
      <point x="262" y="171" type="line"/>
      <point x="390" y="171" type="line"/>
      <point x="390" y="0" type="line"/>
      <point x="598" y="0" type="line"/>
      <point x="598" y="332" type="line"/>
      <point x="778" y="332" type="line"/>
      <point x="778" y="494" type="line"/>
      <point x="390" y="494" type="line"/>
      <point x="390" y="329" type="line"/>
      <point x="262" y="329" type="line"/>
      <point x="262" y="494" type="line"/>
      <point x="54" y="494" type="line"/>
    </contour>
  </outline>
</glyph>
<glyph name="Haabkhasian-cy" format="1">
  <advance width="885"/>
  <unicode hex="04A8"/>
  <outline>
    <contour>
      <point x="416" y="-12" type="curve" smooth="yes"/>
      <point x="628" y="-12"/>
      <point x="814" y="152"/>
      <point x="814" y="331" type="curve" smooth="yes"/>
      <point x="814" y="470"/>
      <point x="726" y="555"/>
      <point x="582" y="555" type="curve" smooth="yes"/>
      <point x="438" y="555"/>
      <point x="350" y="470"/>
      <point x="350" y="331" type="curve" smooth="yes"/>
      <point x="350" y="154"/>
      <point x="533" y="-12"/>
      <point x="728" y="-12" type="curve" smooth="yes"/>
      <point x="805" y="-12"/>
      <point x="873" y="3"/>
      <point x="927" y="32" type="curve"/>
      <point x="870" y="189" type="line"/>
      <point x="824" y="171"/>
      <point x="765" y="159"/>
      <point x="724" y="159" type="curve" smooth="yes"/>
      <point x="589" y="159"/>
      <point x="543" y="200"/>
      <point x="543" y="321" type="curve" smooth="yes"/>
      <point x="543" y="371"/>
      <point x="556" y="396"/>
      <point x="582" y="396" type="curve" smooth="yes"/>
      <point x="608" y="396"/>
      <point x="621" y="371"/>
      <point x="621" y="321" type="curve" smooth="yes"/>
      <point x="621" y="200"/>
      <point x="575" y="159"/>
      <point x="430" y="159" type="curve" smooth="yes"/>
      <point x="319" y="159"/>
      <point x="264" y="224"/>
      <point x="264" y="343" type="curve" smooth="yes"/>
      <point x="264" y="470"/>
      <point x="318" y="538"/>
      <point x="419" y="538" type="curve" smooth="yes"/>
      <point x="446" y="538"/>
      <point x="462" y="537"/>
      <point x="471" y="534" type="curve"/>
      <point x="495" y="709" type="line"/>
      <point x="474" y="714"/>
      <point x="444" y="717"/>
      <point x="416" y="717" type="curve" smooth="yes"/>
      <point x="187" y="717"/>
      <point x="41" y="571"/>
      <point x="41" y="344" type="curve" smooth="yes"/>
      <point x="41" y="135"/>
      <point x="191" y="-12"/>
    </contour>
  </outline>
</glyph>
<glyph name="haabkhasian-cy" format="1">
  <advance width="803"/>
  <unicode hex="04A9"/>
  <outline>
    <contour>
      <point x="362" y="-12" type="curve" smooth="yes"/>
      <point x="555" y="-12"/>
      <point x="709" y="89"/>
      <point x="709" y="216" type="curve" smooth="yes"/>
      <point x="709" y="320"/>
      <point x="626" y="390"/>
      <point x="508" y="390" type="curve" smooth="yes"/>
      <point x="390" y="390"/>
      <point x="309" y="322"/>
      <point x="309" y="216" type="curve" smooth="yes"/>
      <point x="309" y="91"/>
      <point x="460" y="-12"/>
      <point x="645" y="-12" type="curve" smooth="yes"/>
      <point x="705" y="-12"/>
      <point x="764" y="-2"/>
      <point x="810" y="16" type="curve"/>
      <point x="782" y="164" type="line"/>
      <point x="733" y="143"/>
      <point x="694" y="134"/>
      <point x="648" y="134" type="curve" smooth="yes"/>
      <point x="527" y="134"/>
      <point x="476" y="155"/>
      <point x="476" y="206" type="curve" smooth="yes"/>
      <point x="476" y="228"/>
      <point x="489" y="243"/>
      <point x="508" y="243" type="curve" smooth="yes"/>
      <point x="529" y="243"/>
      <point x="542" y="228"/>
      <point x="542" y="206" type="curve" smooth="yes"/>
      <point x="542" y="159"/>
      <point x="481" y="134"/>
      <point x="369" y="134" type="curve" smooth="yes"/>
      <point x="293" y="134"/>
      <point x="243" y="178"/>
      <point x="243" y="249" type="curve" smooth="yes"/>
      <point x="243" y="311"/>
      <point x="279" y="354"/>
      <point x="333" y="354" type="curve" smooth="yes"/>
      <point x="350" y="354"/>
      <point x="361" y="353"/>
      <point x="375" y="350" type="curve"/>
      <point x="404" y="500" type="line"/>
      <point x="380" y="504"/>
      <point x="355" y="506"/>
      <point x="330" y="506" type="curve" smooth="yes"/>
      <point x="147" y="506"/>
      <point x="34" y="408"/>
      <point x="34" y="250" type="curve" smooth="yes"/>
      <point x="34" y="86"/>
      <point x="158" y="-12"/>
    </contour>
  </outline>
</glyph>
<glyph name="Tedescender-cy" format="1">
  <advance width="631"/>
  <unicode hex="04AC"/>
  <outline>
    <contour>
      <point x="624" y="531" type="line"/>
      <point x="624" y="705" type="line"/>
      <point x="7" y="705" type="line"/>
      <point x="7" y="531" type="line"/>
      <point x="208" y="531" type="line"/>
      <point x="208" y="0" type="line"/>
      <point x="338" y="0" type="line"/>
      <point x="338" y="-180" type="line"/>
      <point x="523" y="-180" type="line"/>
      <point x="523" y="167" type="line"/>
      <point x="423" y="167" type="line"/>
      <point x="423" y="531" type="line"/>
    </contour>
  </outline>
</glyph>
<glyph name="ustraight-cy" format="1">
  <advance width="570"/>
  <unicode hex="04AF"/>
  <outline>
    <contour>
      <point x="182" y="-180" type="line"/>
      <point x="390" y="-180" type="line"/>
      <point x="390" y="49" type="line"/>
      <point x="591" y="494" type="line"/>
      <point x="388" y="494" type="line"/>
      <point x="272" y="204" type="line"/>
      <point x="308" y="204" type="line"/>
      <point x="199" y="494" type="line"/>
      <point x="-18" y="494" type="line"/>
      <point x="182" y="40" type="line"/>
    </contour>
    <contour>
      <point x="289" y="32" type="move" name="center"/>
    </contour>
  </outline>
</glyph>
<glyph name="Tetse-cy" format="1">
  <advance width="992"/>
  <unicode hex="04B4"/>
  <outline>
    <contour>
      <point x="785" y="-180" type="line"/>
      <point x="970" y="-180" type="line"/>
      <point x="970" y="174" type="line"/>
      <point x="870" y="174" type="line"/>
      <point x="870" y="705" type="line"/>
      <point x="655" y="705" type="line"/>
      <point x="655" y="174" type="line"/>
      <point x="412" y="174" type="line"/>
      <point x="412" y="531" type="line"/>
      <point x="562" y="531" type="line"/>
      <point x="562" y="705" type="line"/>
      <point x="7" y="705" type="line"/>
      <point x="7" y="531" type="line"/>
      <point x="197" y="531" type="line"/>
      <point x="197" y="0" type="line"/>
      <point x="785" y="0" type="line"/>
    </contour>
  </outline>
</glyph>
<glyph name="tetse-cy" format="1">
  <advance width="805"/>
  <unicode hex="04B5"/>
  <outline>
    <contour>
      <point x="621" y="-130" type="line"/>
      <point x="796" y="-130" type="line"/>
      <point x="796" y="158" type="line"/>
      <point x="711" y="158" type="line"/>
      <point x="711" y="494" type="line"/>
      <point x="503" y="494" type="line"/>
      <point x="503" y="158" type="line"/>
      <point x="348" y="158" type="line"/>
      <point x="348" y="332" type="line"/>
      <point x="443" y="332" type="line"/>
      <point x="443" y="494" type="line"/>
      <point x="10" y="494" type="line"/>
      <point x="10" y="332" type="line"/>
      <point x="140" y="332" type="line"/>
      <point x="140" y="0" type="line"/>
      <point x="621" y="0" type="line"/>
    </contour>
  </outline>
</glyph>
<glyph name="Cheverticalstroke-cy" format="1">
  <advance width="735"/>
  <unicode hex="04B8"/>
  <outline>
    <contour>
      <point x="463" y="705" type="line"/>
      <point x="463" y="409" type="line"/>
      <point x="444" y="402"/>
      <point x="402" y="395"/>
      <point x="375" y="395" type="curve"/>
      <point x="430" y="385" type="line"/>
      <point x="430" y="545" type="line"/>
      <point x="297" y="545" type="line"/>
      <point x="297" y="385" type="line"/>
      <point x="346" y="397" type="line"/>
      <point x="282" y="405"/>
      <point x="258" y="458"/>
      <point x="258" y="531" type="curve" smooth="yes"/>
      <point x="258" y="705" type="line"/>
      <point x="43" y="705" type="line"/>
      <point x="43" y="525" type="line" smooth="yes"/>
      <point x="43" y="315"/>
      <point x="154" y="222"/>
      <point x="327" y="216" type="curve"/>
      <point x="297" y="242" type="line"/>
      <point x="297" y="96" type="line"/>
      <point x="430" y="96" type="line"/>
      <point x="430" y="242" type="line"/>
      <point x="389" y="218" type="line"/>
      <point x="410" y="219"/>
      <point x="439" y="225"/>
      <point x="463" y="232" type="curve"/>
      <point x="463" y="0" type="line"/>
      <point x="678" y="0" type="line"/>
      <point x="678" y="705" type="line"/>
    </contour>
  </outline>
</glyph>
<glyph name="cheverticalstroke-cy" format="1">
  <advance width="682"/>
  <unicode hex="04B9"/>
  <outline>
    <contour>
      <point x="420" y="0" type="line"/>
      <point x="628" y="0" type="line"/>
      <point x="628" y="494" type="line"/>
      <point x="420" y="494" type="line"/>
      <point x="420" y="293" type="line"/>
      <point x="403" y="289"/>
      <point x="379" y="287"/>
      <point x="366" y="287" type="curve"/>
      <point x="394" y="270" type="line"/>
      <point x="394" y="400" type="line"/>
      <point x="280" y="400" type="line"/>
      <point x="280" y="270" type="line"/>
      <point x="320" y="289" type="line"/>
      <point x="272" y="296"/>
      <point x="242" y="312"/>
      <point x="242" y="375" type="curve" smooth="yes"/>
      <point x="242" y="494" type="line"/>
      <point x="34" y="494" type="line"/>
      <point x="34" y="360" type="line" smooth="yes"/>
      <point x="34" y="212"/>
      <point x="128" y="133"/>
      <point x="313" y="133" type="curve"/>
      <point x="280" y="164" type="line"/>
      <point x="280" y="51" type="line"/>
      <point x="394" y="51" type="line"/>
      <point x="394" y="164" type="line"/>
      <point x="359" y="135" type="line"/>
      <point x="373" y="136"/>
      <point x="397" y="140"/>
      <point x="420" y="144" type="curve"/>
    </contour>
  </outline>
</glyph>
<glyph name="shha-cy" format="1">
  <advance width="638"/>
  <unicode hex="04BB"/>
  <outline>
    <component base="h" xOffset="10"/>
    <contour>
      <point x="397" y="0" type="move" name="bottomright"/>
    </contour>
  </outline>
</glyph>
<glyph name="cheabkhasian-cy" format="1">
  <advance width="716"/>
  <unicode hex="04BD"/>
  <outline>
    <contour>
      <point x="171" y="199" type="curve" smooth="yes"/>
      <point x="707" y="199" type="line"/>
      <point x="707" y="246" type="line" smooth="yes"/>
      <point x="707" y="404"/>
      <point x="608" y="506"/>
      <point x="455" y="506" type="curve" smooth="yes"/>
      <point x="301" y="506"/>
      <point x="188" y="399"/>
      <point x="188" y="248" type="curve" smooth="yes"/>
      <point x="188" y="90"/>
      <point x="303" y="-12"/>
      <point x="492" y="-12" type="curve" smooth="yes"/>
      <point x="561" y="-12"/>
      <point x="645" y="10"/>
      <point x="699" y="45" type="curve"/>
      <point x="649" y="181" type="line"/>
      <point x="608" y="155"/>
      <point x="549" y="140"/>
      <point x="498" y="140" type="curve" smooth="yes"/>
      <point x="417" y="140"/>
      <point x="384" y="168"/>
      <point x="384" y="256" type="curve" smooth="yes"/>
      <point x="384" y="265" type="line" smooth="yes"/>
      <point x="384" y="338"/>
      <point x="414" y="370"/>
      <point x="463" y="370" type="curve" smooth="yes"/>
      <point x="508" y="370"/>
      <point x="530" y="342"/>
      <point x="533" y="286" type="curve"/>
      <point x="552" y="300" type="line"/>
      <point x="202" y="300" type="line" smooth="yes"/>
      <point x="173" y="300"/>
      <point x="162" y="311"/>
      <point x="162" y="353" type="curve" smooth="yes"/>
      <point x="162" y="382" type="line"/>
      <point x="5" y="382" type="line"/>
      <point x="5" y="352" type="line" smooth="yes"/>
      <point x="5" y="254"/>
      <point x="45" y="199"/>
    </contour>
    <contour>
      <point x="535" y="0" type="move" name="ogonek"/>
    </contour>
  </outline>
</glyph>
<glyph name="Kahook-cy" format="1">
  <advance width="759"/>
  <unicode hex="04C3"/>
  <outline>
    <contour>
      <point x="458" y="-192" type="curve" smooth="yes"/>
      <point x="604" y="-192"/>
      <point x="716" y="-94"/>
      <point x="716" y="77" type="curve" smooth="yes"/>
      <point x="716" y="134" type="line" smooth="yes"/>
      <point x="716" y="314"/>
      <point x="623" y="410"/>
      <point x="480" y="436" type="curve"/>
      <point x="519" y="369" type="line"/>
      <point x="729" y="705" type="line"/>
      <point x="496" y="705" type="line"/>
      <point x="329" y="414" type="line"/>
      <point x="370" y="445" type="line"/>
      <point x="272" y="445" type="line"/>
      <point x="272" y="705" type="line"/>
      <point x="57" y="705" type="line"/>
      <point x="57" y="0" type="line"/>
      <point x="272" y="0" type="line"/>
      <point x="272" y="271" type="line"/>
      <point x="362" y="271" type="line" smooth="yes"/>
      <point x="443" y="271"/>
      <point x="501" y="224"/>
      <point x="501" y="128" type="curve" smooth="yes"/>
      <point x="501" y="67" type="line" smooth="yes"/>
      <point x="501" y="10"/>
      <point x="468" y="-27"/>
      <point x="420" y="-27" type="curve" smooth="yes"/>
      <point x="394" y="-27"/>
      <point x="367" y="-23"/>
      <point x="344" y="-18" type="curve"/>
      <point x="313" y="-171" type="line"/>
      <point x="350" y="-184"/>
      <point x="397" y="-192"/>
    </contour>
  </outline>
</glyph>
<glyph name="Obarred-cy" format="1">
  <advance width="820"/>
  <unicode hex="04E8"/>
  <outline>
    <component base="O"/>
    <component base="__bar.Obarred-cy"/>
    <contour>
      <point x="404" y="705" type="move" name="top"/>
    </contour>
  </outline>
</glyph>
<glyph name="obarred-cy" format="1">
  <advance width="636"/>
  <unicode hex="04E9"/>
  <outline>
    <contour>
      <point x="178" y="171" type="line"/>
      <point x="458" y="171" type="line"/>
      <point x="458" y="323" type="line"/>
      <point x="178" y="323" type="line"/>
    </contour>
    <contour>
      <point x="318" y="-12" type="curve" smooth="yes"/>
      <point x="489" y="-12"/>
      <point x="602" y="86"/>
      <point x="602" y="247" type="curve" smooth="yes"/>
      <point x="602" y="408"/>
      <point x="489" y="506"/>
      <point x="318" y="506" type="curve" smooth="yes"/>
      <point x="147" y="506"/>
      <point x="34" y="408"/>
      <point x="34" y="247" type="curve" smooth="yes"/>
      <point x="34" y="86"/>
      <point x="147" y="-12"/>
    </contour>
    <contour>
      <point x="318" y="140" type="curve" smooth="yes"/>
      <point x="275" y="140"/>
      <point x="243" y="168"/>
      <point x="243" y="247" type="curve" smooth="yes"/>
      <point x="243" y="326"/>
      <point x="275" y="354"/>
      <point x="318" y="354" type="curve" smooth="yes"/>
      <point x="361" y="354"/>
      <point x="393" y="326"/>
      <point x="393" y="247" type="curve" smooth="yes"/>
      <point x="393" y="168"/>
      <point x="361" y="140"/>
    </contour>
    <contour>
      <point x="318" y="484" type="move" name="top"/>
    </contour>
  </outline>
</glyph>
<glyph name="Hahook-cy" format="1">
  <advance width="713"/>
  <unicode hex="04FC"/>
  <outline>
    <contour>
      <point x="417" y="-190" type="line"/>
      <point x="606" y="-174"/>
      <point x="688" y="-104"/>
      <point x="688" y="1" type="curve" smooth="yes"/>
      <point x="688" y="48"/>
      <point x="672" y="102"/>
      <point x="616" y="175" type="curve" smooth="yes"/>
      <point x="441" y="404" type="line"/>
      <point x="441" y="305" type="line"/>
      <point x="746" y="705" type="line"/>
      <point x="496" y="705" type="line"/>
      <point x="321" y="461" type="line"/>
      <point x="391" y="461" type="line"/>
      <point x="217" y="705" type="line"/>
      <point x="-32" y="705" type="line"/>
      <point x="272" y="305" type="line"/>
      <point x="272" y="404" type="line"/>
      <point x="-36" y="0" type="line"/>
      <point x="214" y="0" type="line"/>
      <point x="390" y="245" type="line"/>
      <point x="323" y="245" type="line"/>
      <point x="437" y="86" type="line" smooth="yes"/>
      <point x="458" y="57"/>
      <point x="465" y="43"/>
      <point x="465" y="29" type="curve" smooth="yes"/>
      <point x="465" y="4"/>
      <point x="452" y="-18"/>
      <point x="379" y="-23" type="curve"/>
    </contour>
  </outline>
</glyph>
<glyph name="hahook-cy" format="1">
  <advance width="607"/>
  <unicode hex="04FD"/>
  <outline>
    <contour>
      <point x="343" y="-190" type="line"/>
      <point x="532" y="-174"/>
      <point x="596" y="-109"/>
      <point x="596" y="-17" type="curve" smooth="yes"/>
      <point x="596" y="31"/>
      <point x="580" y="65"/>
      <point x="529" y="126" type="curve" smooth="yes"/>
      <point x="383" y="301" type="line"/>
      <point x="383" y="208" type="line"/>
      <point x="619" y="494" type="line"/>
      <point x="378" y="494" type="line"/>
      <point x="268" y="350" type="line"/>
      <point x="340" y="350" type="line"/>
      <point x="230" y="494" type="line"/>
      <point x="-11" y="494" type="line"/>
      <point x="224" y="209" type="line"/>
      <point x="224" y="299" type="line"/>
      <point x="-25" y="0" type="line"/>
      <point x="216" y="0" type="line"/>
      <point x="340" y="157" type="line"/>
      <point x="268" y="157" type="line"/>
      <point x="356" y="46" type="line" smooth="yes"/>
      <point x="377" y="20"/>
      <point x="386" y="4"/>
      <point x="386" y="-9" type="curve" smooth="yes"/>
      <point x="386" y="-34"/>
      <point x="369" y="-46"/>
      <point x="313" y="-49" type="curve"/>
    </contour>
  </outline>
</glyph>
<glyph name="reversedze-cy" format="1">
  <advance width="562"/>
  <unicode hex="0511"/>
  <outline>
    <contour>
      <point x="290" y="-12" type="curve" smooth="yes"/>
      <point x="386" y="-12"/>
      <point x="474" y="4"/>
      <point x="538" y="40" type="curve"/>
      <point x="492" y="182" type="line"/>
      <point x="445" y="159"/>
      <point x="362" y="143"/>
      <point x="285" y="143" type="curve" smooth="yes"/>
      <point x="238" y="143"/>
      <point x="209" y="149"/>
      <point x="209" y="167" type="curve" smooth="yes"/>
      <point x="209" y="176"/>
      <point x="219" y="180"/>
      <point x="241" y="180" type="curve" smooth="yes"/>
      <point x="410" y="180" type="line"/>
      <point x="410" y="319" type="line"/>
      <point x="257" y="319" type="line" smooth="yes"/>
      <point x="238" y="319"/>
      <point x="229" y="324"/>
      <point x="229" y="333" type="curve" smooth="yes"/>
      <point x="229" y="343"/>
      <point x="246" y="352"/>
      <point x="309" y="352" type="curve" smooth="yes"/>
      <point x="386" y="352"/>
      <point x="440" y="336"/>
      <point x="484" y="319" type="curve"/>
      <point x="532" y="456" type="line"/>
      <point x="476" y="485"/>
      <point x="385" y="506"/>
      <point x="297" y="506" type="curve" smooth="yes"/>
      <point x="140" y="506"/>
      <point x="44" y="454"/>
      <point x="44" y="365" type="curve" smooth="yes"/>
      <point x="44" y="306"/>
      <point x="86" y="262"/>
      <point x="154" y="249" type="curve"/>
      <point x="154" y="266" type="line"/>
      <point x="66" y="256"/>
      <point x="24" y="216"/>
      <point x="24" y="141" type="curve" smooth="yes"/>
      <point x="24" y="46"/>
      <point x="125" y="-12"/>
    </contour>
  </outline>
</glyph>
<glyph name="Elhook-cy" format="1">
  <advance width="772"/>
  <unicode hex="0512"/>
  <outline>
    <contour>
      <point x="405" y="-193" type="line"/>
      <point x="449" y="-190" type="line" smooth="yes"/>
      <point x="652" y="-176"/>
      <point x="715" y="-120"/>
      <point x="715" y="39" type="curve" smooth="yes"/>
      <point x="715" y="705" type="line"/>
      <point x="158" y="705" type="line"/>
      <point x="158" y="486" type="line" smooth="yes"/>
      <point x="158" y="297"/>
      <point x="118" y="197"/>
      <point x="8" y="131" type="curve"/>
      <point x="117" y="-20" type="line"/>
      <point x="264" y="52"/>
      <point x="355" y="204"/>
      <point x="355" y="430" type="curve" smooth="yes"/>
      <point x="355" y="531" type="line"/>
      <point x="500" y="531" type="line"/>
      <point x="500" y="8" type="line" smooth="yes"/>
      <point x="500" y="-24"/>
      <point x="482" y="-38"/>
      <point x="446" y="-42" type="curve" smooth="yes"/>
      <point x="391" y="-48" type="line"/>
    </contour>
  </outline>
</glyph>
<glyph name="elhook-cy" format="1">
  <advance width="639"/>
  <unicode hex="0513"/>
  <outline>
    <contour>
      <point x="292" y="-193" type="line"/>
      <point x="336" y="-190" type="line" smooth="yes"/>
      <point x="505" y="-178"/>
      <point x="585" y="-126"/>
      <point x="585" y="13" type="curve" smooth="yes"/>
      <point x="585" y="494" type="line"/>
      <point x="115" y="494" type="line"/>
      <point x="115" y="292" type="line" smooth="yes"/>
      <point x="115" y="203"/>
      <point x="83" y="154"/>
      <point x="11" y="146" type="curve"/>
      <point x="67" y="-18" type="line"/>
      <point x="227" y="-8"/>
      <point x="303" y="108"/>
      <point x="303" y="285" type="curve" smooth="yes"/>
      <point x="303" y="336" type="line"/>
      <point x="377" y="336" type="line"/>
      <point x="377" y="8" type="line" smooth="yes"/>
      <point x="377" y="-24"/>
      <point x="364" y="-38"/>
      <point x="328" y="-42" type="curve" smooth="yes"/>
      <point x="278" y="-48" type="line"/>
    </contour>
  </outline>
</glyph>
<glyph name="enlefthook-cy" format="1">
  <advance width="647"/>
  <unicode hex="0529"/>
  <outline>
    <contour>
      <point x="385" y="494" type="line"/>
      <point x="385" y="329" type="line"/>
      <point x="262" y="329" type="line"/>
      <point x="262" y="494" type="line"/>
      <point x="54" y="494" type="line"/>
      <point x="54" y="8" type="line" smooth="yes"/>
      <point x="54" y="-24"/>
      <point x="41" y="-38"/>
      <point x="5" y="-42" type="curve" smooth="yes"/>
      <point x="-45" y="-48" type="line"/>
      <point x="-31" y="-193" type="line"/>
      <point x="13" y="-190" type="line" smooth="yes"/>
      <point x="203" y="-177"/>
      <point x="262" y="-120"/>
      <point x="262" y="39" type="curve" smooth="yes"/>
      <point x="262" y="171" type="line"/>
      <point x="385" y="171" type="line"/>
      <point x="385" y="0" type="line"/>
      <point x="593" y="0" type="line"/>
      <point x="593" y="494" type="line"/>
    </contour>
    <contour>
      <point x="385" y="0" type="move" name="bottomright"/>
    </contour>
  </outline>
</glyph>
<glyph name="figuredash" format="1">
  <advance width="600"/>
  <unicode hex="2012"/>
  <outline>
    <contour>
      <point x="60" y="211" type="line"/>
      <point x="540" y="211" type="line"/>
      <point x="540" y="327" type="line"/>
      <point x="60" y="327" type="line"/>
    </contour>
  </outline>
</glyph>
<glyph name="quoteleft" format="1">
  <advance width="285"/>
  <unicode hex="2018"/>
  <outline>
    <contour>
      <point x="151" y="715" type="line"/>
      <point x="67" y="631"/>
      <point x="37" y="561"/>
      <point x="37" y="468" type="curve" smooth="yes"/>
      <point x="37" y="340" type="line"/>
      <point x="248" y="340" type="line"/>
      <point x="248" y="547" type="line"/>
      <point x="102" y="547" type="line"/>
      <point x="146" y="495" type="line"/>
      <point x="146" y="554"/>
      <point x="171" y="599"/>
      <point x="227" y="654" type="curve"/>
    </contour>
  </outline>
</glyph>
<glyph name="quoteright" format="1">
  <advance width="285"/>
  <unicode hex="2019"/>
  <outline>
    <contour>
      <point x="134" y="330" type="line"/>
      <point x="218" y="414"/>
      <point x="248" y="484"/>
      <point x="248" y="577" type="curve" smooth="yes"/>
      <point x="248" y="705" type="line"/>
      <point x="37" y="705" type="line"/>
      <point x="37" y="498" type="line"/>
      <point x="183" y="498" type="line"/>
      <point x="139" y="549" type="line"/>
      <point x="139" y="491"/>
      <point x="114" y="446"/>
      <point x="58" y="391" type="curve"/>
    </contour>
  </outline>
</glyph>
<glyph name="quotesinglbase" format="1">
  <advance width="285"/>
  <unicode hex="201A"/>
  <outline>
    <contour>
      <point x="134" y="-168" type="line"/>
      <point x="218" y="-84"/>
      <point x="248" y="-14"/>
      <point x="248" y="79" type="curve" smooth="yes"/>
      <point x="248" y="207" type="line"/>
      <point x="37" y="207" type="line"/>
      <point x="37" y="0" type="line"/>
      <point x="183" y="0" type="line"/>
      <point x="139" y="51" type="line"/>
      <point x="139" y="-7"/>
      <point x="114" y="-52"/>
      <point x="58" y="-107" type="curve"/>
    </contour>
  </outline>
</glyph>
<glyph name="perthousand" format="1">
  <advance width="1376"/>
  <unicode hex="2030"/>
  <outline>
    <contour>
      <point x="1161" y="-12" type="curve" smooth="yes"/>
      <point x="1284" y="-12"/>
      <point x="1355" y="76"/>
      <point x="1355" y="205" type="curve" smooth="yes"/>
      <point x="1355" y="332"/>
      <point x="1283" y="419"/>
      <point x="1161" y="419" type="curve" smooth="yes"/>
      <point x="1040" y="419"/>
      <point x="967" y="336"/>
      <point x="967" y="205" type="curve" smooth="yes"/>
      <point x="967" y="76"/>
      <point x="1038" y="-12"/>
    </contour>
    <contour>
      <point x="1161" y="112" type="curve" smooth="yes"/>
      <point x="1140" y="112"/>
      <point x="1130" y="130"/>
      <point x="1130" y="205" type="curve" smooth="yes"/>
      <point x="1130" y="280"/>
      <point x="1140" y="295"/>
      <point x="1161" y="295" type="curve" smooth="yes"/>
      <point x="1181" y="295"/>
      <point x="1192" y="277"/>
      <point x="1192" y="205" type="curve" smooth="yes"/>
      <point x="1192" y="133"/>
      <point x="1182" y="112"/>
    </contour>
    <component base="percent"/>
  </outline>
</glyph>
<glyph name="guilsinglleft" format="1">
  <advance width="338"/>
  <unicode hex="2039"/>
  <outline>
    <contour>
      <point x="173" y="53" type="line"/>
      <point x="304" y="115" type="line"/>
      <point x="238" y="267" type="line"/>
      <point x="304" y="417" type="line"/>
      <point x="170" y="480" type="line"/>
      <point x="63" y="317" type="line"/>
      <point x="63" y="216" type="line"/>
    </contour>
  </outline>
</glyph>
<glyph name="fraction" format="1">
  <advance width="222"/>
  <unicode hex="2044"/>
  <outline>
    <contour>
      <point x="-27" y="-34" type="line"/>
      <point x="378" y="664" type="line"/>
      <point x="249" y="739" type="line"/>
      <point x="-156" y="41" type="line"/>
    </contour>
  </outline>
</glyph>
<glyph name="peseta" format="1">
  <advance width="600"/>
  <unicode hex="20A7"/>
  <outline>
    <contour>
      <point x="93" y="0" type="line"/>
      <point x="300" y="0" type="line"/>
      <point x="300" y="204" type="line"/>
      <point x="293" y="204" type="line" smooth="yes"/>
      <point x="418" y="204"/>
      <point x="510" y="299"/>
      <point x="518" y="436" type="curve"/>
      <point x="484" y="395" type="line"/>
      <point x="576" y="395" type="line"/>
      <point x="576" y="513" type="line"/>
      <point x="485" y="513" type="line"/>
      <point x="520" y="472" type="line"/>
      <point x="512" y="609"/>
      <point x="418" y="705"/>
      <point x="293" y="705" type="curve" smooth="yes"/>
      <point x="93" y="705" type="line"/>
      <point x="93" y="513" type="line"/>
      <point x="24" y="513" type="line"/>
      <point x="24" y="395" type="line"/>
      <point x="93" y="395" type="line"/>
    </contour>
    <contour>
      <point x="296" y="363" type="line"/>
      <point x="296" y="544" type="line"/>
      <point x="299" y="544" type="line" smooth="yes"/>
      <point x="316" y="544"/>
      <point x="327" y="527"/>
      <point x="327" y="452" type="curve" smooth="yes"/>
      <point x="327" y="377"/>
      <point x="316" y="363"/>
      <point x="299" y="363" type="curve" smooth="yes"/>
    </contour>
  </outline>
</glyph>
<glyph name="tugrik" format="1">
  <advance width="600"/>
  <unicode hex="20AE"/>
  <outline>
    <contour>
      <point x="192" y="0" type="line"/>
      <point x="408" y="0" type="line"/>
      <point x="408" y="182" type="line"/>
      <point x="503" y="219" type="line"/>
      <point x="503" y="335" type="line"/>
      <point x="408" y="298" type="line"/>
      <point x="408" y="350" type="line"/>
      <point x="503" y="387" type="line"/>
      <point x="503" y="503" type="line"/>
      <point x="408" y="466" type="line"/>
      <point x="408" y="531" type="line"/>
      <point x="587" y="531" type="line"/>
      <point x="587" y="705" type="line"/>
      <point x="13" y="705" type="line"/>
      <point x="13" y="531" type="line"/>
      <point x="192" y="531" type="line"/>
      <point x="192" y="369" type="line"/>
      <point x="97" y="332" type="line"/>
      <point x="97" y="217" type="line"/>
      <point x="192" y="256" type="line"/>
      <point x="192" y="202" type="line"/>
      <point x="97" y="165" type="line"/>
      <point x="97" y="49" type="line"/>
      <point x="192" y="85" type="line"/>
    </contour>
  </outline>
</glyph>
<glyph name="peso" format="1">
  <advance width="600"/>
  <unicode hex="20B1"/>
  <outline>
    <contour>
      <point x="93" y="0" type="line"/>
      <point x="300" y="0" type="line"/>
      <point x="300" y="204" type="line"/>
      <point x="293" y="204" type="line" smooth="yes"/>
      <point x="383" y="204"/>
      <point x="457" y="253"/>
      <point x="494" y="335" type="curve"/>
      <point x="456" y="318" type="line"/>
      <point x="577" y="318" type="line"/>
      <point x="577" y="430" type="line"/>
      <point x="505" y="430" type="line"/>
      <point x="518" y="429" type="line"/>
      <point x="520" y="447"/>
      <point x="520" y="471"/>
      <point x="518" y="491" type="curve"/>
      <point x="506" y="480" type="line"/>
      <point x="577" y="480" type="line"/>
      <point x="577" y="592" type="line"/>
      <point x="456" y="592" type="line"/>
      <point x="496" y="574" type="line"/>
      <point x="457" y="656"/>
      <point x="381" y="705"/>
      <point x="293" y="705" type="curve" smooth="yes"/>
      <point x="93" y="705" type="line"/>
      <point x="93" y="592" type="line"/>
      <point x="24" y="592" type="line"/>
      <point x="24" y="480" type="line"/>
      <point x="93" y="480" type="line"/>
      <point x="93" y="430" type="line"/>
      <point x="24" y="430" type="line"/>
      <point x="24" y="318" type="line"/>
      <point x="93" y="318" type="line"/>
    </contour>
    <contour>
      <point x="296" y="363" type="line"/>
      <point x="296" y="544" type="line"/>
      <point x="299" y="544" type="line" smooth="yes"/>
      <point x="316" y="544"/>
      <point x="327" y="527"/>
      <point x="327" y="452" type="curve" smooth="yes"/>
      <point x="327" y="377"/>
      <point x="316" y="363"/>
      <point x="299" y="363" type="curve" smooth="yes"/>
    </contour>
  </outline>
</glyph>
<glyph name="tenge" format="1">
  <advance width="600"/>
  <unicode hex="20B8"/>
  <outline>
    <contour>
      <point x="192" y="0" type="line"/>
      <point x="408" y="0" type="line"/>
      <point x="408" y="431" type="line"/>
      <point x="595" y="431" type="line"/>
      <point x="595" y="543" type="line"/>
      <point x="5" y="543" type="line"/>
      <point x="5" y="431" type="line"/>
      <point x="192" y="431" type="line"/>
    </contour>
    <contour>
      <point x="5" y="593" type="line"/>
      <point x="595" y="593" type="line"/>
      <point x="595" y="705" type="line"/>
      <point x="5" y="705" type="line"/>
    </contour>
  </outline>
</glyph>
<glyph name="literSign" format="1">
  <advance width="600"/>
  <unicode hex="2113"/>
  <outline>
    <contour>
      <point x="338" y="-12" type="curve" smooth="yes"/>
      <point x="400" y="-12"/>
      <point x="470" y="14"/>
      <point x="509" y="51" type="curve"/>
      <point x="460" y="170" type="line"/>
      <point x="434" y="150"/>
      <point x="414" y="141"/>
      <point x="392" y="141" type="curve" smooth="yes"/>
      <point x="360" y="141"/>
      <point x="336" y="172"/>
      <point x="336" y="215" type="curve" smooth="yes"/>
      <point x="336" y="291" type="line"/>
      <point x="365" y="319" type="line" smooth="yes"/>
      <point x="475" y="426"/>
      <point x="502" y="492"/>
      <point x="502" y="566" type="curve" smooth="yes"/>
      <point x="502" y="665"/>
      <point x="448" y="717"/>
      <point x="347" y="717" type="curve" smooth="yes"/>
      <point x="230" y="717"/>
      <point x="145" y="631"/>
      <point x="145" y="512" type="curve" smooth="yes"/>
      <point x="145" y="265" type="line"/>
      <point x="36" y="179" type="line"/>
      <point x="96" y="115" type="line"/>
      <point x="164" y="164" type="line"/>
      <point x="145" y="206" type="line"/>
      <point x="145" y="178" type="line" smooth="yes"/>
      <point x="145" y="61"/>
      <point x="219" y="-12"/>
    </contour>
    <contour>
      <point x="336" y="415" type="curve"/>
      <point x="336" y="547" type="line" smooth="yes"/>
      <point x="336" y="569"/>
      <point x="349" y="584"/>
      <point x="369" y="584" type="curve" smooth="yes"/>
      <point x="388" y="584"/>
      <point x="398" y="570"/>
      <point x="398" y="543" type="curve" smooth="yes"/>
      <point x="398" y="500"/>
      <point x="379" y="457"/>
      <point x="346" y="423" type="curve" smooth="yes"/>
      <point x="344" y="421"/>
      <point x="341" y="418"/>
    </contour>
  </outline>
</glyph>
<glyph name="trademark" format="1">
  <advance width="1009"/>
  <unicode hex="2122"/>
  <outline>
    <contour>
      <point x="118" y="284" type="line"/>
      <point x="304" y="284" type="line"/>
      <point x="304" y="557" type="line"/>
      <point x="403" y="557" type="line"/>
      <point x="403" y="705" type="line"/>
      <point x="20" y="705" type="line"/>
      <point x="20" y="557" type="line"/>
      <point x="118" y="557" type="line"/>
    </contour>
    <contour>
      <point x="456" y="284" type="line"/>
      <point x="611" y="284" type="line"/>
      <point x="611" y="483" type="line"/>
      <point x="591" y="483" type="line"/>
      <point x="667" y="366" type="line"/>
      <point x="739" y="366" type="line"/>
      <point x="817" y="483" type="line"/>
      <point x="797" y="483" type="line"/>
      <point x="797" y="284" type="line"/>
      <point x="953" y="284" type="line"/>
      <point x="953" y="705" type="line"/>
      <point x="810" y="705" type="line"/>
      <point x="692" y="517" type="line"/>
      <point x="717" y="517" type="line"/>
      <point x="599" y="705" type="line"/>
      <point x="456" y="705" type="line"/>
    </contour>
  </outline>
</glyph>
<glyph name="Ohm" format="1">
  <advance width="600"/>
  <unicode hex="2126"/>
  <outline>
    <contour>
      <point x="15" y="0" type="line"/>
      <point x="277" y="0" type="line"/>
      <point x="277" y="166" type="line"/>
      <point x="241" y="212"/>
      <point x="227" y="296"/>
      <point x="227" y="382" type="curve" smooth="yes"/>
      <point x="227" y="508"/>
      <point x="262" y="547"/>
      <point x="300" y="547" type="curve" smooth="yes"/>
      <point x="339" y="547"/>
      <point x="373" y="508"/>
      <point x="373" y="382" type="curve" smooth="yes"/>
      <point x="373" y="296"/>
      <point x="359" y="212"/>
      <point x="323" y="166" type="curve"/>
      <point x="323" y="0" type="line"/>
      <point x="585" y="0" type="line"/>
      <point x="585" y="170" type="line"/>
      <point x="421" y="170" type="line"/>
      <point x="421" y="131" type="line"/>
      <point x="533" y="181"/>
      <point x="576" y="278"/>
      <point x="576" y="402" type="curve" smooth="yes"/>
      <point x="576" y="590"/>
      <point x="478" y="717"/>
      <point x="300" y="716" type="curve" smooth="yes"/>
      <point x="122" y="715"/>
      <point x="24" y="590"/>
      <point x="24" y="402" type="curve" smooth="yes"/>
      <point x="24" y="278"/>
      <point x="68" y="181"/>
      <point x="179" y="131" type="curve"/>
      <point x="179" y="170" type="line"/>
      <point x="15" y="170" type="line"/>
    </contour>
  </outline>
</glyph>
<glyph name="radical" format="1">
  <advance width="600"/>
  <unicode hex="221A"/>
  <outline>
    <contour>
      <point x="597" y="758" type="line"/>
      <point x="430" y="758" type="line"/>
      <point x="283" y="-4" type="line"/>
      <point x="301" y="-4" type="line"/>
      <point x="222" y="357" type="line"/>
      <point x="6" y="357" type="line"/>
      <point x="6" y="205" type="line"/>
      <point x="171" y="205" type="line"/>
      <point x="74" y="278" type="line"/>
      <point x="193" y="-180" type="line"/>
      <point x="397" y="-180" type="line"/>
    </contour>
  </outline>
</glyph>
<glyph name="lessequal" format="1">
  <advance width="600"/>
  <unicode hex="2264"/>
  <outline>
    <contour>
      <point x="56" y="268" type="line"/>
      <point x="544" y="143" type="line"/>
      <point x="544" y="284" type="line"/>
      <point x="77" y="396" type="line"/>
      <point x="77" y="296" type="line"/>
      <point x="544" y="407" type="line"/>
      <point x="544" y="548" type="line"/>
      <point x="56" y="423" type="line"/>
    </contour>
    <contour>
      <point x="544" y="136" type="line"/>
      <point x="56" y="136" type="line"/>
      <point x="56" y="0" type="line"/>
      <point x="544" y="0" type="line"/>
    </contour>
  </outline>
</glyph>
<glyph name="leftanglebracket-math" format="1">
  <advance width="600"/>
  <unicode hex="27E8"/>
  <outline>
    <contour>
      <point x="327" y="-32" type="line"/>
      <point x="398" y="-6" type="line"/>
      <point x="282" y="349" type="line"/>
      <point x="396" y="700" type="line"/>
      <point x="325" y="727" type="line"/>
      <point x="203" y="346" type="line"/>
      <point x="203" y="333" type="line"/>
    </contour>
  </outline>
</glyph>
<glyph name="fi" format="1">
  <advance width="710"/>
  <unicode hex="FB01"/>
  <outline>
    <contour>
      <point x="457" y="751" type="line"/>
      <point x="457" y="567" type="line"/>
      <point x="669" y="567" type="line"/>
      <point x="669" y="751" type="line"/>
    </contour>
    <contour>
      <point x="665" y="494" type="line"/>
      <point x="299" y="494" type="line"/>
      <point x="299" y="505" type="line" smooth="yes"/>
      <point x="299" y="543"/>
      <point x="320" y="557"/>
      <point x="395" y="562" type="curve" smooth="yes"/>
      <point x="427" y="564" type="line"/>
      <point x="419" y="711" type="line"/>
      <point x="364" y="708" type="line" smooth="yes"/>
      <point x="176" y="698"/>
      <point x="91" y="622"/>
      <point x="91" y="464" type="curve" smooth="yes"/>
      <point x="91" y="439" type="line"/>
      <point x="152" y="494" type="line"/>
      <point x="0" y="494" type="line"/>
      <point x="0" y="342" type="line"/>
      <point x="91" y="342" type="line"/>
      <point x="91" y="0" type="line"/>
      <point x="299" y="0" type="line"/>
      <point x="299" y="342" type="line"/>
      <point x="457" y="342" type="line"/>
      <point x="457" y="0" type="line"/>
      <point x="665" y="0" type="line"/>
    </contour>
  </outline>
</glyph>
<glyph name="__Zedescener-cy.case" format="1">
  <advance width="855"/>
  <outline>
    <contour>
      <point x="339" y="-180" type="line"/>
      <point x="512" y="-180" type="line"/>
      <point x="512" y="108" type="line"/>
      <point x="339" y="108" type="line"/>
    </contour>
    <contour>
      <point x="426" y="0" type="move" name="_bottom"/>
    </contour>
  </outline>
</glyph>
<glyph name="__Zedescener-cy" format="1">
  <advance width="555"/>
  <outline>
    <contour>
      <point x="207" y="-124" type="line"/>
      <point x="365" y="-124" type="line"/>
      <point x="365" y="85" type="line"/>
      <point x="207" y="85" type="line"/>
    </contour>
    <contour>
      <point x="285" y="0" type="move" name="_bottom"/>
    </contour>
  </outline>
</glyph>
<glyph name="__bar.Obarred-cy" format="1">
  <advance width="806"/>
  <outline>
    <contour>
      <point x="159" y="281" type="line"/>
      <point x="645" y="281" type="line"/>
      <point x="645" y="435" type="line"/>
      <point x="159" y="435" type="line"/>
    </contour>
    <contour>
      <point x="404" y="353" type="move" name="_center"/>
    </contour>
  </outline>
</glyph>
<glyph name="__descender-cy.case" format="1">
  <advance width="56"/>
  <outline>
    <contour>
      <point x="116" y="-180" type="line"/>
      <point x="301" y="-180" type="line"/>
      <point x="301" y="167" type="line"/>
      <point x="0" y="167" type="line"/>
      <point x="0" y="0" type="line"/>
      <point x="116" y="0" type="line"/>
    </contour>
    <contour>
      <point x="0" y="0" type="move" name="_bottomright"/>
    </contour>
  </outline>
</glyph>
<glyph name="__descender-cy.case.mirror" format="1">
  <advance width="32"/>
  <outline>
    <contour>
      <point x="109" y="-179" type="line"/>
      <point x="109" y="0" type="line"/>
      <point x="163" y="0" type="line"/>
      <point x="163" y="167" type="line"/>
      <point x="-86" y="167" type="line"/>
      <point x="-86" y="-179" type="line"/>
    </contour>
    <contour>
      <point x="16" y="0" type="move" name="_bottomright"/>
    </contour>
  </outline>
</glyph>
<glyph name="__descender-cy.che" format="1">
  <advance width="45"/>
  <outline>
    <contour>
      <point x="87" y="-128" type="line"/>
      <point x="87" y="0" type="line"/>
      <point x="185" y="0" type="line"/>
      <point x="185" y="97" type="line"/>
      <point x="-88" y="97" type="line"/>
      <point x="-88" y="-128" type="line"/>
    </contour>
    <contour>
      <point x="-3" y="0" type="move" name="_bottomright"/>
    </contour>
  </outline>
</glyph>
<glyph name="__descender-cy.cy" format="1">
  <advance width="74"/>
  <outline>
    <contour>
      <point x="41" y="-128" type="line"/>
      <point x="229" y="-128" type="line"/>
      <point x="229" y="152" type="line"/>
      <point x="0" y="152" type="line"/>
      <point x="0" y="0" type="line"/>
      <point x="41" y="0" type="line"/>
    </contour>
    <contour>
      <point x="0" y="0" type="move" name="_bottomright"/>
    </contour>
  </outline>
</glyph>
<glyph name="__descender-cy" format="1">
  <advance width="0"/>
  <outline>
    <contour>
      <point x="104" y="-130" type="line"/>
      <point x="274" y="-130" type="line"/>
      <point x="274" y="152" type="line"/>
      <point x="0" y="152" type="line"/>
      <point x="0" y="0" type="line"/>
      <point x="104" y="0" type="line"/>
    </contour>
    <contour>
      <point x="0" y="0" type="move" name="_bottomright"/>
    </contour>
  </outline>
</glyph>
<glyph name="__strokehook-cy" format="1">
  <advance width="629"/>
  <outline>
    <contour>
      <point x="61" y="-189" type="line"/>
      <point x="154" y="-183" type="line" smooth="yes"/>
      <point x="325" y="-172"/>
      <point x="402" y="-100"/>
      <point x="402" y="45" type="curve" smooth="yes"/>
      <point x="402" y="167" type="line"/>
      <point x="86" y="167" type="line"/>
      <point x="86" y="0" type="line"/>
      <point x="206" y="0" type="line"/>
      <point x="206" y="-23"/>
      <point x="175" y="-43"/>
      <point x="116" y="-48" type="curve" smooth="yes"/>
      <point x="47" y="-54" type="line"/>
    </contour>
    <contour>
      <point x="86" y="0" type="move" name="_bottomright"/>
    </contour>
  </outline>
</glyph>
<glyph name="__tail-cy.case" format="1">
  <advance width="41"/>
  <outline>
    <contour>
      <point x="14" y="-180" type="line"/>
      <point x="195" y="-180" type="line"/>
      <point x="312" y="167" type="line"/>
      <point x="0" y="167" type="line"/>
      <point x="0" y="0" type="line"/>
      <point x="74" y="0" type="line"/>
    </contour>
    <contour>
      <point x="0" y="0" type="move" name="_bottomright"/>
    </contour>
  </outline>
</glyph>
<glyph name="__tail-cy" format="1">
  <advance width="37"/>
  <outline>
    <contour>
      <point x="28" y="-128" type="line"/>
      <point x="198" y="-128" type="line"/>
      <point x="292" y="152" type="line"/>
      <point x="0" y="152" type="line"/>
      <point x="0" y="0" type="line"/>
      <point x="69" y="0" type="line"/>
    </contour>
    <contour>
      <point x="0" y="0" type="move" name="_bottomright"/>
    </contour>
  </outline>
</glyph>
<glyph name="_part.Qtail" format="1">
  <advance width="806"/>
  <outline>
    <contour>
      <point x="591" y="-234" type="line"/>
      <point x="775" y="-152" type="line"/>
      <point x="692" y="-19" type="line" smooth="yes"/>
      <point x="664" y="27"/>
      <point x="622" y="48"/>
      <point x="562" y="48" type="curve"/>
      <point x="404" y="-10" type="line"/>
      <point x="438" y="-10"/>
      <point x="457" y="-18"/>
      <point x="469" y="-36" type="curve" smooth="yes"/>
    </contour>
    <contour>
      <point x="404" y="-10" type="move" name="_Qtail"/>
    </contour>
  </outline>
</glyph>
